<svg id="Grupo_147505" data-name="Grupo 147505" xmlns="http://www.w3.org/2000/svg" xmlns:xlink="http://www.w3.org/1999/xlink" width="122.455" height="122.455" viewBox="0 0 122.455 122.455">
  <defs>
    <radialGradient id="radial-gradient" cx="0.076" cy="0.019" r="1.465" gradientTransform="translate(0.001)" gradientUnits="objectBoundingBox">
      <stop offset="0" stop-color="#f6f6f7"/>
      <stop offset="0.477" stop-color="#f9f9fa"/>
      <stop offset="0.715" stop-color="#fff"/>
    </radialGradient>
  </defs>
  <g id="Grupo_42274" data-name="Grupo 42274">
    <g id="Grupo_18423" data-name="Grupo 18423" transform="translate(0 0)">
      <g id="Grupo_18421" data-name="Grupo 18421">
        <g id="Grupo_18420" data-name="Grupo 18420">
          <g id="Grupo_18419" data-name="Grupo 18419">
            <path id="Trazado_40936" data-name="Trazado 40936" d="M317.078,2206.947a61.228,61.228,0,1,1-61.227-61.226A61.227,61.227,0,0,1,317.078,2206.947Z" transform="translate(-194.623 -2145.721)" fill="#fff"/>
          </g>
        </g>
      </g>
      <path id="Trazado_40937" data-name="Trazado 40937" d="M316.368,2206.173a61.226,61.226,0,1,0-61.227,61.229A60.985,60.985,0,0,0,316.368,2206.173Z" transform="translate(-193.913 -2144.947)" fill="url(#radial-gradient)"/>
      <path id="Trazado_40938" data-name="Trazado 40938" d="M295.565,2199.888a46.735,46.735,0,1,0-46.735,46.735A46.561,46.561,0,0,0,295.565,2199.888Z" transform="translate(-187.417 -2138.458)" fill="none" stroke="#6bbcb1" stroke-miterlimit="10" stroke-width="4"/>
      <g id="Grupo_18422" data-name="Grupo 18422" transform="translate(10.847 34.375)">
        <path id="Trazado_40939" data-name="Trazado 40939" d="M305.962,2164.488a61.235,61.235,0,0,1-105.417,60.974,61.04,61.04,0,0,0,105.417-60.974Z" transform="translate(-200.545 -2164.488)" fill="#eceef0"/>
      </g>
    </g>
  </g>
  <g id="_7bnqIy.tif" data-name="7bnqIy.tif" transform="translate(-2049.493 7436.755)">
    <g id="Grupo_147510" data-name="Grupo 147510" transform="translate(2089.922 -7404.738)">
      <path id="Trazado_191293" data-name="Trazado 191293" d="M2092.012-7404.736h39.229c1.573.537,2.093,1.673,2.091,3.29q-.043,24.526-.018,49.06c0,2.159-.964,3.13-3.108,3.13h-23.332c0,1.889,0,3.693,0,5.5a1.311,1.311,0,0,1-.85,1.345,1.263,1.263,0,0,1-1.479-.409c-.372-.4-.72-.826-1.078-1.242-.576-.666-1.153-1.335-1.748-2.023-.941,1.095-1.831,2.124-2.713,3.159a1.313,1.313,0,0,1-1.551.524,1.329,1.329,0,0,1-.88-1.385c-.012-1.14,0-2.274-.006-3.412v-2.056h-.968c-.913,0-1.826,0-2.741,0a2.644,2.644,0,0,1-2.925-2.948q0-24.623-.017-49.241C2089.918-7403.065,2090.439-7404.2,2092.012-7404.736Zm38.637,2.635h-38.081v50.188h3.974a3.207,3.207,0,0,0-.615-2.635,6.52,6.52,0,0,1-1.572-4.5,7.384,7.384,0,0,1,5.223-7.032,7.355,7.355,0,0,1,8.281,2.982,7.229,7.229,0,0,1-.43,8.672c-.718.835-.493,1.65-.54,2.535h23.76Zm-24.226,43.093a4.759,4.759,0,0,0-4.739-4.772,4.8,4.8,0,0,0-4.781,4.751,4.806,4.806,0,0,0,4.758,4.774A4.77,4.77,0,0,0,2106.423-7359.008Zm-2.174,6.893a7.46,7.46,0,0,1-5.026.035v4.849c.46-.529.841-.962,1.22-1.4.937-1.087,1.65-1.078,2.591.026.373.439.75.875,1.216,1.42Z" transform="translate(-2089.922 7404.736)" fill="#12263f"/>
      <path id="Trazado_191294" data-name="Trazado 191294" d="M2177.29-7317.989h-10.6c-.142,0-.284,0-.427,0-.986-.024-1.561-.522-1.55-1.335.013-.784.573-1.277,1.539-1.28q11.023-.013,22.048,0c1,0,1.562.514,1.546,1.329a1.2,1.2,0,0,1-.937,1.2,3.575,3.575,0,0,1-.842.089Q2182.68-7317.983,2177.29-7317.989Z" transform="translate(-2155.577 7330.891)" fill="#12263f"/>
      <path id="Trazado_191295" data-name="Trazado 191295" d="M2177.343-7136.967q5.329,0,10.658,0a4.286,4.286,0,0,1,.845.075,1.2,1.2,0,0,1,1,1.2,1.206,1.206,0,0,1-1,1.262,3.262,3.262,0,0,1-.722.076q-10.842.007-21.683,0a3.431,3.431,0,0,1-.781-.086,1.215,1.215,0,0,1-.944-1.253,1.2,1.2,0,0,1,1-1.2,4.293,4.293,0,0,1,.844-.075Q2171.954-7136.971,2177.343-7136.967Z" transform="translate(-2155.577 7169.68)" fill="#12263f"/>
      <path id="Trazado_191296" data-name="Trazado 191296" d="M2177.369-7259.221h10.718a5.038,5.038,0,0,1,.729.036,1.222,1.222,0,0,1,1.045,1.1,1.2,1.2,0,0,1-.819,1.336,3.316,3.316,0,0,1-.959.108q-10.778.01-21.558,0a3.316,3.316,0,0,1-.959-.108,1.2,1.2,0,0,1-.817-1.338,1.232,1.232,0,0,1,1.051-1.1,4.888,4.888,0,0,1,.728-.034Z" transform="translate(-2155.602 7276.999)" fill="#12263f"/>
      <path id="Trazado_191297" data-name="Trazado 191297" d="M2177.317-7195.536q-5.389,0-10.78,0a4.67,4.67,0,0,1-.789-.044,1.229,1.229,0,0,1-1.011-1.135,1.221,1.221,0,0,1,.805-1.293,2.776,2.776,0,0,1,.836-.115q10.93-.007,21.862,0c1.213,0,1.939.847,1.535,1.789a1.379,1.379,0,0,1-1.437.807c-2.253-.007-4.506,0-6.759,0Z" transform="translate(-2155.595 7223.371)" fill="#12263f"/>
      <path id="Trazado_191298" data-name="Trazado 191298" d="M2271.5-7075.6c1.685,0,3.371-.018,5.056.006a1.284,1.284,0,0,1,1.309,1.675,1.4,1.4,0,0,1-1.5.9q-4.629.007-9.259,0c-.243,0-.488.009-.73-.007a1.313,1.313,0,0,1-1.34-1.3,1.273,1.273,0,0,1,1.348-1.273C2268.085-7075.616,2269.791-7075.6,2271.5-7075.6Z" transform="translate(-2243.639 7115.815)" fill="#12263f"/>
    </g>
  </g>
</svg>
