<svg id="Grupo_147512" data-name="Grupo 147512" xmlns="http://www.w3.org/2000/svg" xmlns:xlink="http://www.w3.org/1999/xlink" width="122.455" height="122.455" viewBox="0 0 122.455 122.455">
  <defs>
    <radialGradient id="radial-gradient" cx="0.076" cy="0.019" r="1.465" gradientTransform="translate(0.001)" gradientUnits="objectBoundingBox">
      <stop offset="0" stop-color="#f6f6f7"/>
      <stop offset="0.477" stop-color="#f9f9fa"/>
      <stop offset="0.715" stop-color="#fff"/>
    </radialGradient>
  </defs>
  <g id="Grupo_42274" data-name="Grupo 42274">
    <g id="Grupo_18423" data-name="Grupo 18423" transform="translate(0 0)">
      <g id="Grupo_18421" data-name="Grupo 18421">
        <g id="Grupo_18420" data-name="Grupo 18420">
          <g id="Grupo_18419" data-name="Grupo 18419">
            <path id="Trazado_40936" data-name="Trazado 40936" d="M317.078,2206.947a61.228,61.228,0,1,1-61.227-61.226A61.227,61.227,0,0,1,317.078,2206.947Z" transform="translate(-194.623 -2145.721)" fill="#fff"/>
          </g>
        </g>
      </g>
      <path id="Trazado_40937" data-name="Trazado 40937" d="M316.368,2206.173a61.226,61.226,0,1,0-61.227,61.229A60.985,60.985,0,0,0,316.368,2206.173Z" transform="translate(-193.913 -2144.947)" fill="url(#radial-gradient)"/>
      <path id="Trazado_40938" data-name="Trazado 40938" d="M295.565,2199.888a46.735,46.735,0,1,0-46.735,46.735A46.561,46.561,0,0,0,295.565,2199.888Z" transform="translate(-187.417 -2138.458)" fill="none" stroke="#6bbcb1" stroke-miterlimit="10" stroke-width="4"/>
      <g id="Grupo_18422" data-name="Grupo 18422" transform="translate(10.847 34.375)">
        <path id="Trazado_40939" data-name="Trazado 40939" d="M305.962,2164.488a61.235,61.235,0,0,1-105.417,60.974,61.04,61.04,0,0,0,105.417-60.974Z" transform="translate(-200.545 -2164.488)" fill="#eceef0"/>
      </g>
    </g>
  </g>
  <g id="Pr4cvI.tif" transform="translate(-1999.831 7060.21)">
    <g id="Grupo_147528" data-name="Grupo 147528" transform="translate(2039.351 -7024.256)">
      <path id="Trazado_191304" data-name="Trazado 191304" d="M2233.852-6818.423c1.8,5.169,3.523,10.107,5.236,15.05a5.167,5.167,0,0,1,.513,1.917c-.046.56-.465,1.427-.879,1.532a2.479,2.479,0,0,1-1.823-.608c-.38-.3-.486-.974-.669-1.5-1.706-4.9-3.466-9.775-5.063-14.707a2.072,2.072,0,0,0-2.509-1.709,28.523,28.523,0,0,1-4.186,0c-1.09-.071-1.56.354-1.9,1.366-1.667,4.969-3.411,9.911-5.129,14.863-.128.369-.238.745-.38,1.108-.382.975-.968,1.705-2.141,1.281-1.072-.387-1.14-1.264-.849-2.217.162-.531.36-1.055.542-1.581,1.677-4.839,3.352-9.68,5.124-14.8-2.422,0-4.626.01-6.832,0-2.226-.012-2.616-.4-2.626-2.65-.012-2.85.049-5.7-.047-8.545a2.409,2.409,0,0,0-.938-1.688c-4.224-2.729-6.217-6.573-5.465-11.525.729-4.8,3.661-7.926,8.345-9.253,4.44-1.258,8.946.427,11.994,4.337.162.207.339.4.514.61,5.96-6.165,11.928-7.013,17.209-2.573,3.917,3.292,6.219,10.511.212,17.158,1.115-.539,1.838-.9,2.572-1.241,1.656-.769,2.71-.24,2.742,1.523q.1,5.7,0,11.395c-.029,1.709-.991,2.259-2.587,1.636-.671-.262-1.325-.572-2.092-.907-.456,1.605-1.652,1.784-3.036,1.743C2237.825-6818.467,2235.942-6818.423,2233.852-6818.423Zm-20.343-11.253v7.919h25.814c.191-1.215.2-2.592,1.781-2.418a14.2,14.2,0,0,1,3.046,1.043v-6.831a12.849,12.849,0,0,1-2.109,1.019c-.6.163-1.6.322-1.849.015-.882-1.069-1.974-.81-3.047-.832a7.984,7.984,0,0,1-2.329-.062,7,7,0,0,1-1.8-1.379,15.269,15.269,0,0,1,1.5-1.679c.251-.213.752-.125,1.138-.188a7.871,7.871,0,0,0,6.694-5.773,7.981,7.981,0,0,0-2.63-8.595,7.822,7.822,0,0,0-8.788-1.013,7.866,7.866,0,0,0-4.581,7.249c-.048,1.065-.428,1.94-1.64,1.891-1.174-.05-1.573-.9-1.56-1.986,0-.111-.008-.223-.015-.334a8.147,8.147,0,0,0-8.195-7.677,8.236,8.236,0,0,0-8.169,7.915,8.207,8.207,0,0,0,7.335,8.351c1.108.142,2.427.179,2.339,1.766-.086,1.563-1.364,1.511-2.5,1.526A3.3,3.3,0,0,0,2213.509-6829.676Z" transform="translate(-2203.677 6852.507)" fill="#12263f"/>
    </g>
  </g>
</svg>
