<svg id="Grupo_111595" data-name="Grupo 111595" xmlns="http://www.w3.org/2000/svg" xmlns:xlink="http://www.w3.org/1999/xlink" width="85.223" height="85.223" viewBox="0 0 85.223 85.223">
  <defs>
    <radialGradient id="radial-gradient" cx="0.076" cy="0.019" r="1.465" gradientTransform="translate(0.001)" gradientUnits="objectBoundingBox">
      <stop offset="0" stop-color="#f6f6f7"/>
      <stop offset="0.477" stop-color="#f9f9fa"/>
      <stop offset="0.715" stop-color="#fff"/>
    </radialGradient>
  </defs>
  <g id="Grupo_18423" data-name="Grupo 18423" transform="translate(0 0)">
    <g id="Grupo_18421" data-name="Grupo 18421">
      <g id="Grupo_18420" data-name="Grupo 18420">
        <g id="Grupo_18419" data-name="Grupo 18419">
          <path id="Trazado_40936" data-name="Trazado 40936" d="M279.846,2188.331a42.611,42.611,0,1,1-42.611-42.61A42.611,42.611,0,0,1,279.846,2188.331Z" transform="translate(-194.623 -2145.721)" fill="#fff"/>
        </g>
      </g>
    </g>
    <path id="Trazado_40937" data-name="Trazado 40937" d="M279.611,2188.076A42.61,42.61,0,1,0,237,2230.688,42.444,42.444,0,0,0,279.611,2188.076Z" transform="translate(-194.388 -2145.465)" fill="url(#radial-gradient)"/>
    <path id="Trazado_40938" data-name="Trazado 40938" d="M267.508,2186.073a32.525,32.525,0,1,0-32.525,32.525A32.4,32.4,0,0,0,267.508,2186.073Z" transform="translate(-192.242 -2143.321)" fill="none" stroke="#d44f4a" stroke-miterlimit="10" stroke-width="4"/>
    <g id="Grupo_18422" data-name="Grupo 18422" transform="translate(7.549 23.923)">
      <path id="Trazado_40939" data-name="Trazado 40939" d="M273.91,2164.488a42.616,42.616,0,0,1-73.365,42.435,42.481,42.481,0,0,0,73.365-42.435Z" transform="translate(-200.545 -2164.488)" fill="#eceef0"/>
    </g>
  </g>
  <g id="_83oj6T" data-name="83oj6T" transform="translate(26.602 25.786)">
    <g id="Grupo_143141" data-name="Grupo 143141">
      <path id="Trazado_184357" data-name="Trazado 184357" d="M2875.464-2071.541c.938-2.311,1.772-2.867,4.3-2.867,1.639,0,3.278,0,4.917,0,.509,0,.984.072.983.714,0,.626-.462.742-.974.743-1.847,0-3.694,0-5.54,0a2.063,2.063,0,0,0-2.245,2.227q-.016,10.887,0,21.773a2.2,2.2,0,0,0,2.279,2.351c6.686.019,13.371.008,20.056.006a3.613,3.613,0,0,0,.407-.059v-.832c0-1.691-.014-3.382,0-5.072a3.57,3.57,0,0,1,3.522-3.541c.7-.012,1.4.011,2.107-.007.521-.013.916.175.9.72-.015.529-.413.728-.927.718q-.975-.019-1.951,0a2.156,2.156,0,0,0-2.219,2.219c-.017,1.532,0,3.064,0,4.707a5.3,5.3,0,0,0,.466-.361c2.394-2.389,4.794-4.771,7.161-7.186a1.7,1.7,0,0,0,.434-1.076c.029-4.682.01-9.365.037-14.047a1.22,1.22,0,0,1,.422-.949c.234-.111.657.176,1,.288v15.928l-9.995,9.994h-22.019a3.969,3.969,0,0,1-3.123-3.123Z" transform="translate(-2875.464 2080.286)" fill="#12263f"/>
      <path id="Trazado_184358" data-name="Trazado 184358" d="M2961.023-2112.042a1.816,1.816,0,0,1,1.1,1.94c-.045,1.218,0,2.44-.014,3.66a1.534,1.534,0,0,1-1.723,1.731q-4.128.018-8.255,0a1.534,1.534,0,0,1-1.722-1.733c-.01-1.22.032-2.441-.014-3.66a1.812,1.812,0,0,1,1.1-1.938Zm-9.146,5.827h8.739v-4.341h-8.739Z" transform="translate(-2938.692 2112.042)" fill="#12263f"/>
      <path id="Trazado_184359" data-name="Trazado 184359" d="M2956.3-2048.457c-1.377,0-2.754.007-4.132,0-1.173-.007-1.7-.543-1.711-1.726-.009-1.3-.011-2.6,0-3.9a1.486,1.486,0,0,1,1.686-1.673q4.171-.015,8.342,0a1.486,1.486,0,0,1,1.671,1.689c.011,1.325.014,2.65,0,3.975a1.468,1.468,0,0,1-1.646,1.631C2959.108-2048.447,2957.705-2048.457,2956.3-2048.457Zm4.389-1.478v-4.326h-8.762v4.326Z" transform="translate(-2938.741 2064.552)" fill="#12263f"/>
      <path id="Trazado_184360" data-name="Trazado 184360" d="M2956.25-1992.078c-1.4,0-2.805.01-4.208,0a1.432,1.432,0,0,1-1.592-1.592q-.026-2.026,0-4.052a1.417,1.417,0,0,1,1.57-1.606q4.286-.017,8.573,0a1.4,1.4,0,0,1,1.552,1.544q.03,2.064,0,4.13a1.435,1.435,0,0,1-1.608,1.576C2959.108-1992.068,2957.679-1992.078,2956.25-1992.078Zm-4.327-5.787v4.29h8.733v-4.29Z" transform="translate(-2938.73 2016.939)" fill="#12263f"/>
      <path id="Trazado_184361" data-name="Trazado 184361" d="M3037.4-2082.738a8.306,8.306,0,0,1,.869.615c.358.324.461.789.043,1.062a1.078,1.078,0,0,1-1.012-.05,27.7,27.7,0,0,1-2.109-2.077.724.724,0,0,1,.021-1.107c.695-.7,1.364-1.435,2.116-2.071.209-.177.669-.055,1.015-.071a2.6,2.6,0,0,1-.037,1.032c-.146.3-.524.481-.8.714l.1.218c.864,0,1.732.047,2.588-.032a.914.914,0,0,0,.577-.672c.048-1.948.035-3.9.025-5.849,0-.6-.394-.781-.939-.777-1.326.01-2.652,0-3.978.005-.55,0-.983-.195-.876-.789a.984.984,0,0,1,.719-.609q2.3-.083,4.6-.009a1.965,1.965,0,0,1,1.889,1.927q.055,3.158,0,6.317a1.983,1.983,0,0,1-1.974,1.921c-.857.027-1.714.021-2.572.032-.015,0-.028.039-.043.059Z" transform="translate(-3010.043 2096.175)" fill="#12263f"/>
      <path id="Trazado_184362" data-name="Trazado 184362" d="M2898.961-2026.82c-.742,0-1.485,0-2.228,0a2.113,2.113,0,0,1-2.408-2.377q-.01-2.769,0-5.537a2.112,2.112,0,0,1,2.271-2.3c1.326-.015,2.652,0,3.978-.006.512,0,.991.087,1,.706.014.686-.5.734-1.037.728-1.247-.014-2.5.009-3.743-.01-.7-.01-1.063.25-1.054,1q.032,2.691,0,5.381c-.008.7.279,1,.976.979.725-.023,1.452,0,2.377,0-.351-.365-.593-.61-.827-.861-.326-.349-.458-.8-.043-1.074a1.076,1.076,0,0,1,1.013.039,27.439,27.439,0,0,1,2.113,2.072.765.765,0,0,1-.053,1.173c-.656.667-1.315,1.331-1.983,1.986-.361.354-.785.473-1.16.062a.7.7,0,0,1,.146-1.092c.253-.22.544-.4.819-.594Z" transform="translate(-2891.375 2048.753)" fill="#12263f"/>
      <path id="Trazado_184363" data-name="Trazado 184363" d="M2904.857-1938.509c1.375,0,2.751-.011,4.127,0,1.205.013,1.672.5,1.682,1.717.019,2.469-.148,2.636-2.639,2.636-2.388,0-4.776,0-7.165,0-1.394,0-1.846-.468-1.855-1.877,0-.234,0-.467,0-.7.017-1.292.49-1.766,1.8-1.775C2902.157-1938.516,2903.507-1938.509,2904.857-1938.509Zm-4.351,2.84h8.682v-1.351h-8.682Z" transform="translate(-2895.329 1965.611)" fill="#12263f"/>
      <path id="Trazado_184364" data-name="Trazado 184364" d="M2985.958-1937.042c-.545,0-1.091.005-1.636,0-.467-.006-.838-.184-.856-.7s.337-.728.812-.731q1.714-.013,3.428,0c.479,0,.821.2.807.73s-.371.7-.842.705C2987.1-1937.039,2986.529-1937.042,2985.958-1937.042Z" transform="translate(-2966.6 1965.586)" fill="#12263f"/>
      <path id="Trazado_184365" data-name="Trazado 184365" d="M2984.668-1918.492c-.6,0-1.156-.02-1.16-.706,0-.659.515-.749,1.05-.755s1.057.087,1.074.734C2985.65-1918.539,2985.11-1918.482,2984.668-1918.492Z" transform="translate(-2966.636 1949.951)" fill="#12263f"/>
      <path id="Trazado_184366" data-name="Trazado 184366" d="M3003.364-1918.475c-.524,0-1.046-.052-1.017-.75.028-.68.56-.708,1.074-.71.533,0,1.037.09,1.019.765C3004.421-1918.472,3003.871-1918.48,3003.364-1918.475Z" transform="translate(-2982.531 1949.935)" fill="#12263f"/>
    </g>
  </g>
</svg>
