<svg xmlns="http://www.w3.org/2000/svg" xmlns:xlink="http://www.w3.org/1999/xlink" width="85.223" height="85.223" viewBox="0 0 85.223 85.223">
  <defs>
    <radialGradient id="radial-gradient" cx="0.076" cy="0.019" r="1.465" gradientTransform="translate(0.001)" gradientUnits="objectBoundingBox">
      <stop offset="0" stop-color="#f6f6f7"/>
      <stop offset="0.477" stop-color="#f9f9fa"/>
      <stop offset="0.715" stop-color="#fff"/>
    </radialGradient>
  </defs>
  <g id="Grupo_111597" data-name="Grupo 111597" transform="translate(0)">
    <g id="Grupo_18423" data-name="Grupo 18423" transform="translate(0 0)">
      <g id="Grupo_18421" data-name="Grupo 18421">
        <g id="Grupo_18420" data-name="Grupo 18420">
          <g id="Grupo_18419" data-name="Grupo 18419">
            <path id="Trazado_40936" data-name="Trazado 40936" d="M279.846,2188.331a42.611,42.611,0,1,1-42.611-42.61A42.611,42.611,0,0,1,279.846,2188.331Z" transform="translate(-194.623 -2145.721)" fill="#fff"/>
          </g>
        </g>
      </g>
      <path id="Trazado_40937" data-name="Trazado 40937" d="M279.611,2188.076A42.61,42.61,0,1,0,237,2230.688,42.444,42.444,0,0,0,279.611,2188.076Z" transform="translate(-194.388 -2145.465)" fill="url(#radial-gradient)"/>
      <path id="Trazado_40938" data-name="Trazado 40938" d="M267.508,2186.073a32.525,32.525,0,1,0-32.525,32.525A32.4,32.4,0,0,0,267.508,2186.073Z" transform="translate(-192.242 -2143.321)" fill="none" stroke="#d44f4a" stroke-miterlimit="10" stroke-width="4"/>
      <g id="Grupo_18422" data-name="Grupo 18422" transform="translate(7.549 23.923)">
        <path id="Trazado_40939" data-name="Trazado 40939" d="M273.91,2164.488a42.616,42.616,0,0,1-73.365,42.435,42.481,42.481,0,0,0,73.365-42.435Z" transform="translate(-200.545 -2164.488)" fill="#eceef0"/>
      </g>
    </g>
    <g id="YhmUKV.tif" transform="translate(24.835 21.748)">
      <g id="Grupo_143142" data-name="Grupo 143142" transform="translate(0)">
        <path id="Trazado_184367" data-name="Trazado 184367" d="M3276.255-2531.429h-1.36c0-.743-.027-1.474.01-2.2.024-.469-.115-.617-.6-.612-2.228.025-4.456.021-6.683,0-.421,0-.583.1-.562.547.035.748.01,1.5.01,2.268H3265.7v-2.825h-.657q-5.234,0-10.468,0a2.769,2.769,0,0,1-2.985-2.925q-.015-10.1,0-20.2a2.768,2.768,0,0,1,2.1-2.849,5.494,5.494,0,0,1,.682-.084c0,.417.02.774-.013,1.126-.009.1-.161.219-.273.259a1.48,1.48,0,0,0-1.131,1.583c0,5.686,0,11.372-.013,17.058,0,.462.234.444.549.444q5.971-.005,11.942,0H3287.6c.688,0,.688,0,.688-.69q0-8.358,0-16.715c0-1.191-.509-1.695-1.706-1.7a4.389,4.389,0,0,0-.589,0c-.419.056-.522-.124-.521-.523,0-1.035-.046-.844.866-.854a5.445,5.445,0,0,1,1.173.065,2.7,2.7,0,0,1,2.152,2.646q.007,10.348-.015,20.7a2.709,2.709,0,0,1-2.785,2.659c-3.309.009-6.618,0-9.927,0-.68,0-.68,0-.68.7S3276.255-2532.175,3276.255-2531.429Zm-5.641-4.183c5.175,0,10.351-.028,15.526.017,1.557.013,2.272-.444,2.155-2.167-.055-.81.078-.721-.757-.721q-16.755,0-33.51,0c-1.079,0-1.079,0-1.075,1.082,0,1.268.526,1.79,1.791,1.79Z" transform="translate(-3251.588 2573.038)" fill="#12263f"/>
        <path id="Trazado_184368" data-name="Trazado 184368" d="M3295.948-2627.52h-1.36v-18.053q0-3.146,0-6.292c0-1.228.5-1.722,1.737-1.722h21.184c1.263,0,1.743.484,1.744,1.757q0,7.62,0,15.242v.6h-1.362v-.612c0-5-.007-10,.01-15,0-.484-.1-.639-.619-.638q-10.371.026-20.741,0c-.473,0-.621.129-.6.6.034,1.014.01,2.032.01,3.048,0,.648,0,.649.636.649h17.024c0,.4.019.758-.013,1.11-.008.092-.165.208-.276.242a1.5,1.5,0,0,1-.439.012c-5.439,0-10.879.007-16.318-.012-.5,0-.626.139-.625.632q.026,8.875.011,17.749Z" transform="translate(-3290.352 2657.112)" fill="#12263f"/>
        <path id="Trazado_184369" data-name="Trazado 184369" d="M3325-2558.5c.688.285,1.312.53,1.923.8.265.119.409.046.638-.125a1.047,1.047,0,0,0,.306-1.572,11.658,11.658,0,0,1-.58-1.388l4.039-1.675c.26.627.531,1.217.749,1.825.132.369.318.546.72.456a.98.98,0,0,1,.391.008c.322.062.47-.09.579-.376.239-.624.509-1.237.789-1.911l4.04,1.674c-.265.646-.5,1.258-.767,1.851a.618.618,0,0,0,.14.759,1,1,0,0,0,1.493.27,12.361,12.361,0,0,1,1.416-.6l1.678,4.043c-.644.268-1.238.532-1.846.76-.316.119-.5.268-.438.639a4.57,4.57,0,0,0,.016.537.787.787,0,0,0,.306.458c.618.295,1.259.542,1.959.835l-1.669,4.039c-.643-.264-1.252-.5-1.845-.764a.562.562,0,0,0-.765.143c-.594.649-.612.632-.282,1.436.192.468.387.935.607,1.468l-4.037,1.677c-.27-.643-.545-1.251-.779-1.876-.116-.307-.27-.462-.61-.408a1.61,1.61,0,0,1-.49,0c-.323-.051-.466.1-.574.386-.239.625-.506,1.238-.78,1.9l-4.041-1.677c.276-.67.514-1.295.791-1.9.131-.288.034-.44-.137-.681-.46-.646-.958-.615-1.58-.272a13.437,13.437,0,0,1-1.356.572c-.561-1.352-1.109-2.674-1.676-4.039.659-.275,1.27-.546,1.892-.785a.514.514,0,0,0,.4-.573c-.027-.93-.013-.93-.865-1.282-.453-.187-.9-.376-1.42-.591C3323.884-2555.8,3324.43-2557.121,3325-2558.5Zm.144,3.295c.6.248,1.12.479,1.655.68.285.107.322.258.306.555a20.85,20.85,0,0,0,0,2.294c.015.283-.039.413-.3.513-.546.211-1.081.449-1.663.694l.588,1.405a.678.678,0,0,0,.16,0c.365-.147.729-.295,1.092-.446.757-.315.748-.309,1.248.313a7.431,7.431,0,0,0,.772.823c.285.261.6.485.906.723l-.8,2.007,1.465.6c.233-.562.461-1.067.65-1.586.113-.312.257-.4.609-.369a15.06,15.06,0,0,0,2.2,0c.337-.023.5.026.618.355.189.531.43,1.043.664,1.6l1.462-.614c-.237-.576-.442-1.108-.674-1.627a.453.453,0,0,1,.152-.621,19.067,19.067,0,0,0,1.621-1.625.444.444,0,0,1,.616-.149c.522.23,1.053.439,1.632.678l.61-1.467c-.564-.237-1.083-.475-1.617-.673-.306-.114-.354-.282-.337-.593a18.95,18.95,0,0,0,0-2.2c-.021-.338.042-.505.367-.622.531-.191,1.046-.428,1.591-.655l-.611-1.464c-.578.235-1.114.429-1.629.67-.3.142-.44.049-.647-.185a16.909,16.909,0,0,0-1.555-1.553c-.261-.227-.322-.39-.179-.7.234-.5.428-1.019.66-1.582l-1.468-.613c-.25.6-.456,1.146-.718,1.67a.628.628,0,0,1-.466.268c-.781.027-1.563-.008-2.343.021-.272.01-.424-.032-.522-.3-.164-.445-.346-.885-.55-1.314-.055-.115-.25-.274-.325-.249-.426.142-.836.334-1.277.521.243.593.448,1.126.682,1.647a.416.416,0,0,1-.137.575c-.579.523-1.132,1.079-1.658,1.656-.189.208-.318.263-.574.148-.532-.24-1.08-.445-1.664-.682Z" transform="translate(-3316.26 2574.958)" fill="#12263f"/>
        <path id="Trazado_184370" data-name="Trazado 184370" d="M3355.242-2673.905h-1.36v-14.052h-21.909v1.344h-1.354a14.872,14.872,0,0,1,.013-1.658,1.306,1.306,0,0,1,1.184-1.082,4.007,4.007,0,0,1,.491-.013h21.23c1.224,0,1.705.474,1.705,1.682q0,6.587,0,13.174Z" transform="translate(-3322.818 2689.368)" fill="#12263f"/>
        <path id="Trazado_184371" data-name="Trazado 184371" d="M3378.759-2257.568l-1.02.94c-.283-.282-.573-.611-.906-.887a1.113,1.113,0,0,0-.635-.27q-6.038-.024-12.077,0a1.142,1.142,0,0,0-.674.291,10.518,10.518,0,0,0-.851.93l-1-1.074c.452-.439.922-.915,1.419-1.362a.782.782,0,0,1,.486-.155q6.652-.012,13.3,0a.778.778,0,0,1,.487.153C3377.781-2258.55,3378.249-2258.07,3378.759-2257.568Z" transform="translate(-3350.756 2301.534)" fill="#12263f"/>
        <path id="Trazado_184372" data-name="Trazado 184372" d="M3353.7-2624.514v1.3h-1.323v-1.3Z" transform="translate(-3342.45 2630.902)" fill="#12263f"/>
        <path id="Trazado_184373" data-name="Trazado 184373" d="M3568.612-2486.966h-1.3v-1.314h1.3Z" transform="translate(-3536.215 2508.086)" fill="#12263f"/>
        <path id="Trazado_184374" data-name="Trazado 184374" d="M3324.935-2623.174h-1.3v-1.3h1.3Z" transform="translate(-3316.536 2630.868)" fill="#12263f"/>
        <path id="Trazado_184375" data-name="Trazado 184375" d="M3380.775-2624.522h1.318v1.3h-1.318Z" transform="translate(-3368.051 2630.909)" fill="#12263f"/>
        <path id="Trazado_184376" data-name="Trazado 184376" d="M3567.272-2516.009v-1.337a2.234,2.234,0,0,1,.309-.042c1.214.017.993-.184,1.024,1.039.006.254-.089.355-.344.344C3567.953-2516.019,3567.643-2516.009,3567.272-2516.009Z" transform="translate(-3536.178 2534.331)" fill="#12263f"/>
        <path id="Trazado_184377" data-name="Trazado 184377" d="M3531.562-2459.833h1.278v1.317h-1.278Z" transform="translate(-3503.985 2482.442)" fill="#12263f"/>
        <path id="Trazado_184378" data-name="Trazado 184378" d="M3387.77-2494.428a3.606,3.606,0,0,1-3.607-3.637,3.616,3.616,0,0,1,3.634-3.616,3.635,3.635,0,0,1,3.615,3.643A3.618,3.618,0,0,1,3387.77-2494.428Zm2.246-3.611a2.234,2.234,0,0,0-2.2-2.248,2.247,2.247,0,0,0-2.277,2.224,2.268,2.268,0,0,0,2.252,2.255A2.245,2.245,0,0,0,3390.017-2498.039Z" transform="translate(-3371.105 2520.168)" fill="#12263f"/>
      </g>
    </g>
  </g>
</svg>
