<svg xmlns="http://www.w3.org/2000/svg" xmlns:xlink="http://www.w3.org/1999/xlink" width="85.223" height="85.223" viewBox="0 0 85.223 85.223">
  <defs>
    <radialGradient id="radial-gradient" cx="0.076" cy="0.019" r="1.465" gradientTransform="translate(0.001)" gradientUnits="objectBoundingBox">
      <stop offset="0" stop-color="#f6f6f7"/>
      <stop offset="0.477" stop-color="#f9f9fa"/>
      <stop offset="0.715" stop-color="#fff"/>
    </radialGradient>
  </defs>
  <g id="Grupo_111593" data-name="Grupo 111593" transform="translate(0)">
    <g id="Grupo_18423" data-name="Grupo 18423" transform="translate(0 0)">
      <g id="Grupo_18421" data-name="Grupo 18421">
        <g id="Grupo_18420" data-name="Grupo 18420">
          <g id="Grupo_18419" data-name="Grupo 18419">
            <path id="Trazado_40936" data-name="Trazado 40936" d="M279.846,2188.331a42.611,42.611,0,1,1-42.611-42.61A42.611,42.611,0,0,1,279.846,2188.331Z" transform="translate(-194.623 -2145.721)" fill="#fff"/>
          </g>
        </g>
      </g>
      <path id="Trazado_40937" data-name="Trazado 40937" d="M279.611,2188.076A42.61,42.61,0,1,0,237,2230.688,42.444,42.444,0,0,0,279.611,2188.076Z" transform="translate(-194.388 -2145.465)" fill="url(#radial-gradient)"/>
      <path id="Trazado_40938" data-name="Trazado 40938" d="M267.508,2186.073a32.525,32.525,0,1,0-32.525,32.525A32.4,32.4,0,0,0,267.508,2186.073Z" transform="translate(-192.242 -2143.321)" fill="none" stroke="#d44f4a" stroke-miterlimit="10" stroke-width="4"/>
      <g id="Grupo_18422" data-name="Grupo 18422" transform="translate(7.549 23.923)">
        <path id="Trazado_40939" data-name="Trazado 40939" d="M273.91,2164.488a42.616,42.616,0,0,1-73.365,42.435,42.481,42.481,0,0,0,73.365-42.435Z" transform="translate(-200.545 -2164.488)" fill="#eceef0"/>
      </g>
    </g>
    <g id="Grupo_42276" data-name="Grupo 42276" transform="translate(-319.089 3.578)">
      <path id="Trazado_40970" data-name="Trazado 40970" d="M348.749,32.827a3.084,3.084,0,1,1,3.084-3.084A3.088,3.088,0,0,1,348.749,32.827Zm0-4.966a1.881,1.881,0,1,0,1.88,1.881A1.883,1.883,0,0,0,348.749,27.861Z" transform="translate(-1.116 -0.669)" fill="#00223d"/>
      <path id="Trazado_40971" data-name="Trazado 40971" d="M345.11,48.232a.6.6,0,0,1-.6-.6V41.267a.6.6,0,0,1,1.2,0V47.63A.6.6,0,0,1,345.11,48.232Z" transform="translate(-0.817 -4.298)" fill="#00223d"/>
      <path id="Trazado_40972" data-name="Trazado 40972" d="M350.972,61.036h-2.512a.6.6,0,0,1-.6-.6v-10.3a.224.224,0,0,0-.08-.173.227.227,0,0,0-.189-.05.263.263,0,0,0-.183.267V60.434a.6.6,0,0,1-.6.6h-2.512a.6.6,0,0,1-.6-.6V48.056a1.769,1.769,0,0,1-2.335-1.72v-6.4a4.035,4.035,0,0,1,3.576-4.01,23.288,23.288,0,0,1,2.707-.09.6.6,0,0,1-.006,1.2,21.848,21.848,0,0,0-2.564.081,2.831,2.831,0,0,0-2.509,2.814v6.4a.6.6,0,0,0,.448.6.567.567,0,0,0,.684-.554.6.6,0,1,1,1.2,0V59.832H346.2V50.178a1.465,1.465,0,0,1,1.194-1.454,1.431,1.431,0,0,1,1.665,1.411v9.7h1.308V46.38a.6.6,0,1,1,1.2,0V60.434A.6.6,0,0,1,350.972,61.036Z" transform="translate(0 -3.047)" fill="#00223d"/>
      <path id="Trazado_40973" data-name="Trazado 40973" d="M349.223,46.859a.6.6,0,0,1-.536-.328l-1.128-2.212a.6.6,0,0,1-.062-.339l.356-3.305a.6.6,0,1,1,1.2.129l-.337,3.127.511,1,.511-1-.335-3.1a.6.6,0,0,1,1.2-.129l.353,3.281a.6.6,0,0,1-.062.339l-1.128,2.212A.6.6,0,0,1,349.223,46.859Z" transform="translate(-1.59 -4.161)" fill="#00223d"/>
      <path id="Trazado_40974" data-name="Trazado 40974" d="M351.789,51.44H345.11a.6.6,0,1,1,0-1.2h6.679a.6.6,0,1,1,0,1.2Z" transform="translate(-0.817 -6.778)" fill="#00223d"/>
      <path id="Trazado_40975" data-name="Trazado 40975" d="M352.957,46.982a.6.6,0,0,1-.6-.6v-7.4a.6.6,0,0,1,.6-.6h6.8a.667.667,0,1,0,0-1.334H349.618a.6.6,0,0,1,0-1.2h10.141a1.871,1.871,0,1,1,0,3.742h-6.2v6.8A.6.6,0,0,1,352.957,46.982Z" transform="translate(-1.985 -3.048)" fill="#00223d"/>
      <path id="Trazado_40976" data-name="Trazado 40976" d="M387.079,44.887H362.069a.6.6,0,0,1-.6-.6V35.934a.6.6,0,0,1,.6-.6h.916a.667.667,0,1,0,0-1.334h-.916a.6.6,0,0,1-.6-.6V24.679a.6.6,0,0,1,.6-.6h25.011a.6.6,0,0,1,.6.6V44.285A.6.6,0,0,1,387.079,44.887Zm-24.409-1.2h23.808v-18.4H362.67v7.513h.314a1.871,1.871,0,0,1,0,3.742h-.314Z" transform="translate(-5.211)" fill="#00223d"/>
      <path id="Trazado_40977" data-name="Trazado 40977" d="M382.984,34.392a.594.594,0,0,1-.23-.046.6.6,0,0,1-.372-.556V27.337a.6.6,0,0,1,.6-.6,7.007,7.007,0,0,1,4.988,2.066.6.6,0,0,1,0,.851l-4.563,4.563A.6.6,0,0,1,382.984,34.392Zm.6-6.424v4.369l3.089-3.09A5.8,5.8,0,0,0,383.586,27.969Z" transform="translate(-10.629 -0.689)" fill="#00223d"/>
      <path id="Trazado_40978" data-name="Trazado 40978" d="M378.324,42.708a7.056,7.056,0,1,1,0-14.111.6.6,0,0,1,.6.6V35.4l4.387,4.388a.6.6,0,0,1,0,.851A7.007,7.007,0,0,1,378.324,42.708Zm-.6-12.877A5.852,5.852,0,1,0,382.015,40.2L377.9,36.079a.6.6,0,0,1-.176-.425Z" transform="translate(-7.75 -1.171)" fill="#00223d"/>
      <path id="Trazado_40979" data-name="Trazado 40979" d="M389.021,41.48a.6.6,0,0,1-.426-.176l-4.563-4.563a.6.6,0,0,1,0-.851l4.563-4.563a.6.6,0,0,1,.791-.053,6.409,6.409,0,0,1,2.126,5.042,7.01,7.01,0,0,1-2.066,4.989A.6.6,0,0,1,389.021,41.48Zm-3.713-5.165L389,40.006a5.812,5.812,0,0,0,1.31-3.691,5.566,5.566,0,0,0-1.284-3.719Z" transform="translate(-11.011 -1.832)" fill="#00223d"/>
      <path id="Trazado_40980" data-name="Trazado 40980" d="M387.051,53.847H361a1.653,1.653,0,1,1,0-3.307h26.055a1.653,1.653,0,0,1,0,3.307ZM361,51.743a.45.45,0,0,0,0,.9h26.055a.45.45,0,0,0,0-.9Z" transform="translate(-4.66 -6.856)" fill="#00223d"/>
    </g>
  </g>
</svg>
