<svg xmlns="http://www.w3.org/2000/svg" width="151.039" height="151.061" viewBox="0 0 151.039 151.061">
  <g id="AVVl8F" transform="translate(-2119.82 -927.126)">
    <g id="Grupo_146058" data-name="Grupo 146058" transform="translate(2119.82 927.127)">
      <path id="Trazado_189685" data-name="Trazado 189685" d="M2218.98,1020.988h25.058v-1.705c0-7.207-.044-14.415.037-21.621.017-1.5-.473-1.806-1.865-1.793-7.043.066-14.086.03-21.13.03h-1.907c0-4.18-.331-8.273.1-12.284.351-3.227,2.5-4.523,5.754-4.524h19.008v-1.744c0-7.207-.028-14.415.026-21.621.01-1.291-.249-1.824-1.688-1.8-6.6.124-13.2.119-19.806.195-6.171.071-11.405,2.572-15.888,6.6-7.576,6.8-11.2,15.445-11.329,25.582-.04,3.163-.007,6.327-.007,9.614h-18.254v25.075h18.168V1078.1c-4.468,0-8.866.009-13.265,0-12.97-.03-25.941.026-38.909-.151-4.926-.067-9.262-2.207-13.082-5.223-5.262-4.155-8.821-9.476-9.779-16.188a70.794,70.794,0,0,1-.343-9.628c-.041-8.456-.023-16.913-.014-25.37.01-8.184.054-16.369.054-24.553s-.059-16.369-.048-24.554c.011-7.529-.228-15.076.219-22.581.383-6.431,3.645-11.733,8.41-16.04,5.532-5,12.053-6.907,19.485-6.668,8.176.262,16.367.033,24.552.029q12.2-.007,24.392.008c4.856,0,9.713.026,14.569.029q12.521.008,25.042,0c3.546,0,7.094-.03,10.638.077a22.874,22.874,0,0,1,13.557,5.3,25.059,25.059,0,0,1,9.771,16.209,51.056,51.056,0,0,1,.3,7.821q.026,23.707-.005,47.415c0,16.077-.11,32.156.056,48.231.127,12.279-9.378,23.718-22.072,25.624-3.525.529-7.186.184-10.784.2-5.778.023-11.556.011-17.334.014h-1.688Z" transform="translate(-2119.82 -927.127)" fill="#12263f"/>
    </g>
  </g>
</svg>
