<svg xmlns="http://www.w3.org/2000/svg" width="111.818" height="111.823" viewBox="0 0 111.818 111.823">
  <path id="Trazado_189686" data-name="Trazado 189686" d="M2599.85,1066.116q15.892,0,31.784,0c14.135,0,23.843,9.612,23.861,23.7q.042,32.105,0,64.211c-.021,14.232-9.77,23.9-24.066,23.9q-31.784.02-63.569,0c-14.238-.013-24.095-9.762-24.125-23.939q-.068-32.105,0-64.211c.03-13.827,9.9-23.625,23.689-23.648q8.187-.014,16.374,0h16.053Zm-14.946,74.8c-6.642,5.122-13.947,6.748-22.672,6.333,1.4.927,2.025,1.426,2.721,1.794a46.356,46.356,0,0,0,23.484,5.277c23.377-.689,42.668-19.831,43.184-43.244.066-2.957.845-4.959,3.147-6.754,1.731-1.349,3.049-3.227,5.072-5.44l-7.826,2.022,5.536-7.68a8.079,8.079,0,0,0-3.8.932c-3.279,1.427-5.962,2.147-9.618-.5-8.457-6.131-20.953-1.173-23.681,8.917-.672,2.485-.575,5.178-.857,8.016-13.031-.765-23.612-6.664-32.437-16.522-3.846,8.289-2.026,14.968,4.64,21.4l-6.886-1.739c.611,7.723,4.533,12.6,11.273,15.869l-5.193.267C2572.686,1135.638,2576.152,1138.445,2584.9,1140.917Z" transform="translate(-2543.7 -1066.115)" fill="#12263f"/>
</svg>
