<?xml version="1.0" encoding="utf-8"?>
<!-- Generator: Adobe Illustrator 26.1.0, SVG Export Plug-In . SVG Version: 6.00 Build 0)  -->
<svg version="1.1" id="Layer_1" xmlns="http://www.w3.org/2000/svg" xmlns:xlink="http://www.w3.org/1999/xlink" x="0px" y="0px"
	 viewBox="0 0 1013.5 452" style="enable-background:new 0 0 1013.5 452;" xml:space="preserve">
<style type="text/css">
	.st0{fill:none;stroke:#12263F;stroke-width:6;stroke-linecap:round;stroke-linejoin:round;}
	.st1{fill:none;stroke:#12263F;stroke-width:6;stroke-linecap:round;stroke-linejoin:round;stroke-dasharray:20;}
	.st2{fill:#FFFFFF;stroke:#12263F;stroke-width:6;stroke-linecap:round;stroke-linejoin:round;}
	.st3{fill:#B7DED9;stroke:#12263F;stroke-width:3;}
	.st4{fill:none;stroke:#12263F;stroke-width:3;stroke-linecap:round;stroke-linejoin:round;stroke-dasharray:20;}
	.st5{fill:#FFFFFF;stroke:#12263F;stroke-width:3;stroke-linecap:round;stroke-linejoin:round;}
	.st6{fill:#FFFFFF;stroke:#0C6BC2;stroke-width:3;stroke-linecap:round;stroke-linejoin:round;}
	.st7{fill:none;stroke:#0C6BC2;stroke-width:3;stroke-linecap:round;stroke-linejoin:round;}
	.st8{fill:#6BBCB1;stroke:#12263F;stroke-width:3;stroke-linecap:round;stroke-linejoin:round;}
	.st9{fill:#707070;stroke:#12263F;stroke-width:3;stroke-linecap:round;stroke-linejoin:round;}
	.st10{fill:#C5FBFC;stroke:#12263F;stroke-width:3;stroke-linecap:round;stroke-linejoin:round;}
	.st11{fill:none;stroke:#12263F;stroke-width:3;stroke-linecap:round;stroke-linejoin:round;}
	.st12{fill:#6BBCB1;}
	.st13{fill:url(#Elipse_5113_00000029003488340503889580000000902795640004854954_);stroke:#12263F;stroke-width:3;}
	.st14{fill:none;stroke:#12263F;stroke-width:3;stroke-linecap:round;stroke-linejoin:round;stroke-dasharray:20,51.557;}
	.st15{fill:none;stroke:#12263F;stroke-width:3;stroke-linecap:round;stroke-linejoin:round;stroke-dasharray:20,51.159;}
	.st16{fill:none;stroke:#12263F;stroke-width:3;stroke-linecap:round;stroke-linejoin:round;stroke-dasharray:20,47.128;}
	.st17{fill:#AAB2BE;stroke:#12263F;stroke-width:3;stroke-linecap:round;stroke-linejoin:round;}
	.st18{fill:#FFFFFF;stroke:#12263F;stroke-width:3.0007;stroke-linecap:round;stroke-linejoin:round;stroke-miterlimit:4.0009;}
	
		.st19{fill:url(#Trazado_188440_00000011734636439831552780000011716914451635645317_);stroke:#12263F;stroke-width:3;stroke-linecap:round;stroke-linejoin:round;}
	
		.st20{fill:url(#Rectángulo_42413_00000087374097837707669110000010927661134437080996_);stroke:#12263F;stroke-width:3;stroke-linecap:round;stroke-linejoin:round;}
	
		.st21{fill:url(#Rectángulo_42417_00000134948991555039713640000010751882874218057663_);stroke:#12263F;stroke-width:3;stroke-linecap:round;stroke-linejoin:round;}
	
		.st22{fill:url(#Rectángulo_42418_00000043452555339023254980000008447432327102917566_);stroke:#12263F;stroke-width:3;stroke-linecap:round;stroke-linejoin:round;}
	
		.st23{fill:url(#Trazado_188442_00000147210835793275685310000003686546851472526749_);stroke:#12263F;stroke-width:3;stroke-linecap:round;stroke-linejoin:round;}
	
		.st24{fill:url(#Trazado_188443_00000026128448264415400880000005336029695411486649_);stroke:#12263F;stroke-width:3;stroke-linecap:round;stroke-linejoin:round;}
	.st25{fill:#FFFFFF;}
	.st26{fill:url(#Trazado_40937_00000036961149721825013550000006689589841937544098_);}
	.st27{fill:none;stroke:#6BBCB1;stroke-width:4;stroke-miterlimit:10;}
	.st28{fill:#ECEEF0;}
	.st29{fill:url(#Trazado_40937-2_00000119831995973013117120000002903790894563741568_);}
	.st30{fill:none;stroke:#282828;stroke-width:4;stroke-miterlimit:10;}
	.st31{fill:url(#Trazado_40937-3_00000074429869909221894690000014111047777055842495_);}
	.st32{fill:url(#Elipse_5124_00000160185419608548410820000009245189757103453071_);stroke:#12263F;stroke-width:3;}
	.st33{fill:#12263F;}
</style>
<g>
	<g id="Grupo_151157" transform="translate(-297.241 -945.757)">
		<g id="Grupo_146040" transform="translate(-273.038 553.835)">
			<path id="Trazado_188289" class="st0" d="M1239,623.4c6.5,31.8,22,61.1,44.6,84.3c29.7,30.5,70.8,49.3,116.2,49.3
				s86.4-18.8,116.2-49.3c19.7-20.2,34-44.9,41.6-72"/>
			<path id="Trazado_188290" class="st1" d="M1233.4,578.8c5.8-47.7,20.4-73.6,48.6-103.8c31.5-28.6,84.3-49.8,129.6-47
				c28.3,1.7,55.3,9.7,77,25.3c9.2,6.6,18.6,12.7,33.6,27.8c27.8,27.8,42.1,66.4,42.1,109.4"/>
			<g id="Grupo_143052" transform="translate(902.117 425.303)">
				<path id="Trazado_188291" class="st0" d="M323.8,122C300.4,34.3,210.3-17.8,122.6,5.6c-10.8,2.9-21.3,6.9-31.2,11.9
					c-37.6,18.8-64.3,48.8-78.6,84.9l-1.4,3.3"/>
				<path id="Trazado_188292" class="st1" d="M103.3,317.4c39,12,96,13.5,135.4-6.3c56.4-28.3,91.6-86.5,90.7-149.6"/>
				<path id="Trazado_188293" class="st1" d="M0,148.3c0,32.9,2.2,55.3,13.3,81.3c17.1,40.1,49.5,71.7,90,87.8"/>
			</g>
			<path id="Trazado_188294" class="st0" d="M747,421.8c-90.8-1.3-166.9,68.5-173.3,159.1c-2.8,42.5,10.6,85.6,40.9,119.4
				s71.8,51.7,114.3,53.5c44.4,1.8,87.7-13.9,120.7-43.7c22.3-20,38.1-43.8,47.2-69.5"/>
			<path id="Trazado_188295" class="st1" d="M901.2,556.6c-1.1-27.5-12.3-49-29.9-71.2c-27.2-34.3-67.1-56.1-110.7-60.3"/>
			<circle id="Elipse_5065" class="st2" cx="747" cy="421.8" r="18.1"/>
			<path id="Trazado_188296" class="st2" d="M1563.3,622l17.4-33.8c0.2-0.4,0.1-0.9-0.4-1.2c-0.1-0.1-0.2-0.1-0.4-0.1l-31.4-1.5
				c-0.5,0-0.9,0.3-0.9,0.8c0,0.1,0,0.2,0.1,0.4l14,35.3c0.2,0.4,0.7,0.7,1.1,0.5C1563.1,622.3,1563.2,622.2,1563.3,622z"/>
			<g id="Grupo_143130" transform="translate(350.936 39.287)">
				<g id="Grupo_143206" transform="translate(274.192 432.497)">
					<g id="Grupo_143174" transform="translate(0 0)">
						<g id="Grupo_143173" transform="translate(27.56 27.39)">
							<g id="Grupo_143172">
								<g id="Grupo_143171">
									<g id="Grupo_143170">
										<g id="Grupo_143169">
											<g id="Grupo_143168">
												<circle id="Elipse_5100" class="st3" cx="89" cy="89" r="89"/>
											</g>
										</g>
									</g>
								</g>
							</g>
						</g>
						<path id="Trazado_188376" class="st4" d="M138.2,2.2c-13.9-2.7-28.1-2.9-42-0.6"/>
						<path id="Trazado_188377" class="st4" d="M205.1,192.3c18.2-21.1,28.1-48,28.1-75.9"/>
						<path id="Trazado_188378" class="st4" d="M7.6,74.9C-8.9,118.5,2,167.7,35.5,200.1"/>
					</g>
					<g id="Grupo_143181" transform="translate(132.569 9.822)">
						<g id="Grupo_143177">
							<path id="Trazado_188379" class="st5" d="M72.5,115.7L53.7,97.3v0c-6.9-1.2-15.6-6.1-21.5-10.4H15.4c-1.1,0-2-0.9-2-2
								c0,0,0,0,0,0V73.2c-1.2,0.4-2.4,0.4-3.6,0l-0.9-0.3c-2.5-0.8-3.8-3.5-3-6c0,0,0,0,0,0l0.6-1.6c0.9-2.5,3.6-3.8,6.1-2.9
								l0.7,0.3v-2.4c-0.9,0.1-1.8,0-2.6-0.3l-2.1-0.7c-2.5-0.8-3.8-3.5-2.9-6c0,0,0,0,0,0l1-2.8c0.9-2.5,3.6-3.8,6.1-2.9l0.5,0.2
								v-1.4c-0.8,0.1-1.7,0-2.4-0.3l-2.1-0.7c-2.5-0.8-3.8-3.5-2.9-6c0,0,0,0,0,0l1-2.8c0.9-2.5,3.6-3.8,6.1-2.9l0.3,0.1v-2l-0.1,0
								l-10-5.8c-3-1.6-4.1-5.3-2.5-8.3c0,0,0,0,0-0.1l0.1-0.1c1.7-3,5.5-4.1,8.5-2.4l4,2.3V2c0-1.1,0.9-2,2-2c0,0,0,0,0,0h46.4
								c1.1,0,2,0.9,2,2c0,0,0,0,0,0v49.8l0.8,0.4c0.7,0.4,1.7,0.3,2.3-0.3c0.4-0.4,0.5-1,0.5-1.5L64,23.7c-0.1-0.4-0.2-0.8-0.2-1.2
								v-0.3c0.1-3.1,2.7-5.5,5.8-5.4c2.4,0.1,4.5,1.8,5.2,4.1c0,0,0,0,0,0l11.3,35.1c0,0,2.3,11.3,2.3,13.8c0,1.8-0.2,3.6-0.5,5.4
								c-0.1,0.5-0.2,0.9-0.3,1.4v0l10,11.6"/>
							<g id="Grupo_143176" transform="translate(0 0)">
								<path id="Trazado_188380" class="st5" d="M13.4,17l-4-2.3c-3-1.7-6.8-0.6-8.5,2.4l-0.1,0.1c-1.7,3-0.6,6.7,2.4,8.4
									c0,0,0,0,0.1,0l10.1,5.8l0.1,0"/>
								<path id="Trazado_188381" class="st5" d="M32.2,86.9c5.9,4.3,14.6,9.2,21.5,10.4c1.2,0.2,2.4,0.3,3.6,0.3"/>
								<path id="Trazado_188382" class="st6" d="M63.8,22.5c0,0.4,0.1,0.8,0.2,1.2"/>
								<path id="Trazado_188383" class="st5" d="M74.8,21C74.8,21,74.8,21,74.8,21c-0.8-3-3.9-4.8-6.9-4c-2.4,0.6-4,2.7-4.1,5.2"/>
								<path id="Trazado_188384" class="st5" d="M64,23.7l3.4,26.6c0.1,0.6-0.1,1.1-0.5,1.6c-0.6,0.6-1.5,0.7-2.3,0.3l-0.8-0.4"/>
								<path id="Trazado_188385" class="st5" d="M85.4,81c0.9-1.4,1.6-2.8,2.2-4.4v0c0.1-0.5,0.2-0.9,0.3-1.4
									c0.3-1.8,0.5-3.6,0.5-5.4c0-2.5-2.3-13.8-2.3-13.8L74.8,21"/>
								<line id="Línea_1845" class="st7" x1="13.4" y1="47.5" x2="13.4" y2="46.1"/>
								<line id="Línea_1846" class="st7" x1="13.4" y1="62.5" x2="13.4" y2="60.1"/>
								<g id="Grupo_143175" transform="translate(13.374)">
									<path id="Trazado_188386" class="st8" d="M50.5,84.9c0,1.1-0.9,2-2,2c0,0,0,0,0,0H2c-1.1,0-2-0.9-2-2c0,0,0,0,0,0v-5.3
										h50.5V84.9z"/>
									<path id="Trazado_188387" class="st8" d="M0,2c0-1.1,0.9-2,2-2c0,0,0,0,0,0h46.4c1.1,0,2,0.9,2,2c0,0,0,0,0,0v3.9H0V2z"/>
									<path id="Trazado_188388" class="st5" d="M0,33.5V5.9h50.5v73.7H0V33.5z"/>
								</g>
								<path id="Trazado_188389" class="st5" d="M13.4,62.5l-0.7-0.3c-2.5-0.9-5.2,0.4-6.1,2.9L6,66.8c-0.9,2.5,0.4,5.2,2.9,6
									c0,0,0,0,0,0l0.9,0.3c1.2,0.4,2.4,0.4,3.6,0c1.6-0.5,2.9-1.8,3.5-3.4l0-0.1c1-2.9-0.5-6-3.4-7c0,0,0,0,0,0L13.4,62.5z"/>
								<path id="Trazado_188390" class="st5" d="M13.4,47.5l-0.5-0.2c-2.5-0.9-5.2,0.4-6.1,2.9l-1,2.8c-0.9,2.5,0.4,5.2,2.9,6
									c0,0,0,0,0,0l2.1,0.7c0.8,0.3,1.7,0.4,2.6,0.3c2.1-0.3,3.8-1.7,4.5-3.7l0.5-1.3c1-2.9-0.5-6-3.4-7c0,0,0,0-0.1,0L13.4,47.5z
									"/>
								<path id="Trazado_188391" class="st5" d="M13.4,33.5L13,33.4c-2.5-0.9-5.2,0.4-6.1,2.9l-1,2.8c-0.9,2.5,0.4,5.2,2.9,6
									c0,0,0,0,0,0l2.1,0.7c2.9,1,6.1-0.5,7.1-3.4l0.5-1.3c1-2.9-0.5-6-3.4-7c0,0,0,0,0,0L13.4,33.5z"/>
							</g>
						</g>
						<g id="Grupo_143180" transform="translate(23.95 24.2)">
							<g id="Grupo_143179">
								<g id="Grupo_143178">
									<ellipse id="Elipse_5101" class="st5" cx="21.4" cy="5.1" rx="5.2" ry="5.1"/>
									<ellipse id="Elipse_5102" class="st9" cx="6.6" cy="17.8" rx="6.6" ry="6.5"/>
									<ellipse id="Elipse_5103" class="st10" cx="25.3" cy="29.2" rx="8" ry="8"/>
									<line id="Línea_1847" class="st11" x1="17.2" y1="8.2" x2="11.5" y2="13.5"/>
									<line id="Línea_1848" class="st11" x1="11.5" y1="22.2" x2="17.9" y2="25.9"/>
								</g>
							</g>
						</g>
					</g>
					<g id="Grupo_143189" transform="translate(35.453 108.278)">
						<g id="Grupo_143188">
							<g id="Grupo_143183" transform="translate(0 17.694)">
								<path id="Trazado_188392" class="st6" d="M148.8,83.3l12.9,18.1c0.7,0.7,0.7,1.9,0,2.6c-0.3,0.3-0.8,0.5-1.3,0.5H1.8
									c-1,0-1.8-0.8-1.8-1.8c0-0.5,0.2-0.9,0.5-1.3l12.9-18.1"/>
								<path id="Trazado_188393" class="st6" d="M148.8,83.3H13.4V8.2c0-4.5,3.6-8.2,8.1-8.2h119.1c4.5,0,8.2,3.7,8.2,8.2V83.3z"/>
								<path id="Trazado_188394" class="st5" d="M160.4,104.5H1.8c-1,0-1.8-0.8-1.8-1.8c0-0.5,0.2-0.9,0.5-1.3l12.9-18.1h135.4
									l12.9,18.1c0.7,0.7,0.7,1.9,0,2.6C161.4,104.3,160.9,104.5,160.4,104.5z"/>
								<path id="Trazado_188395" class="st5" d="M148.8,8.2v75.2H13.4V8.2c0-4.5,3.6-8.2,8.1-8.2h119.1
									C145.2,0,148.8,3.7,148.8,8.2z"/>
								<path id="Trazado_188396" class="st8" d="M99,104.5l-2.1-6.3c-0.1-0.2-0.3-0.3-0.5-0.3H66.1c-0.2,0-0.4,0.1-0.5,0.3
									l-2.1,6.3H99z"/>
								<path id="Rectángulo_42409" class="st8" d="M29.8,7.7h102.7c5.4,0,9.7,4.4,9.7,9.7v49.8c0,5.4-4.4,9.7-9.7,9.7H29.8
									c-5.4,0-9.7-4.4-9.7-9.7V17.4C20.1,12,24.4,7.7,29.8,7.7z"/>
								<g id="Grupo_143182" transform="translate(15.566 88.491)">
									<line id="Línea_1849" class="st11" x1="2.2" y1="0" x2="129.1" y2="0"/>
									<line id="Línea_1850" class="st11" x1="0" y1="4.8" x2="131.3" y2="4.8"/>
								</g>
							</g>
							<g id="Grupo_143184" transform="translate(32.024)">
								<path id="Trazado_188397" class="st5" d="M98.4,1.9c0-1-0.8-1.9-1.9-1.9c0,0,0,0,0,0H1.9C0.8,0,0,0.8,0,1.9c0,0,0,0,0,0V11
									h98.4V1.9z"/>
								<rect id="Rectángulo_42410" x="0" y="11" class="st5" width="98.4" height="83.6"/>
							</g>
							<line id="Línea_1851" class="st11" x1="32.4" y1="35.2" x2="130.4" y2="35.2"/>
							<g id="Grupo_143185" transform="translate(42.204 19.699)">
								<path id="Trazado_188398" class="st5" d="M15.5,18.6c-0.6-0.2-1-0.7-1-1.3v-1c0-0.1,0.1-0.3,0.2-0.4
									c0.7-0.6,1.2-1.3,1.5-2.2c0.1-0.2,0.1-0.4,0.1-0.5c0.3,0,0.6-0.2,0.6-0.5c0.2-0.7,0.3-1.5,0.4-2.2c0-0.7-0.2-0.8-0.5-0.6
									c0.1-0.3,0.1-0.7,0.1-1c0.1-2.6-1.8-4.7-4.4-4.9c-0.2,0-0.3,0-0.5,0C9.5,3.9,7.3,5.9,7.2,8.5c0,0.1,0,0.2,0,0.4
									c0,0.3,0.1,0.7,0.1,1c-0.3-0.2-0.5,0-0.5,0.6C6.9,11.3,7,12,7.2,12.8c0.1,0.3,0.3,0.5,0.6,0.5c0,0.1,0,0.1,0,0.2
									c0.2,1,0.7,1.8,1.4,2.5c0.1,0.1,0.2,0.2,0.2,0.4v1c0,0.6-0.4,1.1-1,1.3c-1.1,0.3-2.8,0.6-4,0.9c-0.3,0.1-1.1,0.2-1.8,0.4
									c4.2,5.3,12,6.1,17.2,1.9c0.7-0.5,1.3-1.2,1.8-1.8c-0.7-0.2-1.7-0.4-2-0.5C18.6,19.2,16.6,19,15.5,18.6z"/>
								<path id="Trazado_188399" class="st8" d="M12.3,0C5.5,0,0,5.5,0,12.3c0,2.8,1,5.5,2.7,7.7c0.7-0.2,1.5-0.3,1.8-0.4
									c1.2-0.3,2.9-0.6,4-0.9c0.6-0.2,1-0.7,1-1.3v-1c0-0.1-0.1-0.3-0.2-0.4c-0.7-0.6-1.2-1.5-1.4-2.5c0-0.1,0-0.1,0-0.2
									c-0.3,0-0.6-0.2-0.6-0.5C7,12,6.9,11.3,6.8,10.5c0-0.7,0.2-0.8,0.5-0.6c-0.1-0.3-0.1-0.7-0.1-1C7.1,6.3,9.1,4.1,11.7,4
									c0.1,0,0.2,0,0.4,0c2.6-0.1,4.7,1.8,4.9,4.4c0,0.2,0,0.3,0,0.5c0,0.3-0.1,0.7-0.1,1c0.3-0.2,0.5,0,0.5,0.6
									c-0.1,0.8-0.2,1.5-0.4,2.2c-0.1,0.3-0.3,0.5-0.6,0.5c0,0.2-0.1,0.4-0.1,0.5c-0.3,0.8-0.8,1.6-1.5,2.2
									c-0.1,0.1-0.2,0.2-0.2,0.4v1c0,0.6,0.4,1.1,1,1.3c1.1,0.3,3,0.6,4.2,0.9c0.4,0.1,1.3,0.3,2,0.5c4.3-5.3,3.5-13-1.8-17.3
									C17.8,1,15.1,0,12.3,0L12.3,0z"/>
							</g>
							<g id="Grupo_143186" transform="translate(45.111 51.548)">
								<line id="Línea_1852" class="st11" x1="0" y1="0" x2="19.8" y2="0"/>
								<line id="Línea_1853" class="st11" x1="0" y1="8.1" x2="19.8" y2="8.1"/>
								<line id="Línea_1854" class="st11" x1="0" y1="16.2" x2="19.8" y2="16.2"/>
								<line id="Línea_1855" class="st11" x1="0" y1="24.3" x2="19.8" y2="24.3"/>
								<line id="Línea_1856" class="st11" x1="0" y1="32.5" x2="19.8" y2="32.5"/>
							</g>
							
								<ellipse id="Elipse_5104" transform="matrix(1.570731e-03 -1 1 1.570731e-03 35.1098 126.6591)" class="st10" cx="81" cy="45.7" rx="3.8" ry="3.8"/>
							<line id="Línea_1857" class="st11" x1="90" y1="43.2" x2="117.8" y2="43.2"/>
							<line id="Línea_1858" class="st11" x1="90" y1="48.7" x2="99" y2="48.7"/>
							<rect id="Rectángulo_42411" x="78.8" y="56.6" class="st8" width="44.2" height="29.2"/>
							<g id="Grupo_143187" transform="translate(36.671 3.549)">
								
									<ellipse id="Elipse_5105" transform="matrix(1 -1.483528e-03 1.483528e-03 1 -2.917536e-03 2.924589e-03)" class="st12" cx="2" cy="2" rx="2" ry="2"/>
								
									<ellipse id="Elipse_5106" transform="matrix(1 -1.483528e-03 1.483528e-03 1 -2.909202e-03 1.416083e-02)" class="st12" cx="9.5" cy="2" rx="2" ry="2"/>
								<ellipse id="Elipse_5107" class="st12" cx="16.9" cy="2" rx="2" ry="2"/>
							</g>
						</g>
					</g>
					<g id="Grupo_143205" transform="translate(18.933 5.389)">
						<g id="Grupo_143200" transform="translate(10.152 22.993)">
							<g id="Grupo_143199">
								<g id="Grupo_143192" transform="translate(13.411)">
									<path id="Trazado_188400" class="st6" d="M21.3,25.4c-0.3-4.3-0.9-8.4-2.6-10.9c-1.2-1.7-3-3.5-4.9-3.7
										c1.6-1.1,2.5-2.9,2.5-4.9c0.1-3.2-2.4-5.8-5.5-5.9C7.5-0.1,4.9,2.4,4.8,5.6c0,0.1,0,0.2,0,0.4c0,1.9,0.9,3.8,2.5,4.9
										c-1.8,0.3-3.4,1.9-4.5,3.4C0.9,16.7,0.3,21,0,25.4c-0.1,2.1,1.4,3.9,3.5,4c0.1,0,0.2,0,0.3,0h13.8c2.1,0,3.8-1.7,3.8-3.8
										C21.3,25.6,21.3,25.5,21.3,25.4z"/>
									<g id="Grupo_143191">
										<g id="Grupo_143190">
											<path id="Trazado_188401" class="st6" d="M13.8,10.8c1.9,0.2,3.8,2,4.9,3.7c1.8,2.5,2.3,6.7,2.6,10.9
												c0.1,2.1-1.4,3.9-3.5,4c-0.1,0-0.2,0-0.2,0H3.8c-2.1,0-3.8-1.7-3.8-3.8c0-0.1,0-0.2,0-0.3c0.3-4.4,0.9-8.6,2.8-11.2
												c1.1-1.4,2.7-3.1,4.4-3.4"/>
											<ellipse id="Elipse_5108" class="st5" cx="10.5" cy="5.9" rx="5.7" ry="5.9"/>
										</g>
									</g>
								</g>
								<g id="Grupo_143195" transform="translate(36.075)">
									<path id="Trazado_188402" class="st6" d="M21.3,25.4c-0.3-4.3-0.8-8.4-2.6-10.9c-1.2-1.7-3-3.5-4.9-3.7
										c1.6-1.1,2.5-2.9,2.5-4.9c0.1-3.2-2.4-5.8-5.5-5.9C7.5-0.1,4.9,2.4,4.8,5.6c0,0.1,0,0.2,0,0.4c0,1.9,0.9,3.8,2.5,4.9
										c-1.8,0.3-3.4,1.9-4.5,3.4C0.9,16.7,0.3,21,0,25.4c-0.1,2.1,1.4,3.9,3.5,4c0.1,0,0.2,0,0.3,0h13.8c2.1,0,3.8-1.7,3.8-3.8
										C21.3,25.6,21.3,25.5,21.3,25.4z"/>
									<g id="Grupo_143194">
										<g id="Grupo_143193">
											<path id="Trazado_188403" class="st6" d="M13.8,10.8c1.9,0.2,3.8,2,4.9,3.7c1.8,2.5,2.3,6.7,2.6,10.9
												c0.1,2.1-1.4,3.9-3.5,4c-0.1,0-0.2,0-0.2,0H3.8c-2.1,0-3.8-1.7-3.8-3.8c0-0.1,0-0.2,0-0.3c0.3-4.4,0.9-8.6,2.8-11.2
												c1.1-1.4,2.7-3.1,4.4-3.4"/>
											<ellipse id="Elipse_5109" class="st5" cx="10.5" cy="5.9" rx="5.7" ry="5.9"/>
										</g>
									</g>
								</g>
								<g id="Grupo_143196" transform="translate(0 5.679)">
									<path id="Trazado_188404" class="st8" d="M4.6,36C2.1,36,0,34,0,31.4c0-0.1,0-0.2,0-0.3c0.4-5.4,1.1-10.6,3.4-13.7
										c1.5-2,3.8-4.2,6.1-4.2c2,0,4.3,0,7,0c2.5,0,4.9,2.4,6.3,4.5c2.2,3.1,2.9,8.2,3.2,13.4c0.2,2.6-1.8,4.8-4.3,4.9
										c-0.1,0-0.2,0-0.3,0L4.6,36z"/>
									<ellipse id="Elipse_5110" class="st5" cx="12.9" cy="7.3" rx="7" ry="7.3"/>
								</g>
								<g id="Grupo_143197" transform="translate(44.751 5.679)">
									<path id="Trazado_188405" class="st8" d="M4.6,36C2.1,36,0,34,0,31.4c0-0.1,0-0.2,0-0.3c0.4-5.4,1.1-10.6,3.4-13.7
										c1.5-2,3.8-4.2,6.1-4.2c2,0,4.3,0,7,0c2.5,0,4.9,2.4,6.3,4.5c2.2,3.1,2.9,8.2,3.2,13.4c0.2,2.6-1.8,4.8-4.3,4.9
										c-0.1,0-0.2,0-0.3,0L4.6,36z"/>
									<ellipse id="Elipse_5111" class="st5" cx="12.9" cy="7.3" rx="7" ry="7.3"/>
								</g>
								<g id="Grupo_143198" transform="translate(21.752 9.919)">
									<path id="Trazado_188406" class="st9" d="M4.8,37C2.1,37,0,34.9,0,32.3c0-0.1,0-0.2,0-0.3c0.4-5.5,1.2-10.9,3.5-14.1
										c1.5-2,3.9-4.3,6.3-4.3c2,0,4.4,0,7.2,0c2.6,0,5,2.5,6.5,4.6c2.2,3.2,2.9,8.4,3.3,13.8c0.2,2.6-1.8,4.9-4.4,5.1
										c-0.1,0-0.2,0-0.3,0L4.8,37z"/>
									<ellipse id="Elipse_5112" class="st5" cx="13.2" cy="7.5" rx="7.2" ry="7.5"/>
								</g>
							</g>
						</g>
						<g id="Grupo_143204">
							<g id="Grupo_143203">
								<g id="Grupo_143201" transform="translate(30.941)">
									<path id="Trazado_188407" class="st11" d="M0,2.2C24.4-5.5,50.4,8,58.1,32.4C63,48,59.3,65.1,48.3,77.3"/>
									<path id="Trazado_188408" class="st5" d="M54.2,81.2c0.3,0.3,0.3,0.8,0,1.1c-0.1,0.1-0.2,0.2-0.4,0.2l-12.9,2.5
										C40.4,85,40,84.7,40,84.3c0-0.1,0-0.2,0-0.3l2.4-12.9c0.1-0.4,0.5-0.7,0.9-0.6c0.1,0,0.3,0.1,0.4,0.2L54.2,81.2z"/>
								</g>
								<g id="Grupo_143202" transform="translate(0 7.587)">
									<path id="Trazado_188409" class="st11" d="M59.1,83.5c-24.6,7-50.2-7.2-57.3-31.7C-2.7,36,1.4,19.1,12.7,7.2"/>
									<path id="Trazado_188410" class="st5" d="M6.4,3.8C6.1,3.5,6.1,3,6.4,2.7c0.1-0.1,0.2-0.2,0.4-0.2L19.7,0
										c0.4-0.1,0.8,0.2,0.9,0.6c0,0.1,0,0.2,0,0.3l-2.4,12.9c-0.1,0.4-0.5,0.7-0.9,0.6c-0.1,0-0.3-0.1-0.4-0.2L6.4,3.8z"/>
								</g>
							</g>
						</g>
					</g>
				</g>
			</g>
			<g id="Grupo_143207" transform="translate(945.267 465.167)">
				<g id="Grupo_143219" transform="translate(0 0)">
					<g id="Grupo_143212" transform="translate(30 30)">
						<g id="Grupo_143211">
							<g id="Grupo_143210">
								<g id="Grupo_143209">
									<g id="Grupo_143208">
										<g id="Grupo_143207-2">
											
												<linearGradient id="Elipse_5113_00000124121929325861005550000009784060147432854701_" gradientUnits="userSpaceOnUse" x1="-854.1555" y1="639.0211" x2="-854.1555" y2="638.0211" gradientTransform="matrix(193.776 0 0 -193.776 165611.7188 123826.9453)">
												<stop  offset="0" style="stop-color:#F5F5F5"/>
												<stop  offset="0.25" style="stop-color:#F5F5F5"/>
												<stop  offset="1" style="stop-color:#AFAFAF"/>
											</linearGradient>
											
												<circle id="Elipse_5113" style="fill:url(#Elipse_5113_00000124121929325861005550000009784060147432854701_);stroke:#12263F;stroke-width:3;" cx="96.9" cy="96.9" r="96.9"/>
										</g>
									</g>
								</g>
							</g>
						</g>
					</g>
					<path id="Trazado_188411" class="st4" d="M183.4,13.2C165.8,4.5,146.5,0,126.9,0"/>
					<g id="Grupo_143214" transform="translate(236.383 101.771)">
						<g id="Grupo_143213">
							<path id="Trazado_188412" class="st11" d="M0,89.3c0.9-1.6,1.9-3.3,2.7-4.9"/>
							<path id="Trazado_188413" class="st14" d="M7.7,73.9c6.4-15.4,9.7-32,9.7-48.7c0-4.6-0.2-9.2-0.7-13.8"/>
							<path id="Trazado_188414" class="st11" d="M15.9,5.5c-0.3-1.9-0.6-3.7-1-5.5"/>
						</g>
					</g>
					<g id="Grupo_143216" transform="translate(78.611 244.269)">
						<g id="Grupo_143215">
							<path id="Trazado_188415" class="st11" d="M0,0c1.7,0.7,3.5,1.4,5.3,2"/>
							<path id="Trazado_188416" class="st15" d="M16.3,5.4c10.5,2.7,21.2,4.1,32,4.1c2.7,0,5.3-0.1,8-0.2"/>
							<path id="Trazado_188417" class="st11" d="M62,8.8c1.9-0.2,3.7-0.4,5.6-0.7"/>
						</g>
					</g>
					<g id="Grupo_143218" transform="translate(0 64.709)">
						<g id="Grupo_143217">
							<path id="Trazado_188418" class="st11" d="M16.3,0c-0.9,1.6-1.8,3.3-2.7,5"/>
							<path id="Trazado_188419" class="st16" d="M9.2,14.6c-12.7,31.6-12.2,67,1.3,98.2"/>
							<path id="Trazado_188420" class="st11" d="M12.7,117.7c0.8,1.7,1.7,3.4,2.6,5"/>
						</g>
					</g>
				</g>
				<g id="Grupo_143227" transform="translate(27.735 2.064)">
					<g id="Grupo_143223">
						<g id="Grupo_143222">
							<g id="Grupo_143221">
								<g id="Grupo_143220">
									<path id="Trazado_188421" class="st11" d="M102,50.9C103.3,24.1,82.7,1.3,55.9,0c0,0-0.1,0-0.1,0"/>
									<path id="Trazado_188422" class="st11" d="M89.9,58.3c-0.6,2.2-1.4,4.4-2.4,6.5c-9,18.8-31.6,26.7-50.4,17.7
										C23.4,76,15,61.9,15.7,46.7c0-0.3,0-0.3,0-0.6"/>
									<path id="Trazado_188423" class="st11" d="M16.8,39.5c0.6-2.5,1.5-5,2.6-7.3c9-18.8,31.6-26.7,50.4-17.7
										c13.7,6.6,22.1,20.7,21.4,35.9"/>
									<path id="Trazado_188424" class="st11" d="M15.8,46.1l4.6,0.2L11,28.2L0,45.4l5,0.2l0,0.6C3.6,73,24.3,95.7,51,97
										c0,0,0.1,0,0.1,0"/>
									<path id="Trazado_188425" class="st11" d="M102,50.9l0.5,0l3.5,0.2L95,68.2l-9.3-18.1l5.5,0.3"/>
								</g>
							</g>
						</g>
					</g>
					<g id="Grupo_143226" transform="translate(24.88 20.403)">
						<g id="Grupo_143224" transform="translate(0 0)">
							<circle id="Elipse_5114" class="st17" cx="28.1" cy="28.1" r="27"/>
						</g>
						<g id="Grupo_143225" transform="translate(12.192 12.225)">
							<path id="Trazado_188426" class="st5" d="M0,11.9h11.9V0h8.1v11.9h11.9V20H19.9v11.8h-8.1V20H0V11.9z"/>
						</g>
					</g>
				</g>
				<g id="Grupo_143234" transform="translate(154.219 17.467)">
					<g id="Grupo_143228" transform="translate(37.57 0)">
						<circle id="Elipse_5115" class="st18" cx="4.3" cy="101" r="3"/>
						<circle id="Elipse_5116" class="st5" cx="4.3" cy="4.3" r="3"/>
						<path id="Trazado_188427" class="st5" d="M4.3,7.3V98"/>
					</g>
					<g id="Grupo_143229" transform="translate(57.766 1.014)">
						<circle id="Elipse_5117" class="st5" cx="3.6" cy="3.6" r="3.6"/>
						<path id="Trazado_188428" class="st5" d="M3.6,95.3V7.1"/>
						<circle id="Elipse_5118" class="st5" cx="3.6" cy="98.9" r="3.6"/>
					</g>
					<g id="Grupo_143230" transform="translate(0 60.999)">
						<circle id="Elipse_5119" class="st18" cx="100.4" cy="4" r="3"/>
						<circle id="Elipse_5120" class="st5" cx="3.6" cy="4" r="3"/>
						<path id="Trazado_188429" class="st5" d="M6.7,4h90.7"/>
					</g>
					<g id="Grupo_143231" transform="translate(0.374 41.917)">
						<circle id="Elipse_5121" class="st5" cx="3.6" cy="3.6" r="3.6"/>
						<path id="Trazado_188430" class="st5" d="M95.3,3.6H7.1"/>
						<circle id="Elipse_5122" class="st5" cx="98.9" cy="3.6" r="3.6"/>
					</g>
					<circle id="Elipse_5123" class="st5" cx="52" cy="52.9" r="30.2"/>
					<g id="Grupo_143232" transform="translate(15.897 16.8)">
						<path id="Trazado_188431" class="st11" d="M29.5,0.6c4.2-0.8,8.6-0.8,12.8-0.1"/>
						<path id="Trazado_188432" class="st11" d="M2,24.3C5.6,13.9,13.7,5.7,24,2.1"/>
						<path id="Trazado_188433" class="st11" d="M1,44.5c-1-4.2-1.3-8.6-0.7-13"/>
						<path id="Trazado_188434" class="st11" d="M23.2,69.7c-8.8-3.4-15.9-10-19.8-18.5"/>
						<path id="Trazado_188435" class="st11" d="M70,24.3c-3.6-10.4-11.7-18.5-22-22.2"/>
						<path id="Trazado_188436" class="st11" d="M71,44.5c1-4.2,1.3-8.6,0.7-13"/>
						<path id="Trazado_188437" class="st11" d="M48.8,69.7c8.8-3.4,15.9-10,19.8-18.5"/>
						<path id="Trazado_188438" class="st11" d="M41.5,71.7c-3.7,0.6-7.5,0.5-11.1-0.1"/>
					</g>
					<g id="Grupo_143233" transform="translate(29.043 30.13)">
						<path id="Trazado_188439" class="st17" d="M45.4,25.9v-6.3c0-0.9-0.7-1.6-1.6-1.6h-3.4c-0.4,0-0.7-0.3-0.8-0.6
							c-0.3-1-0.7-1.9-1.2-2.8c-0.2-0.3-0.1-0.7,0.1-1l2.4-2.4c0.6-0.6,0.6-1.7,0-2.3l-4.4-4.4c-0.6-0.6-1.7-0.6-2.3,0l-2.4,2.4
							c-0.3,0.3-0.7,0.3-1,0.1c-0.9-0.5-1.8-0.8-2.8-1.2c-0.4-0.1-0.6-0.4-0.6-0.8V1.6c0-0.9-0.7-1.6-1.6-1.6h-6.3
							C18.7,0,18,0.7,18,1.6V5c0,0.4-0.3,0.7-0.6,0.8c-1,0.3-1.9,0.7-2.8,1.2c-0.3,0.2-0.7,0.1-1-0.1l-2.4-2.4
							c-0.6-0.6-1.7-0.6-2.3,0L4.4,8.9c-0.6,0.6-0.6,1.7,0,2.3l2.4,2.4c0.3,0.3,0.3,0.7,0.1,1c-0.5,0.9-0.8,1.8-1.2,2.8
							C5.7,17.7,5.4,18,5,18H1.6C0.7,18,0,18.7,0,19.6v6.3c0,0.9,0.7,1.6,1.6,1.6H5c0.4,0,0.7,0.3,0.8,0.6c0.3,1,0.7,1.9,1.2,2.8
							c0.2,0.3,0.1,0.7-0.1,1l-2.4,2.4c-0.6,0.6-0.6,1.7,0,2.3L8.9,41c0.6,0.6,1.7,0.6,2.3,0l2.4-2.4c0.3-0.3,0.7-0.3,1-0.1
							c0.9,0.5,1.8,0.8,2.8,1.2c0.4,0.1,0.6,0.4,0.6,0.8v3.4c0,0.9,0.7,1.6,1.6,1.6h6.3c0.9,0,1.6-0.7,1.6-1.6v-3.4
							c0-0.4,0.3-0.7,0.6-0.8c1-0.3,1.9-0.7,2.8-1.2c0.3-0.2,0.7-0.1,1,0.1l2.4,2.4c0.6,0.6,1.7,0.6,2.3,0l4.4-4.4
							c0.6-0.6,0.6-1.7,0-2.3c0,0,0,0,0,0l-2.4-2.4c-0.3-0.3-0.3-0.7-0.1-1c0.5-0.9,0.8-1.8,1.2-2.8c0.1-0.4,0.4-0.6,0.8-0.6h3.4
							C44.7,27.5,45.4,26.8,45.4,25.9z M22.7,31.6c-4.9,0-8.9-4-8.9-8.9s4-8.9,8.9-8.9c4.9,0,8.9,4,8.9,8.9
							C31.6,27.6,27.6,31.6,22.7,31.6L22.7,31.6z"/>
					</g>
				</g>
				<g id="Grupo_143248" transform="translate(31.357 109.223)">
					<g id="Grupo_143235">
						<line id="Línea_1859" class="st11" x1="40.1" y1="124.2" x2="108.9" y2="124.2"/>
						<rect id="Rectángulo_42412" x="60.9" y="73.6" class="st5" width="27.2" height="50.6"/>
						
							<linearGradient id="Trazado_188440_00000067193954765676668990000013694428548911779476_" gradientUnits="userSpaceOnUse" x1="-854.8395" y1="558.3859" x2="-854.8395" y2="557.3859" gradientTransform="matrix(150.3881 0 0 -106.7971 128632.8438 59634)">
							<stop  offset="0" style="stop-color:#F5F5F5"/>
							<stop  offset="0.25" style="stop-color:#F5F5F5"/>
							<stop  offset="1" style="stop-color:#AFAFAF"/>
						</linearGradient>
						
							<path id="Trazado_188440" style="fill:url(#Trazado_188440_00000067193954765676668990000013694428548911779476_);stroke:#12263F;stroke-width:3;stroke-linecap:round;stroke-linejoin:round;" d="
							M139.5,106.8H10.9c-6,0-10.9-4.9-10.9-10.9V10.9C0,4.9,4.9,0,10.9,0h128.6c6,0,10.9,4.9,10.9,10.9v85.1
							C150.4,101.9,145.5,106.8,139.5,106.8z"/>
						<path id="Trazado_188441" class="st5" d="M6.8,95.8c-0.1,0-0.2-0.1-0.2-0.2c0,0,0,0,0,0V12.4c0-3.4,2.7-6.2,6.1-6.2h124.9
							c3.4,0,6.1,2.8,6.1,6.2v83.1c0,0.1-0.1,0.2-0.2,0.2L6.8,95.8z"/>
						<line id="Línea_1860" class="st11" x1="68.7" y1="101.4" x2="80.3" y2="101.4"/>
						<line id="Línea_1861" class="st11" x1="60.2" y1="22.7" x2="114.8" y2="22.7"/>
						<line id="Línea_1862" class="st11" x1="60.2" y1="30.3" x2="114.8" y2="30.3"/>
						<line id="Línea_1863" class="st11" x1="60.2" y1="38" x2="114.8" y2="38"/>
						<line id="Línea_1864" class="st11" x1="60.2" y1="63.7" x2="114.8" y2="63.7"/>
						<line id="Línea_1865" class="st11" x1="60.2" y1="71.4" x2="114.8" y2="71.4"/>
						<line id="Línea_1866" class="st11" x1="60.2" y1="79" x2="114.8" y2="79"/>
						<line id="Línea_1867" class="st11" x1="16.6" y1="51.8" x2="134.8" y2="51.8"/>
					</g>
					<g id="Grupo_143238" transform="translate(119.62 30.63)">
						<g id="Grupo_143236">
							
								<linearGradient id="Rectángulo_42413_00000096770449684472743100000002383733946936264352_" gradientUnits="userSpaceOnUse" x1="-970.9676" y1="527.4327" x2="-970.9676" y2="526.4327" gradientTransform="matrix(69.566 0 0 -96.849 67581.1172 51081.3281)">
								<stop  offset="0" style="stop-color:#F5F5F5"/>
								<stop  offset="0.25" style="stop-color:#F5F5F5"/>
								<stop  offset="1" style="stop-color:#AFAFAF"/>
							</linearGradient>
							
								<path id="Rectángulo_42413" style="fill:url(#Rectángulo_42413_00000096770449684472743100000002383733946936264352_);stroke:#12263F;stroke-width:3;stroke-linecap:round;stroke-linejoin:round;" d="
								M34.8,0L34.8,0C54,0,69.6,15.6,69.6,34.8v27.3c0,19.2-15.6,34.8-34.8,34.8l0,0C15.6,96.8,0,81.3,0,62.1V34.8
								C0,15.6,15.6,0,34.8,0z"/>
							<line id="Línea_1868" class="st11" x1="30.1" y1="90.5" x2="39.5" y2="90.5"/>
						</g>
						<g id="Grupo_143237" transform="translate(6.337 8.719)">
							<rect id="Rectángulo_42414" x="0" y="0" class="st5" width="56.9" height="74.3"/>
						</g>
					</g>
					<g id="Grupo_143239" transform="translate(16.933 18.994)">
						<rect id="Rectángulo_42415" x="0" y="0" class="st9" width="34.3" height="21.5"/>
					</g>
					<g id="Grupo_143240" transform="translate(16.933 61.089)">
						<rect id="Rectángulo_42416" x="0" y="0" class="st9" width="34.3" height="21.5"/>
					</g>
					<g id="Grupo_143241" transform="translate(151.082 59.45)">
						
							<linearGradient id="Rectángulo_42417_00000026884539200835764660000011755834680819616907_" gradientUnits="userSpaceOnUse" x1="-957.5634" y1="463.8306" x2="-957.5634" y2="462.8306" gradientTransform="matrix(8.8 0 0 -8.784 8430.958 4074.2886)">
							<stop  offset="0" style="stop-color:#F5F5F5"/>
							<stop  offset="0.25" style="stop-color:#F5F5F5"/>
							<stop  offset="1" style="stop-color:#AFAFAF"/>
						</linearGradient>
						
							<rect id="Rectángulo_42417" x="0" y="0" style="fill:url(#Rectángulo_42417_00000026884539200835764660000011755834680819616907_);stroke:#12263F;stroke-width:3;stroke-linecap:round;stroke-linejoin:round;" width="8.8" height="8.8"/>
					</g>
					<g id="Grupo_143242" transform="translate(151.082 85.165)">
						
							<linearGradient id="Rectángulo_42418_00000102543499298169984990000014825576811397939109_" gradientUnits="userSpaceOnUse" x1="-957.5634" y1="438.1156" x2="-957.5634" y2="437.1156" gradientTransform="matrix(8.8 0 0 -8.784 8430.958 3848.408)">
							<stop  offset="0" style="stop-color:#F5F5F5"/>
							<stop  offset="0.25" style="stop-color:#F5F5F5"/>
							<stop  offset="1" style="stop-color:#AFAFAF"/>
						</linearGradient>
						
							<rect id="Rectángulo_42418" x="0" y="0" style="fill:url(#Rectángulo_42418_00000102543499298169984990000014825576811397939109_);stroke:#12263F;stroke-width:3;stroke-linecap:round;stroke-linejoin:round;" width="8.8" height="8.8"/>
					</g>
					<g id="Grupo_143243" transform="translate(134.838 47.847)">
						<line id="Línea_1869" class="st11" x1="14.3" y1="0" x2="41.3" y2="0"/>
						<line id="Línea_1870" class="st11" x1="0" y1="0" x2="8.7" y2="0"/>
						<line id="Línea_1871" class="st11" x1="0" y1="5.3" x2="41.3" y2="5.3"/>
					</g>
					<g id="Grupo_143244" transform="translate(136.165 76.956)">
						<line id="Línea_1872" class="st11" x1="0" y1="0" x2="39.8" y2="0"/>
					</g>
					<g id="Grupo_143245" transform="translate(136.165 100.237)">
						<line id="Línea_1873" class="st11" x1="0" y1="0" x2="40" y2="0"/>
						<line id="Línea_1874" class="st11" x1="25.5" y1="5.3" x2="40" y2="5.3"/>
						<line id="Línea_1875" class="st11" x1="0" y1="5.3" x2="13.8" y2="5.3"/>
					</g>
					<g id="Grupo_143247" transform="translate(104.159 63.713)">
						<g id="Grupo_143246">
							
								<linearGradient id="Trazado_188442_00000065050147801864915040000006831267402591712447_" gradientUnits="userSpaceOnUse" x1="-949.8224" y1="452.7911" x2="-949.8224" y2="451.7911" gradientTransform="matrix(37.105 0 0 -7.462 35261.6992 3378.7393)">
								<stop  offset="0" style="stop-color:#F5F5F5"/>
								<stop  offset="0.25" style="stop-color:#F5F5F5"/>
								<stop  offset="1" style="stop-color:#AFAFAF"/>
							</linearGradient>
							
								<path id="Trazado_188442" style="fill:url(#Trazado_188442_00000065050147801864915040000006831267402591712447_);stroke:#12263F;stroke-width:3;stroke-linecap:round;stroke-linejoin:round;" d="
								M37.1,4.6C37.1,2.1,35,0,32.5,0l0,0H4.6C2.1,0,0,2.1,0,4.6c0,0,0,0,0,0v2.9h37.1L37.1,4.6z"/>
							<rect id="Rectángulo_42419" x="0" y="7.5" class="st5" width="37.1" height="49.6"/>
							
								<linearGradient id="Trazado_188443_00000086658726891302486370000015661313114295632779_" gradientUnits="userSpaceOnUse" x1="-949.8208" y1="460.5766" x2="-949.8208" y2="459.5766" gradientTransform="matrix(37.1001 0 0 -9.022 35256.9922 4212.4014)">
								<stop  offset="0" style="stop-color:#F5F5F5"/>
								<stop  offset="0.25" style="stop-color:#F5F5F5"/>
								<stop  offset="1" style="stop-color:#AFAFAF"/>
							</linearGradient>
							
								<path id="Trazado_188443" style="fill:url(#Trazado_188443_00000086658726891302486370000015661313114295632779_);stroke:#12263F;stroke-width:3;stroke-linecap:round;stroke-linejoin:round;" d="
								M0,57.1v4.4c0,2.5,2.1,4.6,4.6,4.6l0,0h27.9c2.5,0,4.6-2.1,4.6-4.6c0,0,0,0,0,0v-4.4H0z"/>
						</g>
						<line id="Línea_1876" class="st11" x1="15.3" y1="61.6" x2="21.1" y2="61.6"/>
					</g>
					<rect id="Rectángulo_42420" x="113.9" y="79.2" class="st9" width="17" height="14.9"/>
					<line id="Línea_1877" class="st11" x1="108.9" y1="101.8" x2="136.2" y2="101.8"/>
					<line id="Línea_1878" class="st11" x1="108.9" y1="107.3" x2="129.1" y2="107.3"/>
					<line id="Línea_1879" class="st11" x1="108.9" y1="112.8" x2="134.2" y2="112.8"/>
				</g>
			</g>
		</g>
		<g id="Grupo_146041" transform="translate(3.059 -333.941)">
			<g id="Grupo_49901" transform="translate(414.036 1597)">
				<g id="Grupo_18423" transform="translate(0 0)">
					<g id="Grupo_18421">
						<g id="Grupo_18420">
							<g id="Grupo_18419">
								<path id="Trazado_40936" class="st25" d="M83.8,41.9c0,23.1-18.8,41.9-41.9,41.9S0,65.1,0,41.9S18.8,0,41.9,0c0,0,0,0,0,0
									C65,0,83.8,18.8,83.8,41.9z"/>
							</g>
						</g>
					</g>
					
						<radialGradient id="Trazado_40937_00000069359572358146355140000014338286387474675889_" cx="-566.3842" cy="422.6695" r="1.465" gradientTransform="matrix(83.8004 0 0 -83.8005 47469.6641 35421.5352)" gradientUnits="userSpaceOnUse">
						<stop  offset="0" style="stop-color:#F6F6F7"/>
						<stop  offset="0.477" style="stop-color:#F9F9FA"/>
						<stop  offset="0.715" style="stop-color:#FFFFFF"/>
					</radialGradient>
					<path id="Trazado_40937" style="fill:url(#Trazado_40937_00000069359572358146355140000014338286387474675889_);" d="
						M83.8,41.9C83.8,18.8,65,0,41.9,0S0,18.8,0,41.9c0,23.1,18.8,41.9,41.9,41.9C65,83.9,83.7,65.3,83.8,42.2
						C83.8,42.1,83.8,42,83.8,41.9z"/>
					<path id="Trazado_40938" class="st27" d="M74,42c0-17.7-14.3-32-32-32c-17.7,0-32,14.3-32,32c0,17.7,14.3,32,32,32
						C59.6,74.1,74,59.9,74,42.3C74,42.2,74,42.1,74,42z"/>
					<g id="Grupo_18422" transform="translate(7.424 23.527)">
						<path id="Trazado_40939" class="st28" d="M72.2,0c9.4,21.2-0.1,45.9-21.3,55.3c-18,8-39.2,2.4-50.9-13.6
							c12.9,19.1,38.9,24.1,58,11.2C75.3,41.3,81.3,18.7,72.2,0z"/>
					</g>
				</g>
			</g>
		</g>
		<g id="Grupo_146042" transform="translate(336.059 -328.123)">
			<g id="Grupo_49901-2" transform="translate(414.036 1597)">
				<g id="Grupo_18423-2" transform="translate(0 0)">
					<g id="Grupo_18421-2">
						<g id="Grupo_18420-2">
							<g id="Grupo_18419-2">
								<path id="Trazado_40936-2" class="st25" d="M83.8,41.9c0,23.1-18.8,41.9-41.9,41.9S0,65.1,0,41.9S18.8,0,41.9,0c0,0,0,0,0,0
									C65,0,83.8,18.8,83.8,41.9z"/>
							</g>
						</g>
					</g>
					
						<radialGradient id="Trazado_40937-2_00000175312990323959968160000003717713621379487160_" cx="-899.3842" cy="416.8515" r="1.465" gradientTransform="matrix(83.8004 0 0 -83.8005 75375.1797 34933.9805)" gradientUnits="userSpaceOnUse">
						<stop  offset="0" style="stop-color:#F6F6F7"/>
						<stop  offset="0.477" style="stop-color:#F9F9FA"/>
						<stop  offset="0.715" style="stop-color:#FFFFFF"/>
					</radialGradient>
					<path id="Trazado_40937-2" style="fill:url(#Trazado_40937-2_00000175312990323959968160000003717713621379487160_);" d="
						M83.8,41.9C83.8,18.8,65,0,41.9,0S0,18.8,0,41.9c0,23.1,18.8,41.9,41.9,41.9C65,83.9,83.7,65.3,83.8,42.2
						C83.8,42.1,83.8,42,83.8,41.9z"/>
					<path id="Trazado_40938-2" class="st30" d="M74,42c0-17.7-14.3-32-32-32c-17.7,0-32,14.3-32,32c0,17.7,14.3,32,32,32
						C59.6,74.1,74,59.9,74,42.3C74,42.2,74,42.1,74,42z"/>
					<g id="Grupo_18422-2" transform="translate(7.424 23.527)">
						<path id="Trazado_40939-2" class="st28" d="M72.2,0c9.4,21.2-0.1,45.9-21.3,55.3c-18,8-39.2,2.4-50.9-13.6
							c12.9,19.1,38.9,24.1,58,11.2C75.3,41.3,81.3,18.7,72.2,0z"/>
					</g>
				</g>
			</g>
		</g>
		<g id="Grupo_146043" transform="translate(684.059 -329.123)">
			<g id="Grupo_49901-3" transform="translate(414.036 1597)">
				<g id="Grupo_18423-3" transform="translate(0 0)">
					<g id="Grupo_18421-3">
						<g id="Grupo_18420-3">
							<g id="Grupo_18419-3">
								<path id="Trazado_40936-3" class="st25" d="M83.8,41.9c0,23.1-18.8,41.9-41.9,41.9S0,65.1,0,41.9S18.8,0,41.9,0c0,0,0,0,0,0
									C65,0,83.8,18.8,83.8,41.9z"/>
							</g>
						</g>
					</g>
					
						<radialGradient id="Trazado_40937-3_00000127005258760239203270000016700741434147760014_" cx="-1247.3843" cy="417.8515" r="1.465" gradientTransform="matrix(83.8004 0 0 -83.8005 104537.7109 35017.7812)" gradientUnits="userSpaceOnUse">
						<stop  offset="0" style="stop-color:#F6F6F7"/>
						<stop  offset="0.477" style="stop-color:#F9F9FA"/>
						<stop  offset="0.715" style="stop-color:#FFFFFF"/>
					</radialGradient>
					<path id="Trazado_40937-3" style="fill:url(#Trazado_40937-3_00000127005258760239203270000016700741434147760014_);" d="
						M83.8,41.9C83.8,18.8,65,0,41.9,0S0,18.8,0,41.9c0,23.1,18.8,41.9,41.9,41.9C65,83.9,83.7,65.3,83.8,42.2
						C83.8,42.1,83.8,42,83.8,41.9z"/>
					<path id="Trazado_40938-3" class="st27" d="M74,42c0-17.7-14.3-32-32-32c-17.7,0-32,14.3-32,32c0,17.7,14.3,32,32,32
						C59.6,74.1,74,59.9,74,42.3C74,42.2,74,42.1,74,42z"/>
					<g id="Grupo_18422-3" transform="translate(7.424 23.527)">
						<path id="Trazado_40939-3" class="st28" d="M72.2,0c9.4,21.2-0.1,45.9-21.3,55.3c-18,8-39.2,2.4-50.9-13.6
							c12.9,19.1,38.9,24.1,58,11.2C75.3,41.3,81.3,18.7,72.2,0z"/>
					</g>
				</g>
			</g>
		</g>
		<g id="Grupo_146044" transform="translate(1004.539 1025.119)">
			<g id="Grupo_143256" transform="translate(0 0)">
				<g id="Grupo_143255" transform="translate(0)">
					<g id="Grupo_143254">
						<g id="Grupo_143253">
							<g id="Grupo_143252">
								<g id="Grupo_143251">
									<g id="Grupo_143250">
										
											<linearGradient id="Elipse_5124_00000049201686205607540870000007440872560216703123_" gradientUnits="userSpaceOnUse" x1="-1158.3373" y1="661.508" x2="-1158.3373" y2="660.508" gradientTransform="matrix(125.8792 -125.8792 -125.8792 -125.8792 229143.5156 -62477.5)">
											<stop  offset="0" style="stop-color:#FFFFFF"/>
											<stop  offset="0.479" style="stop-color:#ADDBD5"/>
											<stop  offset="1" style="stop-color:#E8EBEA"/>
										</linearGradient>
										
											<circle id="Elipse_5124" style="fill:url(#Elipse_5124_00000049201686205607540870000007440872560216703123_);stroke:#12263F;stroke-width:3;" cx="125.9" cy="125.9" r="89"/>
									</g>
								</g>
							</g>
						</g>
					</g>
				</g>
				<path id="Trazado_188444" class="st4" d="M197,33.5C151.3-1.7,86.7,1.8,45.1,41.8"/>
				<path id="Trazado_188445" class="st4" d="M228.4,181.4c9.3-17.1,14.1-36.2,14.1-55.6c0-2.4-0.1-4.8-0.2-7.1"/>
				<path id="Trazado_188446" class="st4" d="M49,213.5c16.7,14.7,37.2,24.2,59.1,27.6c5.9,0.9,11.8,1.4,17.8,1.4"/>
				<path id="Trazado_188447" class="st4" d="M15.6,88.1c-6.9,20.3-8.1,42.2-3.5,63.2"/>
			</g>
			<g id="Grupo_143260" transform="translate(125.95 23.885)">
				<g id="Grupo_143259">
					<g id="Grupo_143258" transform="translate(57.299 22.261)">
						<path id="Trazado_188448" class="st10" d="M42.8,27.3h3.8c1,0,1.9-0.8,2-1.8l2.6-20.6c0.1-1.1-0.6-2.1-1.7-2.2
							c-0.1,0-0.2,0-0.3,0h-6.4"/>
						<path id="Trazado_188449" class="st5" d="M45.8,27.3c-1.2,4.6,4.6,16.8,4.3,20.8"/>
						<g id="Grupo_143257" transform="translate(18.179 47.303)">
							<path id="Trazado_188450" class="st5" d="M31.5,4.9c0.6-0.2,1.1-0.4,1.7-0.7s1.1-0.5,1.7-0.8"/>
							<path id="Trazado_188451" class="st5" d="M29.4,8.3C30,8.2,30.6,8.1,31.2,8c0.6-0.1,1.2-0.3,1.8-0.5"/>
							<path id="Trazado_188452" class="st5" d="M26.6,11.1c0.6,0.1,1.2,0.1,1.8,0.2c0.6,0,1.2,0,1.9-0.1"/>
							<path id="Trazado_188453" class="st5" d="M23.2,12.9c1.1,0.6,2.2,0.9,3.4,1.2"/>
							<path id="Trazado_188454" class="st5" d="M19.5,13.5c0.9,0.9,1.8,1.6,2.9,2.2"/>
							<path id="Trazado_188455" class="st5" d="M15.6,13c0.3,0.5,0.6,1,1,1.5c0.4,0.5,0.8,0.9,1.2,1.4"/>
							<path id="Trazado_188456" class="st5" d="M11.9,11.6c0.4,1.2,0.8,2.3,1.4,3.4"/>
							<path id="Trazado_188457" class="st5" d="M8.5,9.4c0.1,0.6,0.2,1.2,0.3,1.8c0.1,0.6,0.3,1.2,0.4,1.8"/>
							<path id="Trazado_188458" class="st5" d="M5.6,6.6c0,1.2,0,2.4,0.1,3.7"/>
							<path id="Trazado_188459" class="st5" d="M3,3.5C2.8,4.7,2.7,5.9,2.6,7.1"/>
							<path id="Trazado_188460" class="st5" d="M0.8,0C0.4,1.2,0.2,2.3,0,3.6"/>
						</g>
						<path id="Trazado_188461" class="st9" d="M27.4,28.8L25,35.6c-0.4,1.1-1.4,1.8-2.5,1.8h-0.2c-0.8,0-1.5,0.4-1.9,1.1L9.9,57.2
							c-1.1,1.9-3.5,2.6-5.4,1.5c-0.1,0-0.1-0.1-0.2-0.1L1.8,57c-1.8-1.2-2.4-3.6-1.3-5.4l6.7-11.2c0.5-0.8,0.4-1.8-0.1-2.5L6,36.3
							c-0.7-1.1-0.5-2.6,0.6-3.3l3-2.1c0.3-0.2,0.4-0.7,0.2-1.1c0,0,0-0.1-0.1-0.1l-0.8-0.9"/>
						<path id="Trazado_188462" class="st5" d="M42.8,0H5.1v28.8h37.7V0"/>
					</g>
					<path id="Trazado_188463" class="st8" d="M62.4,51L0,72.9V0l62.4,22.3V51z"/>
					<line id="Línea_1880" class="st11" x1="5.7" y1="2.3" x2="5.7" y2="70.4"/>
					<line id="Línea_1881" class="st11" x1="92.2" y1="22.3" x2="92.2" y2="51"/>
				</g>
			</g>
			<g id="Grupo_143270" transform="translate(116.465 106.096)">
				<line id="Línea_1882" class="st11" x1="52.9" y1="60.6" x2="53" y2="68.4"/>
				<line id="Línea_1883" class="st11" x1="53" y1="68.4" x2="53" y2="81.4"/>
				<path id="Trazado_188464" class="st11" d="M89.8,81.4V70.2c0-1-0.8-1.8-1.8-1.8H17.5c-1,0-1.8,0.8-1.8,1.8c0,0,0,0,0,0v11.2"/>
				<ellipse id="Elipse_5125" class="st5" cx="89.8" cy="84.8" rx="4.4" ry="4.4"/>
				
					<ellipse id="Elipse_5126" transform="matrix(1.221725e-03 -1 1 1.221725e-03 -31.8517 137.734)" class="st5" cx="53" cy="84.8" rx="4.4" ry="4.4"/>
				
					<ellipse id="Elipse_5127" transform="matrix(1.221725e-03 -1 1 1.221725e-03 -69.1871 100.353)" class="st5" cx="15.6" cy="84.8" rx="4.4" ry="4.4"/>
				<g id="Grupo_143263" transform="translate(17.55 0)">
					<circle id="Elipse_5128" class="st5" cx="35.5" cy="35.5" r="25.1"/>
					<g id="Grupo_143262" transform="translate(17.742 20.632)">
						<g id="Grupo_143261">
							<path id="Trazado_188465" class="st5" d="M0,31.9c0.6-0.8,1.5-1.4,2.6-1.7c2.4-0.6,5.6-1.2,7.7-1.8c1.1-0.3,1.9-1.4,1.9-2.5
								v-2c0-0.3-0.1-0.5-0.4-0.7c-1.4-1.3-2.4-3-2.7-4.8c0-0.1,0-0.3-0.1-0.4c-0.6,0-1.1-0.4-1.2-0.9c-0.5-2.9-0.8-3-0.8-4.3
								s0.5-1.6,1-1.3c-0.2-0.6-0.3-1.3-0.3-2C7.7,3.7,12,0,17.3,0s9.7,3.5,9.5,9.4c0,0.7-0.1,1.3-0.3,2c0.6-0.3,1,0,1,1.3
								s-0.3,1.4-0.8,4.3c-0.1,0.6-0.6,1-1.2,0.9c-0.1,0.4-0.2,0.7-0.3,1c-0.6,1.6-1.6,3.1-2.8,4.2c-0.2,0.2-0.3,0.4-0.3,0.7v2
								c0,1.2,0.8,2.2,1.9,2.5c2.1,0.6,5.9,1.1,8.3,1.7c1.2,0.3,2.2,1,2.8,2.1l0.3,0.6"/>
						</g>
					</g>
					<path id="Trazado_188466" class="st5" d="M28.7,42.9c3.3,3.3,8.6,3.4,12.1,0.3"/>
					<path id="Trazado_188467" class="st9" d="M44.5,34.4l0.4-4.2c0.3-3.1-1.2-6.1-3.8-7.8c-0.2-0.1-0.5-0.3-0.7-0.4
						c-2.6-1.1-5.4-1.6-8.3-1.3c-1.3,0.1-2.5,0.7-3.2,1.8l-0.8,1.1l0,0c-1.9,0.3-3.3,2-3.2,3.9l0.7,6.6l1.7-3.7
						c0.1-0.1,0.2-0.3,0.3-0.4c0.9-0.7,1.6-1.6,2.1-2.6l0.4-0.8l0.6,0.3c2.9,1.3,6.1,1.7,9.2,1.4c0.5-0.1,0.9,0,1,0.4
						C42.6,35.1,44.5,34.4,44.5,34.4z"/>
					<path id="Trazado_188468" class="st5" d="M28.7,48.7l4.5,2.1c1,0.5,2.2,0.5,3.2,0l4.8-2.1"/>
				</g>
				<g id="Grupo_143265" transform="translate(74.161 95.683)">
					<g id="Grupo_143264">
						<path id="Trazado_188469" class="st5" d="M31.3,15.6C31.3,7,24.3,0,15.7,0C7,0,0,7,0,15.6c0,5.1,2.5,9.9,6.6,12.8
							c-0.1-0.4-0.2-0.8-0.2-1.2V27c0.2-4.8,0.5-7.4,2.5-10.2c1-1.4,2.6-2.9,4.3-2.9c1.4,0,3,0,4.8,0c1.7,0,3.4,1.7,4.4,3.1
							c2,2.8,2.2,5.3,2.4,10v0.2c0,0.4-0.1,0.8-0.2,1.2C28.8,25.5,31.3,20.7,31.3,15.6z"/>
						<path id="Trazado_188470" class="st8" d="M24.9,27c-0.2-4.7-0.4-7.2-2.4-10c-1-1.5-2.7-3.1-4.4-3.1c-1.9,0-3.5,0-4.8,0
							c-1.7,0-3.3,1.6-4.3,2.9C6.9,19.5,6.6,22.1,6.4,27v0.2c0,0.4,0.1,0.8,0.2,1.2c5.4,3.8,12.6,3.8,18,0c0.1-0.4,0.2-0.8,0.2-1.2
							L24.9,27z"/>
					</g>
					<ellipse id="Elipse_5129" class="st5" cx="15.5" cy="11.7" rx="4.9" ry="5"/>
				</g>
				<g id="Grupo_143267" transform="translate(0 95.683)">
					<g id="Grupo_143266">
						<path id="Trazado_188471" class="st5" d="M31.3,15.6C31.3,7,24.3,0,15.7,0C7,0,0,7,0,15.6c0,5.1,2.5,9.9,6.6,12.8
							c-0.1-0.4-0.2-0.8-0.2-1.2V27c0.2-4.8,0.5-7.4,2.5-10.2c1-1.4,2.6-2.9,4.3-2.9c1.4,0,3,0,4.8,0c1.7,0,3.4,1.7,4.4,3.1
							c2,2.8,2.2,5.3,2.4,10v0.2c0,0.4-0.1,0.8-0.2,1.2C28.8,25.5,31.3,20.7,31.3,15.6z"/>
						<path id="Trazado_188472" class="st8" d="M24.9,27c-0.2-4.7-0.4-7.2-2.4-10c-1-1.5-2.7-3.1-4.4-3.1c-1.9,0-3.5,0-4.8,0
							c-1.7,0-3.3,1.6-4.3,2.9C6.9,19.5,6.6,22.1,6.4,27v0.2c0,0.4,0.1,0.8,0.2,1.2c5.4,3.8,12.6,3.8,18,0c0.1-0.4,0.2-0.8,0.2-1.2
							L24.9,27z"/>
					</g>
					<ellipse id="Elipse_5130" class="st5" cx="15.5" cy="11.7" rx="4.9" ry="5"/>
				</g>
				<g id="Grupo_143269" transform="translate(37.387 95.683)">
					<g id="Grupo_143268">
						<path id="Trazado_188473" class="st5" d="M31.3,15.6C31.3,7,24.3,0,15.7,0C7,0,0,7,0,15.6c0,5.1,2.5,9.9,6.6,12.8
							c-0.1-0.4-0.2-0.8-0.2-1.2V27c0.2-4.8,0.5-7.4,2.5-10.2c1-1.4,2.6-2.9,4.3-2.9c1.4,0,3,0,4.8,0c1.7,0,3.4,1.7,4.4,3.1
							c2,2.8,2.2,5.3,2.4,10v0.2c0,0.4-0.1,0.8-0.2,1.2C28.8,25.5,31.3,20.7,31.3,15.6z"/>
						<path id="Trazado_188474" class="st9" d="M24.9,27c-0.2-4.7-0.4-7.2-2.4-10c-1-1.5-2.7-3.1-4.4-3.1c-1.9,0-3.5,0-4.8,0
							c-1.7,0-3.3,1.6-4.3,2.9C6.9,19.5,6.6,22.1,6.4,27v0.2c0,0.4,0.1,0.8,0.2,1.2c5.4,3.8,12.6,3.8,18,0c0.1-0.4,0.2-0.8,0.2-1.2
							L24.9,27z"/>
					</g>
					<ellipse id="Elipse_5131" class="st5" cx="15.5" cy="11.7" rx="4.9" ry="5"/>
				</g>
			</g>
			<g id="Grupo_143279" transform="translate(24.584 56)">
				<g id="Grupo_143271">
					<path id="Trazado_188475" class="st9" d="M0,133.7c0,3.4,1.4,4.8,3.2,4.8h80c1.8,0,3.2-1.4,3.2-4.8v-9H0L0,133.7z"/>
					<rect id="Rectángulo_42421" x="0" y="9" class="st5" width="86.3" height="115.7"/>
					<path id="Trazado_188476" class="st9" d="M86.3,1.5C86,0.6,85-0.1,84,0H2.4c-1-0.1-2,0.6-2.4,1.5V9h86.3L86.3,1.5z"/>
				</g>
				<line id="Línea_1884" class="st11" x1="47.2" y1="132" x2="39.9" y2="132"/>
				<path id="Rectángulo_42422" class="st8" d="M78.1,101.5L78.1,101.5c0,7.6-6.2,13.8-13.8,13.8H22.7l0,0V87.7l0,0h41.6
					C71.9,87.7,78.1,93.8,78.1,101.5z"/>
				<g id="Grupo_143274" transform="translate(3.249 82.123)">
					
						<ellipse id="Elipse_5132" transform="matrix(0.7072 -0.7071 0.7071 0.7072 -8.0528 19.4393)" class="st5" cx="19.4" cy="19.4" rx="13.7" ry="13.8"/>
					<g id="Grupo_143273" transform="translate(10.055 10.223)">
						<g id="Grupo_143272">
							<path id="Trazado_188477" class="st5" d="M19.1,19c-1.5-0.4-4.4-0.9-5.7-1.2c-0.7-0.2-1.2-0.8-1.2-1.6v-1.3
								c0-0.2,0.1-0.3,0.2-0.4c0.8-0.7,1.4-1.6,1.8-2.6c0.1-0.2,0.1-0.4,0.2-0.6c0.4,0,0.7-0.2,0.7-0.6c0.2-0.9,0.4-1.8,0.5-2.7
								c0-0.8-0.3-1-0.6-0.8c0.1-0.4,0.2-0.8,0.2-1.2c0.1-3.1-2.3-5.8-5.4-5.9C9.6,0,9.4,0,9.2,0c-3.2-0.1-5.8,2.3-6,5.4
								c0,0.1,0,0.3,0,0.4c0,0.4,0.1,0.8,0.2,1.2c-0.4-0.2-0.6,0-0.6,0.8c0.1,0.9,0.3,1.8,0.5,2.7C3.4,11,3.7,11.2,4,11.2
								c0,0.1,0,0.2,0,0.2c0.2,1.2,0.8,2.2,1.7,3C5.9,14.6,6,14.7,6,14.9v1.2c0,0.7-0.5,1.4-1.2,1.6c-1.3,0.4-3.4,0.8-4.8,1.2
								c0,0,2.2,3.6,8.7,4.1C12.6,23.2,16.4,21.8,19.1,19z"/>
						</g>
					</g>
				</g>
				<g id="Grupo_143275" transform="translate(45.392 94.974)">
					<line id="Línea_1885" class="st11" x1="0" y1="0" x2="24.6" y2="0"/>
					<line id="Línea_1886" class="st11" x1="0" y1="6.5" x2="4.3" y2="6.5"/>
					<line id="Línea_1887" class="st11" x1="9.8" y1="6.5" x2="24.6" y2="6.5"/>
					<line id="Línea_1888" class="st11" x1="0" y1="13" x2="16.5" y2="13"/>
				</g>
				<g id="Grupo_143278" transform="translate(22.96 30.645)">
					<g id="Grupo_143276" transform="translate(0.399)">
						<path id="Trazado_188478" class="st5" d="M45,27.3l0.1,8.4c0,0.6-0.5,1.2-1.1,1.2l-8.4,0.1"/>
						<path id="Trazado_188479" class="st5" d="M9.6,0.1L1.3,0C0.6,0,0.1,0.5,0.1,1.1l0,0L0,9.5"/>
					</g>
					<g id="x55B42.tif" transform="translate(-91.465 -137.059)">
						<g id="Grupo_146049" transform="translate(102.744 140.853)">
							<path id="Trazado_189658" class="st33" d="M20.4,29.3H3c0,0-0.1,0-0.1,0C1.2,29,0,27.5,0,25.8c0-3.9,0-7.7,0-11.6
								c0-1.3,0.7-2.5,1.9-3.1c0.5-0.2,1-0.4,1.5-0.3h2.1v-0.3c0-1.4,0-2.8,0-4.2c0-0.3,0-0.6,0.1-0.9c0.5-3.4,3.6-5.7,7-5.2
								c3.1,0.5,5.3,3.1,5.3,6.2c0,1.4,0,2.8,0,4.2v0.3c0.7,0,1.4,0,2.1,0c1.1,0,2.1,0.5,2.7,1.4c0.3,0.5,0.6,1,0.7,1.6v12.6
								c0,0,0,0.1-0.1,0.1c-0.2,1-0.8,1.9-1.7,2.4C21.2,29,20.8,29.2,20.4,29.3z M11.6,27h8.1c0.7,0.1,1.3-0.4,1.3-1
								c0-0.1,0-0.2,0-0.3c0-3.8,0-7.5,0-11.3c0.1-0.7-0.4-1.2-1-1.3c-0.1,0-0.2,0-0.3,0H3.6c-0.7-0.1-1.3,0.4-1.3,1
								c0,0.1,0,0.2,0,0.3c0,3.7,0,7.5,0,11.2c-0.1,0.7,0.4,1.3,1,1.4c0.1,0,0.2,0,0.4,0H11.6z M15.6,10.8c0-0.1,0-0.1,0-0.1
								c0-1.5,0-3,0-4.5c0-0.4-0.1-0.8-0.2-1.2C14.7,3.1,12.8,2,11,2.4C9.1,2.7,7.8,4.3,7.8,6.1c0,1.5,0,2.9,0,4.4
								c0,0.1,0,0.2,0,0.3L15.6,10.8z"/>
							<path id="Trazado_189659" class="st33" d="M20.4,29.3c0.4-0.1,0.8-0.3,1.2-0.4c0.9-0.5,1.5-1.4,1.7-2.4c0,0,0-0.1,0.1-0.1v3
								H20.4z"/>
							<path id="Trazado_189660" class="st33" d="M12.8,21.7c0,0.4,0,0.8,0,1.1c0,0.6-0.5,1.1-1.2,1.1c-0.6,0-1.1-0.5-1.1-1.1
								c0-0.8,0-1.5,0-2.3c0-0.1-0.1-0.3-0.2-0.4c-0.9-0.7-1.1-2.1-0.3-3s2.1-1.1,3-0.3s1.1,2.1,0.3,3c-0.1,0.1-0.2,0.2-0.3,0.3
								c-0.1,0.1-0.2,0.2-0.2,0.4C12.8,20.9,12.8,21.3,12.8,21.7L12.8,21.7z"/>
						</g>
					</g>
				</g>
			</g>
		</g>
	</g>
	<g>
		<path d="M57.7,425.6c-0.1,1.5-0.7,2.7-1.7,3.5s-2.3,1.3-3.9,1.3c-1.8,0-3.2-0.6-4.2-1.8c-1-1.2-1.5-2.8-1.5-4.9v-0.8
			c0-1.3,0.2-2.5,0.7-3.5s1.1-1.8,2-2.3c0.9-0.5,1.9-0.8,3-0.8c1.6,0,2.9,0.4,3.9,1.3c1,0.9,1.5,2.1,1.7,3.6h-2.9
			c-0.1-0.9-0.3-1.5-0.7-1.9c-0.4-0.4-1.1-0.6-2-0.6c-1,0-1.7,0.3-2.1,1c-0.5,0.7-0.7,1.7-0.7,3.2v1c0,1.5,0.2,2.6,0.7,3.3
			c0.5,0.7,1.2,1,2.1,1c0.9,0,1.5-0.2,2-0.6c0.4-0.4,0.7-1,0.7-1.9H57.7z"/>
		<path d="M65.2,422.5c-0.4-0.1-0.7-0.1-1-0.1c-1,0-1.7,0.4-2,1.1v6.7h-2.7v-10.3H62l0.1,1.2c0.6-0.9,1.3-1.4,2.3-1.4
			c0.3,0,0.6,0,0.9,0.1L65.2,422.5z"/>
		<path d="M71,430.4c-1.5,0-2.7-0.5-3.7-1.4c-0.9-0.9-1.4-2.2-1.4-3.7V425c0-1,0.2-2,0.6-2.8s1-1.4,1.7-1.9c0.7-0.4,1.6-0.7,2.5-0.7
			c1.4,0,2.5,0.4,3.3,1.3s1.2,2.1,1.2,3.8v1.1h-6.6c0.1,0.7,0.4,1.2,0.8,1.6c0.4,0.4,1,0.6,1.7,0.6c1.1,0,1.9-0.4,2.5-1.2l1.4,1.5
			c-0.4,0.6-1,1-1.7,1.4C72.7,430.2,71.9,430.4,71,430.4z M70.7,421.9c-0.5,0-1,0.2-1.3,0.6c-0.3,0.4-0.6,0.9-0.7,1.6h3.8v-0.2
			c0-0.6-0.2-1.1-0.5-1.4C71.8,422.1,71.3,421.9,70.7,421.9z"/>
		<path d="M82.8,430.2c-0.1-0.2-0.2-0.6-0.3-0.9c-0.7,0.7-1.5,1.1-2.6,1.1c-1,0-1.8-0.3-2.5-0.9c-0.7-0.6-1-1.3-1-2.2
			c0-1.1,0.4-1.9,1.2-2.5c0.8-0.6,2-0.9,3.5-0.9h1.3v-0.6c0-0.5-0.1-0.9-0.4-1.1s-0.6-0.4-1.2-0.4c-0.5,0-0.8,0.1-1.1,0.3
			s-0.4,0.5-0.4,0.9h-2.7c0-0.6,0.2-1.1,0.6-1.7c0.4-0.5,0.9-0.9,1.6-1.2c0.7-0.3,1.4-0.4,2.3-0.4c1.3,0,2.3,0.3,3,1
			c0.7,0.6,1.1,1.5,1.1,2.7v4.5c0,1,0.1,1.7,0.4,2.2v0.2H82.8z M80.5,428.3c0.4,0,0.8-0.1,1.1-0.3s0.6-0.4,0.8-0.7v-1.8h-1
			c-1.4,0-2.1,0.5-2.2,1.4l0,0.2c0,0.3,0.1,0.6,0.4,0.8C79.8,428.2,80.1,428.3,80.5,428.3z"/>
		<path d="M91.6,428.2c0.5,0,0.9-0.1,1.2-0.4c0.3-0.3,0.5-0.7,0.5-1.1h2.6c0,0.7-0.2,1.3-0.6,1.9c-0.4,0.6-0.9,1-1.5,1.4
			c-0.7,0.3-1.4,0.5-2.2,0.5c-1.5,0-2.6-0.5-3.5-1.4s-1.3-2.2-1.3-3.9v-0.2c0-1.6,0.4-2.9,1.3-3.8c0.8-0.9,2-1.4,3.5-1.4
			c1.3,0,2.3,0.4,3.1,1.1s1.2,1.7,1.2,2.9h-2.6c0-0.5-0.2-1-0.5-1.3c-0.3-0.3-0.7-0.5-1.3-0.5c-0.6,0-1.1,0.2-1.5,0.7
			c-0.3,0.5-0.5,1.2-0.5,2.3v0.3c0,1.1,0.2,1.8,0.5,2.3C90.4,427.9,90.9,428.2,91.6,428.2z"/>
		<path d="M97.4,417.2c0-0.4,0.1-0.8,0.4-1s0.7-0.4,1.1-0.4c0.5,0,0.8,0.1,1.1,0.4c0.3,0.3,0.4,0.6,0.4,1c0,0.4-0.1,0.8-0.4,1
			s-0.7,0.4-1.1,0.4s-0.8-0.1-1.1-0.4S97.4,417.6,97.4,417.2z M100.3,430.2h-2.8v-10.3h2.8V430.2z"/>
		<path d="M102.2,424.9c0-1,0.2-1.9,0.6-2.7s1-1.4,1.7-1.9c0.7-0.4,1.6-0.7,2.6-0.7c1.4,0,2.5,0.4,3.4,1.3c0.9,0.8,1.4,2,1.5,3.5
			l0,0.7c0,1.6-0.4,2.8-1.3,3.8s-2.1,1.4-3.5,1.4s-2.7-0.5-3.6-1.4s-1.3-2.2-1.3-3.9V424.9z M104.9,425.1c0,1,0.2,1.7,0.6,2.2
			s0.9,0.8,1.6,0.8c0.7,0,1.2-0.3,1.6-0.8c0.4-0.5,0.6-1.3,0.6-2.5c0-1-0.2-1.7-0.6-2.2c-0.4-0.5-0.9-0.8-1.6-0.8
			c-0.7,0-1.2,0.3-1.6,0.8C105.1,423.2,104.9,424,104.9,425.1z M107.6,415.6h3l-2.6,2.9h-2.2L107.6,415.6z"/>
		<path d="M116.2,419.9l0.1,1.2c0.7-0.9,1.7-1.4,3-1.4c1.1,0,1.9,0.3,2.4,1c0.5,0.6,0.8,1.6,0.8,2.9v6.6h-2.7v-6.6
			c0-0.6-0.1-1-0.4-1.3c-0.3-0.3-0.7-0.4-1.3-0.4c-0.8,0-1.4,0.3-1.7,1v7.3h-2.7v-10.3H116.2z"/>
		<path d="M129,425c0-1.6,0.4-2.9,1.1-3.8c0.7-1,1.7-1.4,3-1.4c1,0,1.8,0.4,2.5,1.1v-5.3h2.8v14.6h-2.5l-0.1-1.1
			c-0.7,0.9-1.6,1.3-2.6,1.3c-1.2,0-2.2-0.5-2.9-1.4S129,426.7,129,425z M131.7,425.2c0,1,0.2,1.7,0.5,2.2c0.3,0.5,0.8,0.8,1.5,0.8
			c0.8,0,1.4-0.4,1.8-1.1V423c-0.3-0.7-0.9-1.1-1.8-1.1C132.4,421.9,131.7,423,131.7,425.2z"/>
		<path d="M145.1,430.4c-1.5,0-2.7-0.5-3.7-1.4c-0.9-0.9-1.4-2.2-1.4-3.7V425c0-1,0.2-2,0.6-2.8s1-1.4,1.7-1.9
			c0.7-0.4,1.6-0.7,2.5-0.7c1.4,0,2.5,0.4,3.3,1.3s1.2,2.1,1.2,3.8v1.1h-6.6c0.1,0.7,0.4,1.2,0.8,1.6c0.4,0.4,1,0.6,1.7,0.6
			c1.1,0,1.9-0.4,2.5-1.2l1.4,1.5c-0.4,0.6-1,1-1.7,1.4C146.7,430.2,146,430.4,145.1,430.4z M144.8,421.9c-0.5,0-1,0.2-1.3,0.6
			c-0.3,0.4-0.6,0.9-0.7,1.6h3.8v-0.2c0-0.6-0.2-1.1-0.5-1.4C145.8,422.1,145.4,421.9,144.8,421.9z"/>
		<path d="M160,428.2c0.5,0,0.9-0.1,1.2-0.4c0.3-0.3,0.5-0.7,0.5-1.1h2.6c0,0.7-0.2,1.3-0.6,1.9c-0.4,0.6-0.9,1-1.5,1.4
			c-0.7,0.3-1.4,0.5-2.2,0.5c-1.5,0-2.6-0.5-3.5-1.4s-1.3-2.2-1.3-3.9v-0.2c0-1.6,0.4-2.9,1.3-3.8c0.8-0.9,2-1.4,3.5-1.4
			c1.3,0,2.3,0.4,3.1,1.1s1.2,1.7,1.2,2.9h-2.6c0-0.5-0.2-1-0.5-1.3c-0.3-0.3-0.7-0.5-1.3-0.5c-0.6,0-1.1,0.2-1.5,0.7
			c-0.3,0.5-0.5,1.2-0.5,2.3v0.3c0,1.1,0.2,1.8,0.5,2.3C158.9,427.9,159.4,428.2,160,428.2z"/>
		<path d="M165.5,424.9c0-1,0.2-1.9,0.6-2.7s1-1.4,1.7-1.9c0.7-0.4,1.6-0.7,2.6-0.7c1.4,0,2.5,0.4,3.4,1.3c0.9,0.8,1.4,2,1.5,3.5
			l0,0.7c0,1.6-0.4,2.8-1.3,3.8s-2.1,1.4-3.5,1.4s-2.7-0.5-3.6-1.4s-1.3-2.2-1.3-3.9V424.9z M168.2,425.1c0,1,0.2,1.7,0.6,2.2
			s0.9,0.8,1.6,0.8c0.7,0,1.2-0.3,1.6-0.8c0.4-0.5,0.6-1.3,0.6-2.5c0-1-0.2-1.7-0.6-2.2c-0.4-0.5-0.9-0.8-1.6-0.8
			c-0.7,0-1.2,0.3-1.6,0.8C168.4,423.2,168.2,424,168.2,425.1z"/>
		<path d="M179.4,419.9l0.1,1.2c0.7-0.9,1.7-1.4,3-1.4c1.1,0,1.9,0.3,2.4,1c0.5,0.6,0.8,1.6,0.8,2.9v6.6H183v-6.6
			c0-0.6-0.1-1-0.4-1.3c-0.3-0.3-0.7-0.4-1.3-0.4c-0.8,0-1.4,0.3-1.7,1v7.3h-2.7v-10.3H179.4z"/>
		<path d="M191.7,426.8l1.9-6.9h2.9l-3.5,10.3h-2.6l-3.5-10.3h2.9L191.7,426.8z"/>
		<path d="M197.1,424.9c0-1,0.2-1.9,0.6-2.7s1-1.4,1.7-1.9c0.7-0.4,1.6-0.7,2.6-0.7c1.4,0,2.5,0.4,3.4,1.3c0.9,0.8,1.4,2,1.5,3.5
			l0,0.7c0,1.6-0.4,2.8-1.3,3.8s-2.1,1.4-3.5,1.4s-2.7-0.5-3.6-1.4s-1.3-2.2-1.3-3.9V424.9z M199.8,425.1c0,1,0.2,1.7,0.6,2.2
			s0.9,0.8,1.6,0.8c0.7,0,1.2-0.3,1.6-0.8c0.4-0.5,0.6-1.3,0.6-2.5c0-1-0.2-1.7-0.6-2.2c-0.4-0.5-0.9-0.8-1.6-0.8
			c-0.7,0-1.2,0.3-1.6,0.8C200,423.2,199.8,424,199.8,425.1z"/>
		<path d="M212.8,428.2c0.5,0,0.9-0.1,1.2-0.4c0.3-0.3,0.5-0.7,0.5-1.1h2.6c0,0.7-0.2,1.3-0.6,1.9c-0.4,0.6-0.9,1-1.5,1.4
			c-0.7,0.3-1.4,0.5-2.2,0.5c-1.5,0-2.6-0.5-3.5-1.4s-1.3-2.2-1.3-3.9v-0.2c0-1.6,0.4-2.9,1.3-3.8c0.8-0.9,2-1.4,3.5-1.4
			c1.3,0,2.3,0.4,3.1,1.1s1.2,1.7,1.2,2.9h-2.6c0-0.5-0.2-1-0.5-1.3c-0.3-0.3-0.7-0.5-1.3-0.5c-0.6,0-1.1,0.2-1.5,0.7
			c-0.3,0.5-0.5,1.2-0.5,2.3v0.3c0,1.1,0.2,1.8,0.5,2.3C211.7,427.9,212.2,428.2,212.8,428.2z"/>
		<path d="M224.7,430.2c-0.1-0.2-0.2-0.6-0.3-0.9c-0.7,0.7-1.5,1.1-2.6,1.1c-1,0-1.8-0.3-2.5-0.9c-0.7-0.6-1-1.3-1-2.2
			c0-1.1,0.4-1.9,1.2-2.5c0.8-0.6,2-0.9,3.5-0.9h1.3v-0.6c0-0.5-0.1-0.9-0.4-1.1s-0.6-0.4-1.2-0.4c-0.5,0-0.8,0.1-1.1,0.3
			s-0.4,0.5-0.4,0.9h-2.7c0-0.6,0.2-1.1,0.6-1.7c0.4-0.5,0.9-0.9,1.6-1.2c0.7-0.3,1.4-0.4,2.3-0.4c1.3,0,2.3,0.3,3,1
			c0.7,0.6,1.1,1.5,1.1,2.7v4.5c0,1,0.1,1.7,0.4,2.2v0.2H224.7z M222.4,428.3c0.4,0,0.8-0.1,1.1-0.3s0.6-0.4,0.8-0.7v-1.8h-1
			c-1.4,0-2.1,0.5-2.2,1.4l0,0.2c0,0.3,0.1,0.6,0.4,0.8C221.6,428.2,222,428.3,222.4,428.3z"/>
		<path d="M232.4,417.4v2.5h1.8v2h-1.8v5.1c0,0.4,0.1,0.7,0.2,0.8c0.1,0.2,0.4,0.2,0.8,0.2c0.3,0,0.6,0,0.8-0.1v2.1
			c-0.5,0.2-1.1,0.2-1.7,0.2c-1.9,0-2.9-1-2.9-2.9v-5.5h-1.5v-2h1.5v-2.5H232.4z"/>
		<path d="M235,424.9c0-1,0.2-1.9,0.6-2.7s1-1.4,1.7-1.9c0.7-0.4,1.6-0.7,2.6-0.7c1.4,0,2.5,0.4,3.4,1.3c0.9,0.8,1.4,2,1.5,3.5
			l0,0.7c0,1.6-0.4,2.8-1.3,3.8s-2.1,1.4-3.5,1.4s-2.7-0.5-3.6-1.4s-1.3-2.2-1.3-3.9V424.9z M237.8,425.1c0,1,0.2,1.7,0.6,2.2
			s0.9,0.8,1.6,0.8c0.7,0,1.2-0.3,1.6-0.8c0.4-0.5,0.6-1.3,0.6-2.5c0-1-0.2-1.7-0.6-2.2c-0.4-0.5-0.9-0.8-1.6-0.8
			c-0.7,0-1.2,0.3-1.6,0.8C237.9,423.2,237.8,424,237.8,425.1z"/>
		<path d="M252.2,422.5c-0.4-0.1-0.7-0.1-1-0.1c-1,0-1.7,0.4-2,1.1v6.7h-2.7v-10.3h2.6l0.1,1.2c0.6-0.9,1.3-1.4,2.3-1.4
			c0.3,0,0.6,0,0.9,0.1L252.2,422.5z"/>
		<path d="M253.5,417.2c0-0.4,0.1-0.8,0.4-1s0.7-0.4,1.1-0.4c0.5,0,0.8,0.1,1.1,0.4c0.3,0.3,0.4,0.6,0.4,1c0,0.4-0.1,0.8-0.4,1
			s-0.7,0.4-1.1,0.4s-0.8-0.1-1.1-0.4S253.5,417.6,253.5,417.2z M256.5,430.2h-2.8v-10.3h2.8V430.2z"/>
		<path d="M264.7,430.2c-0.1-0.2-0.2-0.6-0.3-0.9c-0.7,0.7-1.5,1.1-2.6,1.1c-1,0-1.8-0.3-2.5-0.9c-0.7-0.6-1-1.3-1-2.2
			c0-1.1,0.4-1.9,1.2-2.5c0.8-0.6,2-0.9,3.5-0.9h1.3v-0.6c0-0.5-0.1-0.9-0.4-1.1s-0.6-0.4-1.2-0.4c-0.5,0-0.8,0.1-1.1,0.3
			s-0.4,0.5-0.4,0.9h-2.7c0-0.6,0.2-1.1,0.6-1.7c0.4-0.5,0.9-0.9,1.6-1.2c0.7-0.3,1.4-0.4,2.3-0.4c1.3,0,2.3,0.3,3,1
			c0.7,0.6,1.1,1.5,1.1,2.7v4.5c0,1,0.1,1.7,0.4,2.2v0.2H264.7z M262.4,428.3c0.4,0,0.8-0.1,1.1-0.3s0.6-0.4,0.8-0.7v-1.8h-1
			c-1.4,0-2.1,0.5-2.2,1.4l0,0.2c0,0.3,0.1,0.6,0.4,0.8C261.7,428.2,262,428.3,262.4,428.3z"/>
		<path d="M274.7,427.3c0-0.3-0.2-0.6-0.5-0.8c-0.3-0.2-0.9-0.4-1.6-0.5c-2.4-0.5-3.7-1.6-3.7-3.1c0-0.9,0.4-1.7,1.1-2.3
			c0.8-0.6,1.7-0.9,3-0.9c1.3,0,2.4,0.3,3.1,0.9c0.8,0.6,1.2,1.4,1.2,2.4h-2.7c0-0.4-0.1-0.7-0.4-1c-0.3-0.3-0.6-0.4-1.2-0.4
			c-0.5,0-0.8,0.1-1.1,0.3c-0.3,0.2-0.4,0.5-0.4,0.8c0,0.3,0.1,0.5,0.4,0.7c0.3,0.2,0.8,0.3,1.5,0.5c0.7,0.1,1.3,0.3,1.7,0.5
			c1.5,0.5,2.2,1.5,2.2,2.8c0,0.9-0.4,1.7-1.2,2.3c-0.8,0.6-1.8,0.9-3.1,0.9c-0.9,0-1.6-0.2-2.3-0.5c-0.7-0.3-1.2-0.7-1.6-1.3
			c-0.4-0.5-0.6-1.1-0.6-1.7h2.6c0,0.5,0.2,0.9,0.5,1.1c0.3,0.3,0.8,0.4,1.4,0.4c0.5,0,0.9-0.1,1.2-0.3
			C274.6,427.9,274.7,427.7,274.7,427.3z"/>
	</g>
	<g>
		<path d="M435.1,425.1h-2.3v5.1h-2.9v-13.8h5.1c1.6,0,2.9,0.4,3.8,1.1s1.3,1.8,1.3,3.1c0,0.9-0.2,1.7-0.6,2.4
			c-0.4,0.6-1,1.1-1.9,1.5l3,5.7v0.1h-3.1L435.1,425.1z M432.8,422.8h2.3c0.7,0,1.3-0.2,1.7-0.5c0.4-0.4,0.6-0.9,0.6-1.5
			c0-0.7-0.2-1.2-0.6-1.5c-0.4-0.4-0.9-0.6-1.7-0.6h-2.3V422.8z"/>
		<path d="M446.9,430.4c-1.5,0-2.7-0.5-3.7-1.4c-0.9-0.9-1.4-2.2-1.4-3.7V425c0-1,0.2-2,0.6-2.8s1-1.4,1.7-1.9
			c0.7-0.4,1.6-0.7,2.5-0.7c1.4,0,2.5,0.4,3.3,1.3s1.2,2.1,1.2,3.8v1.1h-6.6c0.1,0.7,0.4,1.2,0.8,1.6c0.4,0.4,1,0.6,1.7,0.6
			c1.1,0,1.9-0.4,2.5-1.2l1.4,1.5c-0.4,0.6-1,1-1.7,1.4C448.6,430.2,447.8,430.4,446.9,430.4z M446.6,421.9c-0.5,0-1,0.2-1.3,0.6
			c-0.3,0.4-0.6,0.9-0.7,1.6h3.8v-0.2c0-0.6-0.2-1.1-0.5-1.4C447.6,422.1,447.2,421.9,446.6,421.9z"/>
		<path d="M452.3,424.9c0-1.6,0.4-2.9,1.1-3.8c0.7-0.9,1.7-1.4,3-1.4c1.1,0,2,0.4,2.6,1.3l0.2-1.1h2.4v14.2h-2.8v-4.8
			c-0.6,0.7-1.5,1.1-2.5,1.1c-1.2,0-2.2-0.5-2.9-1.4C452.7,428,452.3,426.7,452.3,424.9z M455,425.1c0,1,0.2,1.7,0.5,2.2
			c0.3,0.5,0.8,0.8,1.5,0.8c0.8,0,1.4-0.3,1.8-1v-4.3c-0.3-0.6-0.9-1-1.8-1c-0.6,0-1.1,0.3-1.5,0.8C455.2,423.2,455,424,455,425.1z"
			/>
		<path d="M469.9,429.1c-0.7,0.8-1.6,1.2-2.8,1.2c-1.1,0-1.9-0.3-2.5-1c-0.6-0.6-0.9-1.6-0.9-2.8v-6.7h2.7v6.7
			c0,1.1,0.5,1.6,1.5,1.6c0.9,0,1.6-0.3,1.9-1v-7.3h2.8v10.3H470L469.9,429.1z"/>
		<path d="M479.4,430.4c-1.5,0-2.7-0.5-3.7-1.4c-0.9-0.9-1.4-2.2-1.4-3.7V425c0-1,0.2-2,0.6-2.8s1-1.4,1.7-1.9
			c0.7-0.4,1.6-0.7,2.5-0.7c1.4,0,2.5,0.4,3.3,1.3s1.2,2.1,1.2,3.8v1.1H477c0.1,0.7,0.4,1.2,0.8,1.6c0.4,0.4,1,0.6,1.7,0.6
			c1.1,0,1.9-0.4,2.5-1.2l1.4,1.5c-0.4,0.6-1,1-1.7,1.4C481,430.2,480.2,430.4,479.4,430.4z M479,421.9c-0.5,0-1,0.2-1.3,0.6
			c-0.3,0.4-0.6,0.9-0.7,1.6h3.8v-0.2c0-0.6-0.2-1.1-0.5-1.4C480.1,422.1,479.6,421.9,479,421.9z"/>
		<path d="M490.9,422.5c-0.4-0.1-0.7-0.1-1-0.1c-1,0-1.7,0.4-2,1.1v6.7h-2.7v-10.3h2.6l0.1,1.2c0.6-0.9,1.3-1.4,2.3-1.4
			c0.3,0,0.6,0,0.9,0.1L490.9,422.5z"/>
		<path d="M492.2,417.2c0-0.4,0.1-0.8,0.4-1s0.7-0.4,1.1-0.4c0.5,0,0.8,0.1,1.1,0.4c0.3,0.3,0.4,0.6,0.4,1c0,0.4-0.1,0.8-0.4,1
			s-0.7,0.4-1.1,0.4s-0.8-0.1-1.1-0.4S492.2,417.6,492.2,417.2z M495.2,430.2h-2.8v-10.3h2.8V430.2z"/>
		<path d="M500,419.9l0.1,1.2c0.7-0.9,1.7-1.3,3-1.3c1.3,0,2.2,0.5,2.7,1.6c0.7-1,1.8-1.6,3.1-1.6c1.1,0,1.9,0.3,2.5,1
			c0.5,0.7,0.8,1.6,0.8,2.9v6.6h-2.8v-6.6c0-0.6-0.1-1-0.3-1.3c-0.2-0.3-0.6-0.4-1.2-0.4c-0.8,0-1.4,0.4-1.7,1.2l0,7.1h-2.7v-6.6
			c0-0.6-0.1-1-0.4-1.3c-0.2-0.3-0.6-0.4-1.2-0.4c-0.8,0-1.3,0.3-1.7,1v7.3h-2.7v-10.3H500z"/>
		<path d="M514.3,417.2c0-0.4,0.1-0.8,0.4-1c0.3-0.3,0.7-0.4,1.1-0.4c0.5,0,0.8,0.1,1.1,0.4c0.3,0.3,0.4,0.6,0.4,1
			c0,0.4-0.1,0.8-0.4,1s-0.7,0.4-1.1,0.4s-0.8-0.1-1.1-0.4S514.3,417.6,514.3,417.2z M517.2,430.2h-2.8v-10.3h2.8V430.2z"/>
		<path d="M524.2,430.4c-1.5,0-2.7-0.5-3.7-1.4c-0.9-0.9-1.4-2.2-1.4-3.7V425c0-1,0.2-2,0.6-2.8s1-1.4,1.7-1.9
			c0.7-0.4,1.6-0.7,2.5-0.7c1.4,0,2.5,0.4,3.3,1.3s1.2,2.1,1.2,3.8v1.1h-6.6c0.1,0.7,0.4,1.2,0.8,1.6c0.4,0.4,1,0.6,1.7,0.6
			c1.1,0,1.9-0.4,2.5-1.2l1.4,1.5c-0.4,0.6-1,1-1.7,1.4C525.8,430.2,525,430.4,524.2,430.4z M523.9,421.9c-0.5,0-1,0.2-1.3,0.6
			c-0.3,0.4-0.6,0.9-0.7,1.6h3.8v-0.2c0-0.6-0.2-1.1-0.5-1.4C524.9,422.1,524.5,421.9,523.9,421.9z"/>
		<path d="M532.5,419.9l0.1,1.2c0.7-0.9,1.7-1.4,3-1.4c1.1,0,1.9,0.3,2.4,1c0.5,0.6,0.8,1.6,0.8,2.9v6.6h-2.7v-6.6
			c0-0.6-0.1-1-0.4-1.3c-0.3-0.3-0.7-0.4-1.3-0.4c-0.8,0-1.4,0.3-1.7,1v7.3h-2.7v-10.3H532.5z"/>
		<path d="M544.2,417.4v2.5h1.8v2h-1.8v5.1c0,0.4,0.1,0.7,0.2,0.8c0.1,0.2,0.4,0.2,0.8,0.2c0.3,0,0.6,0,0.8-0.1v2.1
			c-0.5,0.2-1.1,0.2-1.7,0.2c-1.9,0-2.9-1-2.9-2.9v-5.5h-1.5v-2h1.5v-2.5H544.2z"/>
		<path d="M546.8,424.9c0-1,0.2-1.9,0.6-2.7c0.4-0.8,1-1.4,1.7-1.9s1.6-0.7,2.6-0.7c1.4,0,2.5,0.4,3.4,1.3c0.9,0.8,1.4,2,1.5,3.5
			l0,0.7c0,1.6-0.4,2.8-1.3,3.8c-0.9,1-2.1,1.4-3.5,1.4c-1.5,0-2.7-0.5-3.6-1.4s-1.3-2.2-1.3-3.9V424.9z M549.5,425.1
			c0,1,0.2,1.7,0.6,2.2c0.4,0.5,0.9,0.8,1.6,0.8c0.7,0,1.2-0.3,1.6-0.8c0.4-0.5,0.6-1.3,0.6-2.5c0-1-0.2-1.7-0.6-2.2
			c-0.4-0.5-0.9-0.8-1.6-0.8c-0.7,0-1.2,0.3-1.6,0.8C549.7,423.2,549.5,424,549.5,425.1z"/>
		<path d="M563.8,427.3c0-0.3-0.2-0.6-0.5-0.8c-0.3-0.2-0.9-0.4-1.6-0.5c-2.4-0.5-3.7-1.6-3.7-3.1c0-0.9,0.4-1.7,1.1-2.3
			c0.8-0.6,1.7-0.9,3-0.9c1.3,0,2.4,0.3,3.1,0.9c0.8,0.6,1.2,1.4,1.2,2.4h-2.7c0-0.4-0.1-0.7-0.4-1c-0.3-0.3-0.7-0.4-1.2-0.4
			c-0.5,0-0.8,0.1-1.1,0.3c-0.3,0.2-0.4,0.5-0.4,0.8c0,0.3,0.1,0.5,0.4,0.7c0.3,0.2,0.8,0.3,1.5,0.5c0.7,0.1,1.3,0.3,1.7,0.5
			c1.5,0.5,2.2,1.5,2.2,2.8c0,0.9-0.4,1.7-1.2,2.3c-0.8,0.6-1.8,0.9-3.1,0.9c-0.9,0-1.6-0.2-2.3-0.5c-0.7-0.3-1.2-0.7-1.6-1.3
			c-0.4-0.5-0.6-1.1-0.6-1.7h2.6c0,0.5,0.2,0.9,0.5,1.1s0.8,0.4,1.4,0.4c0.5,0,0.9-0.1,1.2-0.3C563.6,427.9,563.8,427.7,563.8,427.3
			z"/>
	</g>
	<g>
		<path d="M791.9,425.1h-2.3v5.1h-2.9v-13.8h5.1c1.6,0,2.9,0.4,3.8,1.1s1.3,1.8,1.3,3.1c0,0.9-0.2,1.7-0.6,2.4
			c-0.4,0.6-1,1.1-1.9,1.5l3,5.7v0.1h-3.1L791.9,425.1z M789.6,422.8h2.3c0.7,0,1.3-0.2,1.7-0.5c0.4-0.4,0.6-0.9,0.6-1.5
			c0-0.7-0.2-1.2-0.6-1.5s-0.9-0.6-1.7-0.6h-2.3V422.8z"/>
		<path d="M803.7,430.4c-1.5,0-2.7-0.5-3.7-1.4c-0.9-0.9-1.4-2.2-1.4-3.7V425c0-1,0.2-2,0.6-2.8s1-1.4,1.7-1.9
			c0.7-0.4,1.6-0.7,2.5-0.7c1.4,0,2.5,0.4,3.3,1.3s1.2,2.1,1.2,3.8v1.1h-6.6c0.1,0.7,0.4,1.2,0.8,1.6c0.4,0.4,1,0.6,1.7,0.6
			c1.1,0,1.9-0.4,2.5-1.2l1.4,1.5c-0.4,0.6-1,1-1.7,1.4C805.4,430.2,804.6,430.4,803.7,430.4z M803.4,421.9c-0.5,0-1,0.2-1.3,0.6
			c-0.3,0.4-0.6,0.9-0.7,1.6h3.8v-0.2c0-0.6-0.2-1.1-0.5-1.4C804.5,422.1,804,421.9,803.4,421.9z"/>
		<path d="M815.1,427.3c0-0.3-0.2-0.6-0.5-0.8c-0.3-0.2-0.9-0.4-1.6-0.5c-2.4-0.5-3.7-1.6-3.7-3.1c0-0.9,0.4-1.7,1.1-2.3
			c0.8-0.6,1.7-0.9,3-0.9c1.3,0,2.4,0.3,3.1,0.9c0.8,0.6,1.2,1.4,1.2,2.4H815c0-0.4-0.1-0.7-0.4-1c-0.3-0.3-0.6-0.4-1.2-0.4
			c-0.5,0-0.8,0.1-1.1,0.3c-0.3,0.2-0.4,0.5-0.4,0.8c0,0.3,0.1,0.5,0.4,0.7c0.3,0.2,0.8,0.3,1.5,0.5c0.7,0.1,1.3,0.3,1.7,0.5
			c1.5,0.5,2.2,1.5,2.2,2.8c0,0.9-0.4,1.7-1.2,2.3c-0.8,0.6-1.8,0.9-3.1,0.9c-0.9,0-1.6-0.2-2.3-0.5c-0.7-0.3-1.2-0.7-1.6-1.3
			s-0.6-1.1-0.6-1.7h2.6c0,0.5,0.2,0.9,0.5,1.1c0.3,0.3,0.8,0.4,1.4,0.4c0.5,0,0.9-0.1,1.2-0.3C815,427.9,815.1,427.7,815.1,427.3z"
			/>
		<path d="M822.8,417.4v2.5h1.8v2h-1.8v5.1c0,0.4,0.1,0.7,0.2,0.8c0.1,0.2,0.4,0.2,0.8,0.2c0.3,0,0.6,0,0.8-0.1v2.1
			c-0.5,0.2-1.1,0.2-1.7,0.2c-1.9,0-2.9-1-2.9-2.9v-5.5h-1.5v-2h1.5v-2.5H822.8z"/>
		<path d="M831.9,422.5c-0.4-0.1-0.7-0.1-1-0.1c-1,0-1.7,0.4-2,1.1v6.7h-2.7v-10.3h2.6l0.1,1.2c0.6-0.9,1.3-1.4,2.3-1.4
			c0.3,0,0.6,0,0.9,0.1L831.9,422.5z"/>
		<path d="M833.2,417.2c0-0.4,0.1-0.8,0.4-1c0.3-0.3,0.7-0.4,1.1-0.4c0.5,0,0.8,0.1,1.1,0.4s0.4,0.6,0.4,1c0,0.4-0.1,0.8-0.4,1
			s-0.7,0.4-1.1,0.4s-0.8-0.1-1.1-0.4S833.2,417.6,833.2,417.2z M836.1,430.2h-2.8v-10.3h2.8V430.2z"/>
		<path d="M842.7,428.2c0.5,0,0.9-0.1,1.2-0.4c0.3-0.3,0.5-0.7,0.5-1.1h2.6c0,0.7-0.2,1.3-0.6,1.9s-0.9,1-1.5,1.4s-1.4,0.5-2.2,0.5
			c-1.5,0-2.6-0.5-3.5-1.4s-1.3-2.2-1.3-3.9v-0.2c0-1.6,0.4-2.9,1.3-3.8c0.8-0.9,2-1.4,3.5-1.4c1.3,0,2.3,0.4,3.1,1.1
			c0.8,0.7,1.2,1.7,1.2,2.9h-2.6c0-0.5-0.2-1-0.5-1.3c-0.3-0.3-0.7-0.5-1.3-0.5c-0.6,0-1.1,0.2-1.5,0.7c-0.3,0.5-0.5,1.2-0.5,2.3
			v0.3c0,1.1,0.2,1.8,0.5,2.3C841.5,427.9,842,428.2,842.7,428.2z"/>
		<path d="M852.8,428.2c0.5,0,0.9-0.1,1.2-0.4c0.3-0.3,0.5-0.7,0.5-1.1h2.6c0,0.7-0.2,1.3-0.6,1.9s-0.9,1-1.5,1.4s-1.4,0.5-2.2,0.5
			c-1.5,0-2.6-0.5-3.5-1.4s-1.3-2.2-1.3-3.9v-0.2c0-1.6,0.4-2.9,1.3-3.8c0.8-0.9,2-1.4,3.5-1.4c1.3,0,2.3,0.4,3.1,1.1
			c0.8,0.7,1.2,1.7,1.2,2.9h-2.6c0-0.5-0.2-1-0.5-1.3c-0.3-0.3-0.7-0.5-1.3-0.5c-0.6,0-1.1,0.2-1.5,0.7c-0.3,0.5-0.5,1.2-0.5,2.3
			v0.3c0,1.1,0.2,1.8,0.5,2.3C851.7,427.9,852.2,428.2,852.8,428.2z"/>
		<path d="M858.7,417.2c0-0.4,0.1-0.8,0.4-1c0.3-0.3,0.7-0.4,1.1-0.4c0.5,0,0.8,0.1,1.1,0.4c0.3,0.3,0.4,0.6,0.4,1
			c0,0.4-0.1,0.8-0.4,1s-0.7,0.4-1.1,0.4s-0.8-0.1-1.1-0.4S858.7,417.6,858.7,417.2z M861.6,430.2h-2.8v-10.3h2.8V430.2z"/>
		<path d="M863.5,424.9c0-1,0.2-1.9,0.6-2.7c0.4-0.8,1-1.4,1.7-1.9c0.7-0.4,1.6-0.7,2.6-0.7c1.4,0,2.5,0.4,3.4,1.3s1.4,2,1.5,3.5
			l0,0.7c0,1.6-0.4,2.8-1.3,3.8c-0.9,1-2.1,1.4-3.5,1.4c-1.5,0-2.7-0.5-3.6-1.4s-1.3-2.2-1.3-3.9V424.9z M866.2,425.1
			c0,1,0.2,1.7,0.6,2.2c0.4,0.5,0.9,0.8,1.6,0.8c0.7,0,1.2-0.3,1.6-0.8c0.4-0.5,0.6-1.3,0.6-2.5c0-1-0.2-1.7-0.6-2.2
			c-0.4-0.5-0.9-0.8-1.6-0.8c-0.7,0-1.2,0.3-1.6,0.8C866.4,423.2,866.2,424,866.2,425.1z"/>
		<path d="M877.4,419.9l0.1,1.2c0.7-0.9,1.7-1.4,3-1.4c1.1,0,1.9,0.3,2.4,1c0.5,0.6,0.8,1.6,0.8,2.9v6.6H881v-6.6
			c0-0.6-0.1-1-0.4-1.3c-0.3-0.3-0.7-0.4-1.3-0.4c-0.8,0-1.4,0.3-1.7,1v7.3h-2.7v-10.3H877.4z"/>
		<path d="M890.5,430.4c-1.5,0-2.7-0.5-3.7-1.4s-1.4-2.2-1.4-3.7V425c0-1,0.2-2,0.6-2.8s1-1.4,1.7-1.9c0.7-0.4,1.6-0.7,2.5-0.7
			c1.4,0,2.5,0.4,3.3,1.3s1.2,2.1,1.2,3.8v1.1h-6.6c0.1,0.7,0.4,1.2,0.8,1.6c0.4,0.4,1,0.6,1.7,0.6c1.1,0,1.9-0.4,2.5-1.2l1.4,1.5
			c-0.4,0.6-1,1-1.7,1.4C892.2,430.2,891.4,430.4,890.5,430.4z M890.2,421.9c-0.5,0-1,0.2-1.3,0.6c-0.3,0.4-0.6,0.9-0.7,1.6h3.8
			v-0.2c0-0.6-0.2-1.1-0.5-1.4C891.3,422.1,890.8,421.9,890.2,421.9z"/>
		<path d="M901.9,427.3c0-0.3-0.2-0.6-0.5-0.8c-0.3-0.2-0.9-0.4-1.6-0.5c-2.4-0.5-3.7-1.6-3.7-3.1c0-0.9,0.4-1.7,1.1-2.3
			c0.8-0.6,1.7-0.9,3-0.9c1.3,0,2.4,0.3,3.1,0.9c0.8,0.6,1.2,1.4,1.2,2.4h-2.7c0-0.4-0.1-0.7-0.4-1c-0.3-0.3-0.6-0.4-1.2-0.4
			c-0.5,0-0.8,0.1-1.1,0.3c-0.3,0.2-0.4,0.5-0.4,0.8c0,0.3,0.1,0.5,0.4,0.7c0.3,0.2,0.8,0.3,1.5,0.5c0.7,0.1,1.3,0.3,1.7,0.5
			c1.5,0.5,2.2,1.5,2.2,2.8c0,0.9-0.4,1.7-1.2,2.3c-0.8,0.6-1.8,0.9-3.1,0.9c-0.9,0-1.6-0.2-2.3-0.5c-0.7-0.3-1.2-0.7-1.6-1.3
			s-0.6-1.1-0.6-1.7h2.6c0,0.5,0.2,0.9,0.5,1.1c0.3,0.3,0.8,0.4,1.4,0.4c0.5,0,0.9-0.1,1.2-0.3C901.8,427.9,901.9,427.7,901.9,427.3
			z"/>
	</g>
</g>
</svg>
