<svg xmlns="http://www.w3.org/2000/svg" width="209.151" height="199.78" viewBox="0 0 209.151 199.78">
  <g id="Grupo_151154" data-name="Grupo 151154" transform="translate(-3711 11538)">
    <path id="Trazado_192785" data-name="Trazado 192785" d="M91.15,156.47c0,55.168,46.819,99.89,104.575,99.89S300.3,211.638,300.3,156.47,253.48,56.58,195.725,56.58,91.15,101.3,91.15,156.47" transform="translate(3619.85 -11594.58)" fill="#fff"/>
    <g id="Outline" transform="translate(3761 -11496)">
      <path id="Trazado_132345" data-name="Trazado 132345" d="M281.927,133.2a1.927,1.927,0,0,0,1.927-1.927v-9.635a5.781,5.781,0,0,1,5.781-5.781h84.789a5.781,5.781,0,0,1,5.781,5.781v21.2a1.927,1.927,0,0,0,3.854,0v-21.2A9.647,9.647,0,0,0,374.424,112H289.635A9.647,9.647,0,0,0,280,121.635v9.635A1.927,1.927,0,0,0,281.927,133.2Z" transform="translate(-280 -112)" fill="#23394c"/>
      <path id="Trazado_132346" data-name="Trazado 132346" d="M291.562,264.176H313.5l-3.854,7.708h-6.517a5.781,5.781,0,0,0-5.781,5.781v3.854a1.927,1.927,0,0,0,1.927,1.927h15.416a1.927,1.927,0,1,0,0-3.854H301.2v-1.927a1.927,1.927,0,0,1,1.927-1.927h57.81a1.927,1.927,0,0,1,1.927,1.927v1.927H322.394a1.927,1.927,0,1,0,0,3.854h42.394a1.927,1.927,0,0,0,1.927-1.927v-3.854a5.781,5.781,0,0,0-5.781-5.781h-6.517l-3.854-7.708h23.86a9.647,9.647,0,0,0,9.635-9.635V229.489a1.927,1.927,0,0,0-3.854,0V254.54a5.781,5.781,0,0,1-5.781,5.781H291.562a7.708,7.708,0,0,1-7.708-7.708V217.927a1.927,1.927,0,1,0-3.854,0v34.686A11.573,11.573,0,0,0,291.562,264.176Zm54.692,0,3.854,7.708H313.95l3.854-7.708Z" transform="translate(-280 -190.949)" fill="#23394c"/>
      <path id="Trazado_132347" data-name="Trazado 132347" d="M348.7,187a1.927,1.927,0,0,0,2.437,1.22h0l5.781-1.927a1.927,1.927,0,0,0,1.22-2.437h0l-1.927-5.781a1.929,1.929,0,1,0-3.661,1.218l.426,1.28-4.374-2.919V163.272a1.928,1.928,0,0,0-1.066-1.725l-10.5-5.247V150.58l.565.565a1.927,1.927,0,0,0,2.725-2.725l-3.854-3.854a1.927,1.927,0,0,0-2.725,0l-3.854,3.854a1.927,1.927,0,0,0,2.725,2.725l.565-.565V156.3l-10.5,5.247a1.927,1.927,0,0,0-1.066,1.725v14.385l-4.378,2.919.426-1.28a1.929,1.929,0,1,0-3.661-1.218h0l-1.927,5.781A1.927,1.927,0,0,0,313.3,186.3h0l5.781,1.927a1.929,1.929,0,0,0,1.218-3.661l-1.4-.466,4.785-3.189,10.566,5.3a1.927,1.927,0,0,0,1.723,0l10.562-5.282,4.785,3.189-1.4.466A1.927,1.927,0,0,0,348.7,187ZM335.109,166.9l-7.253-3.627,7.253-3.627,7.253,3.627Zm-9.635-.509,7.708,3.854v11.107l-7.708-3.854Zm11.562,14.961V170.243l7.708-3.854V177.5Z" transform="translate(-304.277 -136.294)" fill="#23394c"/>
      <path id="Trazado_132348" data-name="Trazado 132348" d="M527.441,217.241a1.977,1.977,0,0,0-2.012,1.838,1.927,1.927,0,0,0,1.838,2.012h0c.726.033,1.453.05,2.176.05a45.394,45.394,0,0,0,15.994-2.875,1.927,1.927,0,0,0,1.249-1.806V210.68a9.647,9.647,0,0,0-9.635-9.635v-1.062a11.429,11.429,0,0,0,3.854-8.573v-3.44a11.876,11.876,0,0,0-10.433-11.922,11.562,11.562,0,0,0-12.636,10.378c-.037.375-.055.753-.055,1.13v3.854a11.428,11.428,0,0,0,3.854,8.573v1.062A9.647,9.647,0,0,0,512,210.68v5.781a1.927,1.927,0,0,0,1.249,1.8,45.9,45.9,0,0,0,6.039,1.757,1.928,1.928,0,1,0,.848-3.762h0c-1.582-.355-2.993-.738-4.282-1.156V210.68a5.781,5.781,0,0,1,5.781-5.781h1.927a1.927,1.927,0,0,0,1.927-1.927v-3.9a1.927,1.927,0,0,0-.771-1.542,7.639,7.639,0,0,1-3.083-6.124v-3.854a7.717,7.717,0,0,1,2.526-5.7,7.629,7.629,0,0,1,5.953-1.968,8,8,0,0,1,6.937,8.094v3.432a7.638,7.638,0,0,1-3.083,6.128,1.927,1.927,0,0,0-.771,1.542v3.893a1.927,1.927,0,0,0,1.927,1.927h1.927a5.781,5.781,0,0,1,5.781,5.781v4.432A41.832,41.832,0,0,1,527.441,217.241Z" transform="translate(-456.117 -160.577)" fill="#23394c"/>
      <path id="Trazado_132349" data-name="Trazado 132349" d="M495.041,198.7a1.928,1.928,0,0,0,2.409-3.01h0a10.267,10.267,0,0,1-3.131-11.965,1.927,1.927,0,0,0,3.854-.019h0v-5.781a1.927,1.927,0,0,0-2.536-1.829l-5.781,1.927a1.927,1.927,0,0,0,1.106,3.661,14.235,14.235,0,0,0,4.08,17.006Z" transform="translate(-438.436 -160.583)" fill="#23394c"/>
      <path id="Trazado_132350" data-name="Trazado 132350" d="M649.533,194.659a1.912,1.912,0,0,0-2.324-1.233,14.243,14.243,0,0,0-4.08-17.006,1.928,1.928,0,0,0-2.409,3.01,10.267,10.267,0,0,1,3.131,11.965,1.927,1.927,0,0,0-3.854.019V197.2a1.928,1.928,0,0,0,2.536,1.829l5.781-1.927A1.927,1.927,0,0,0,649.533,194.659Z" transform="translate(-553.283 -160.582)" fill="#23394c"/>
      <path id="Trazado_132351" data-name="Trazado 132351" d="M385.051,337.927A1.927,1.927,0,0,0,383.124,336h-21.2a1.927,1.927,0,0,0,0,3.854h21.2A1.927,1.927,0,0,0,385.051,337.927Z" transform="translate(-340.73 -282.044)" fill="#23394c"/>
      <path id="Trazado_132352" data-name="Trazado 132352" d="M361.927,368a1.927,1.927,0,0,0,0,3.854h13.489a1.927,1.927,0,0,0,0-3.854Z" transform="translate(-340.73 -306.336)" fill="#23394c"/>
      <path id="Trazado_132353" data-name="Trazado 132353" d="M602.2,421.4a5.781,5.781,0,0,0-10.6-1.393l-11.52,19.956H561.927A1.927,1.927,0,0,0,560,441.89v15.416a1.927,1.927,0,0,0,1.927,1.927H598.54a1.927,1.927,0,0,0,1.927-1.927V441.89a1.927,1.927,0,0,0-1.927-1.927h-5.1l8.188-14.175A5.753,5.753,0,0,0,602.2,421.4Zm-38.348,33.979V443.817h5.781v11.562Zm32.759-11.562v11.562H573.489V443.817h5.4l.385,5.9a1.927,1.927,0,0,0,1.927,1.8,1.9,1.9,0,0,0,.854-.193l6.228-3.083a1.928,1.928,0,0,0,.815-.771l2.123-3.661Zm1.667-19.956-12.233,21.2-3.114,1.542-.224-3.469,12.235-21.2a1.927,1.927,0,1,1,3.394,1.826c-.018.034-.038.068-.058.1Z" transform="translate(-492.555 -343.612)" fill="#23394c"/>
      <path id="Trazado_132354" data-name="Trazado 132354" d="M335.883,512H281.927A1.927,1.927,0,0,0,280,513.927v15.416a1.927,1.927,0,0,0,1.927,1.927h53.956a1.927,1.927,0,0,0,1.927-1.927V513.927A1.927,1.927,0,0,0,335.883,512Zm-1.927,7.708H330.1v-3.854h3.854Zm-7.708,0h-3.854v-3.854h3.854Zm-7.708,0h-3.854v-3.854h3.854Zm-7.708,0h-3.854v-3.854h3.854Zm-7.708,0H299.27v-3.854h3.854Zm-7.708,0h-3.854v-3.854h3.854Zm-11.562-3.854h3.854v3.854h-3.854Zm0,7.708h3.854v3.854h-3.854Zm7.708,0h3.854v3.854h-3.854Zm7.708,0h19.27v3.854H299.27Zm23.124,0h3.854v3.854h-3.854Zm11.562,3.854H330.1v-3.854h3.854Z" transform="translate(-280 -415.649)" fill="#23394c"/>
    </g>
  </g>
</svg>
