<svg id="Grupo_147497" data-name="Grupo 147497" xmlns="http://www.w3.org/2000/svg" xmlns:xlink="http://www.w3.org/1999/xlink" width="122.455" height="122.455" viewBox="0 0 122.455 122.455">
  <defs>
    <radialGradient id="radial-gradient" cx="0.076" cy="0.019" r="1.465" gradientTransform="translate(0.001)" gradientUnits="objectBoundingBox">
      <stop offset="0" stop-color="#f6f6f7"/>
      <stop offset="0.477" stop-color="#f9f9fa"/>
      <stop offset="0.715" stop-color="#fff"/>
    </radialGradient>
  </defs>
  <g id="Grupo_42274" data-name="Grupo 42274">
    <g id="Grupo_18423" data-name="Grupo 18423" transform="translate(0 0)">
      <g id="Grupo_18421" data-name="Grupo 18421">
        <g id="Grupo_18420" data-name="Grupo 18420">
          <g id="Grupo_18419" data-name="Grupo 18419">
            <path id="Trazado_40936" data-name="Trazado 40936" d="M317.078,2206.947a61.228,61.228,0,1,1-61.227-61.226A61.227,61.227,0,0,1,317.078,2206.947Z" transform="translate(-194.623 -2145.721)" fill="#fff"/>
          </g>
        </g>
      </g>
      <path id="Trazado_40937" data-name="Trazado 40937" d="M316.368,2206.173a61.226,61.226,0,1,0-61.227,61.229A60.985,60.985,0,0,0,316.368,2206.173Z" transform="translate(-193.913 -2144.947)" fill="url(#radial-gradient)"/>
      <path id="Trazado_40938" data-name="Trazado 40938" d="M295.565,2199.888a46.735,46.735,0,1,0-46.735,46.735A46.561,46.561,0,0,0,295.565,2199.888Z" transform="translate(-187.417 -2138.458)" fill="none" stroke="#6bbcb1" stroke-miterlimit="10" stroke-width="4"/>
      <g id="Grupo_18422" data-name="Grupo 18422" transform="translate(10.847 34.375)">
        <path id="Trazado_40939" data-name="Trazado 40939" d="M305.962,2164.488a61.235,61.235,0,0,1-105.417,60.974,61.04,61.04,0,0,0,105.417-60.974Z" transform="translate(-200.545 -2164.488)" fill="#eceef0"/>
      </g>
    </g>
  </g>
  <g id="_8GEscc" data-name="8GEscc" transform="translate(-785.014 7536.86)">
    <g id="Grupo_147509" data-name="Grupo 147509" transform="translate(812.508 -7501.633)">
      <path id="Trazado_191288" data-name="Trazado 191288" d="M883.629-7472.3c-.411.578-.786,1.186-1.237,1.73q-6.82,8.227-13.662,16.438a1.539,1.539,0,0,1-2.495.232c-1.028-.849-2.046-1.71-3.08-2.551a.753.753,0,0,1-.3-.651c0-.956-.045-1.912-.046-2.868,0-1.33.014-2.661.037-3.991a.756.756,0,0,1,.169-.392c.5-.672.992-1.344,1.509-2a.422.422,0,0,0,.028-.567,9.411,9.411,0,0,1-1.464-4.566,19.438,19.438,0,0,1,.18-2.647c.023-.23.012-.373-.187-.508-.342-.234-.666-.495-1.067-.8-.13.721-.249,1.375-.365,2.029-.43,2.412-.864,4.823-1.281,7.237-.045.262-.129.366-.4.361-.873-.015-1.747-.005-2.671-.005.109-.63.178-1.27.34-1.885a.954.954,0,0,0-.469-1.21A9.388,9.388,0,0,1,853-7475.28c-.042-.25-.188-.288-.384-.322q-3.46-.606-6.918-1.217-9.522-1.685-19.043-3.379a.588.588,0,0,0-.669.272,9.963,9.963,0,0,1-6.732,4.2c-.093.013-.187.026-.281.035-.845.078-.851.077-1,.929q-.586,3.279-1.163,6.561c-.034.189-.056.345.169.472a9.709,9.709,0,0,1,4.738,6.4.765.765,0,0,0,.726.667q7.877,1.368,15.748,2.768c.62.109.612.107.64.749.03.7.08,1.39.115,2.085.016.31-.172.3-.4.258-1.192-.216-2.385-.424-3.578-.635l-16.737-2.963c-1.511-.267-3.02-.545-4.533-.8a1.534,1.534,0,0,1-1.182-1.132v-.808a1.5,1.5,0,0,0,.076-.222q.81-4.529,1.615-9.059,1.156-6.538,2.3-13.078a1.186,1.186,0,0,1,.839-1.039,2.8,2.8,0,0,1,1.146-.093c1.528.239,3.05.519,4.569.807a.609.609,0,0,0,.709-.262q4.175-5.552,8.374-11.085c.706-.934,1.407-1.873,2.122-2.8a1.5,1.5,0,0,1,2.39-.325q1.32,1,2.642,2c.9.679,1.8,1.355,2.723,2.048.108-.122.2-.218.282-.319,1.74-2.089,3.486-4.175,5.215-6.274a2.011,2.011,0,0,1,1.124-.786h.162a6.444,6.444,0,0,1,1.276.643c2.761,2.259,5.5,4.549,8.241,6.829q12.286,10.209,24.567,20.425a6.71,6.71,0,0,1,.749.874Zm-20.113,12.216.05.12a1.919,1.919,0,0,0,.334-.083c.466-.209.921-.446,1.393-.641a11.567,11.567,0,0,1,5.593-.967.649.649,0,0,0,.45-.243c1.44-1.709,2.864-3.433,4.3-5.142a.724.724,0,0,0,.161-.76,10.279,10.279,0,0,1,.342-7.186.445.445,0,0,0-.16-.631q-10.8-8.964-21.589-17.948a.492.492,0,0,0-.637-.063,10.708,10.708,0,0,1-4.446,1.209,9.346,9.346,0,0,1-4.27-.808l-.647.778,12.268,9.264c1.228-1.325,2.676-1.268,4.219-.761.243-.324.475-.653.727-.967a.562.562,0,0,1,.9-.116c.283.206.569.409.839.632a.557.557,0,0,1,.1.877c-.208.292-.422.58-.594.815.448.6.883,1.125,1.262,1.692.3.449.2.735-.253,1-.279.164-.557.329-.841.482a.583.583,0,0,1-.907-.26,8.028,8.028,0,0,0-.549-.845,3.2,3.2,0,0,0-1.795-1.233.685.685,0,0,0-.853.375c.947.715,1.869,1.414,2.792,2.11q4.6,3.466,9.191,6.933a1.453,1.453,0,0,1,.307,2.187q-2.729,3.609-5.461,7.215Q864.631-7461.562,863.515-7460.079Zm-4.311-17.376.031-.073c-.122-.1-.241-.2-.365-.293q-8.881-6.708-17.758-13.421a.708.708,0,0,0-.767-.1,9.543,9.543,0,0,1-6.982,0,.379.379,0,0,0-.533.146q-2.875,3.828-5.769,7.642c-.078.1-.147.214-.255.372l14.6,2.582c.025-.132.044-.221.058-.312a2.689,2.689,0,0,1,1.526-2.1,3.779,3.779,0,0,1,2.114-.4.427.427,0,0,0,.544-.363,5.8,5.8,0,0,1,.291-.752.573.573,0,0,1,.839-.368c.341.125.682.252,1.012.4a.55.55,0,0,1,.318.793c-.125.338-.26.671-.4,1.023.167.1.311.172.439.266.422.31.86.6,1.252.948.427.375.414.655.03,1.058-.186.195-.376.386-.566.577-.472.473-.671.473-1.141.011a3.794,3.794,0,0,0-1.781-1.139,4.1,4.1,0,0,0-1.34,0,.492.492,0,0,0-.411.565c.013.334.264.323.485.363l12.957,2.306C858.157-7477.63,858.681-7477.544,859.2-7477.455Z" transform="translate(-812.508 7501.633)" fill="#12263f"/>
      <path id="Trazado_191289" data-name="Trazado 191289" d="M1152.508-6912.879v-3.284l21.738-.343v3.267c-.206,0-.417,0-.629,0q-10.174.154-20.348.311c-.146,0-.292.032-.438.048Z" transform="translate(-1125.03 6963.795)" fill="#12263f"/>
      <path id="Trazado_191290" data-name="Trazado 191290" d="M1152.026-6977.093v-3.25l21.766-.342v3.258Z" transform="translate(-1124.586 7022.788)" fill="#12263f"/>
      <path id="Trazado_191291" data-name="Trazado 191291" d="M1151.686-7044.367l21.75-.335v3.214a2.051,2.051,0,0,1-.268.036q-10.564.168-21.127.332c-.19,0-.386.037-.387-.261,0-.943-.016-1.886-.023-2.828A.661.661,0,0,1,1151.686-7044.367Z" transform="translate(-1124.223 7081.631)" fill="#12263f"/>
      <path id="Trazado_191292" data-name="Trazado 191292" d="M1042.791-7191.443c.646.374,1.261.7,1.845,1.078.47.3.487.55.157,1q-.249.343-.5.684c-.351.474-.615.518-1.079.163a3.967,3.967,0,0,0-1.99-.919,2.741,2.741,0,0,0-1.239.2.572.572,0,0,0-.22.989,10.623,10.623,0,0,0,1.305,1.188c.442.351.945.623,1.389.971a3.226,3.226,0,0,1,1.261,3.541,3.2,3.2,0,0,1-2.821,2.425c-.9.159-.9.145-1.117,1.07-.176.76-.326.854-1.1.687-.237-.051-.474-.1-.71-.155-.484-.112-.622-.319-.528-.816.067-.354.155-.7.226-1.026-.629-.334-1.262-.607-1.827-.983-1.031-.688-.944-.855-.329-1.711.657-.913.706-.929,1.591-.274a3.883,3.883,0,0,0,2.6.949c.519-.035,1.072-.111,1.29-.661s-.135-.993-.523-1.337c-.35-.31-.771-.538-1.141-.828a12.272,12.272,0,0,1-1.733-1.436,2.971,2.971,0,0,1,1.643-4.941c.313-.072.641-.082.952-.16a.5.5,0,0,0,.313-.263c.107-.3.154-.626.237-.937a.563.563,0,0,1,.749-.472c.343.069.684.149,1.024.232a.567.567,0,0,1,.489.741C1042.946-7192.1,1042.859-7191.758,1042.791-7191.443Z" transform="translate(-1017.073 7218.345)" fill="#12263f"/>
    </g>
  </g>
</svg>
