<svg xmlns="http://www.w3.org/2000/svg" width="209.151" height="199.78" viewBox="0 0 209.151 199.78">
  <g id="Grupo_151155" data-name="Grupo 151155" transform="translate(-3291 11538)">
    <path id="Trazado_192782" data-name="Trazado 192782" d="M91.15,156.47c0,55.168,46.819,99.89,104.575,99.89S300.3,211.638,300.3,156.47,253.48,56.58,195.725,56.58,91.15,101.3,91.15,156.47" transform="translate(3199.85 -11594.58)" fill="#fff"/>
    <g id="SIzShh" transform="translate(1496.078 -13212.135)">
      <g id="Grupo_146070" data-name="Grupo 146070" transform="translate(1832.922 1708.135)">
        <path id="Trazado_189689" data-name="Trazado 189689" d="M1968.878,1737.12c2.386,1.575,4.815,2.71,6.614,4.484,2.2,2.167,3.865,4.87,5.761,7.341,4.65,6.053,4.155,10.205-1.795,14.86q-19.015,14.879-38.04,29.746c-9.161,7.165-18.285,14.379-27.512,21.459a15.6,15.6,0,0,1-5.445,2.729c-7.029,1.8-14.124,3.338-21.2,4.964a17,17,0,0,1-2.452.441c-3.008.236-4.8-1.819-3.513-4.477,3.881-8.03,7.794-16.062,12.177-23.821,1.284-2.273,4.136-3.689,6.338-5.411q31.034-24.287,62.125-48.5C1963.826,1739.472,1966.161,1738.591,1968.878,1737.12Zm-64.36,70.2c3.3-2.571,6.651-5.179,9.995-7.8,11.616-9.092,23.2-18.22,34.895-27.216.892-.687,3.051-1.061,3.667-.512,1.6,1.431-.1,2.476-1.158,3.425-.385.346-.816.643-1.224.963q-20.738,16.232-41.488,32.448c-1.474,1.149-2.59,2.416-1.2,4.116,1.52,1.862,2.576-.137,3.558-.9q18.59-14.423,37.1-28.945c4.8-3.752,9.594-7.512,14.49-11.347l-12.9-16.513c-3.421,2.662-6.53,5.071-9.627,7.494q-21.239,16.6-42.432,33.263c-.72.569-1.455,2.25-1.134,2.792.89,1.5,2.338,1.421,3.615.122a12.034,12.034,0,0,1,1.222-.965c13.74-10.761,27.458-21.55,41.269-32.217.879-.679,3.038-1.027,3.645-.476,1.595,1.448-.12,2.473-1.18,3.415-.387.345-.806.655-1.215.976q-20.246,15.847-40.493,31.694C1900.537,1803.794,1900.592,1804.639,1904.518,1807.318ZM1962,1745.9l12.844,16.406c.971-.719,1.729-1.244,2.446-1.819,3.811-3.061,4.03-4.965,1.048-8.855-1.7-2.222-3.4-4.452-5.11-6.67-2.966-3.845-4.939-4.077-8.814-1.039C1963.685,1744.494,1962.979,1745.1,1962,1745.9Zm9.762,18.906-12.924-16.538-5.438,4.372,12.861,16.47Zm-77.159,36.157c-1.832,3.584-3.2,6.144-4.456,8.754-1.017,2.11,2.625,7.378,4.947,7,3.025-.487,5.994-1.316,10.041-2.238-1.678-1.915-2.837-3.18-3.928-4.5-1.111-1.342-2.188-2.715-3.219-4.119C1896.977,1804.485,1896.042,1803.052,1894.6,1800.961Z" transform="translate(-1850.96 -1719.036)" fill="#23394c"/>
        <path id="Trazado_189690" data-name="Trazado 189690" d="M1874.928,1854.761c4.187-.217,7.489-.06,10.977,1.686,21.124,10.572,42.094,9.865,61.744-3.254,19.984-13.342,28.582-32.751,26.949-56.691a14.246,14.246,0,0,0-.647-4.3c-1.313-3.254.35-4.81,2.974-5.994,6.09,18.981,1.714,49.315-23.265,68.439C1929.615,1873.06,1896.676,1871.652,1874.928,1854.761Z" transform="translate(-1848.721 -1737.501)" fill="#23394c"/>
        <path id="Trazado_189691" data-name="Trazado 189691" d="M1879.527,1754.119c6.333-9.37,12.421-18.376,18.509-27.383.581-.86,1.124-1.747,1.743-2.579,2.318-3.122,6.1-3.912,9.015-1.908a6.418,6.418,0,0,1,1.582,9.095c-5.621,8.474-11.355,16.873-17.044,25.3-2.786,4.128-5.546,8.275-8.366,12.381-2.924,4.257-7.073,4.367-10.187.24q-5.347-7.081-10.561-14.264c-2.547-3.514-2.115-7.451.934-9.637,3.131-2.245,6.73-1.462,9.45,2.1C1876.173,1749.526,1877.687,1751.629,1879.527,1754.119Zm.151,6.822c-2.9-3.912-5.491-7.4-8.067-10.9-1.064-1.446-2.341-2.683-4.126-1.408-1.815,1.3-1.02,2.824.087,4.3,3.366,4.478,6.649,9.016,10.008,13.5,1.975,2.635,2.61,2.608,4.5-.188q10.3-15.2,20.55-30.423a56.785,56.785,0,0,0,4.241-6.5c.477-.971-.173-2.494-.31-3.767a29.167,29.167,0,0,0-3.687,1.117c-.479.21-.709.986-1.057,1.5C1894.517,1738.975,1887.213,1749.788,1879.679,1760.94Z" transform="translate(-1844.067 -1713.029)" fill="#23394c"/>
        <path id="Trazado_189692" data-name="Trazado 189692" d="M1895.022,1763.441c0,6.4.164,12.285-.063,18.153-.132,3.4-3.122,5.9-6.882,5.934q-15.111.15-30.224-.009c-4.5-.05-7.1-2.823-7.122-7.3q-.067-14.956,0-29.913c.022-4.371,2.511-7.157,6.841-7.241,8.293-.161,16.591-.047,25.185-.047-.849,2.689-1.952,4.182-4.984,4.078-6.432-.221-12.877-.009-19.316-.09-2.809-.035-3.938,1.237-3.928,3.948q.054,14.333,0,28.667c-.011,2.749,1.212,3.932,3.972,3.915,9.556-.058,19.112-.071,28.666.011,2.957.025,4.169-1.3,4.1-4.134-.05-2.076.183-4.178-.055-6.227C1890.784,1769.493,1891.933,1766.477,1895.022,1763.441Z" transform="translate(-1839.606 -1721.239)" fill="#23394c"/>
        <path id="Trazado_189693" data-name="Trazado 189693" d="M1955.769,1726.685l-3.409,2.665c-7.275-6.686-15.349-11.662-24.711-14.261-19.186-5.327-37.045-2.409-53.169,9.361-3.024,2.207-5.863,3.194-9.4,2.6C1884.115,1704.947,1928.024,1699.03,1955.769,1726.685Z" transform="translate(-1845.017 -1708.135)" fill="#23394c"/>
        <path id="Trazado_189694" data-name="Trazado 189694" d="M1881.611,1820.49c-2.1,3.258-4.687,4.108-8.075,3.91-4.868-.285-9.766-.094-14.65-.067-3.447.02-4.322.93-4.33,4.5q-.027,13.876,0,27.75c.008,3.492.926,4.411,4.45,4.421q13.563.04,27.127,0c4.323-.006,4.923-.617,5.146-5.046.02-.4.113-.8.2-1.386l3.276-.736c1.54,7.416-1.8,11.4-9.058,11.108-9.028-.367-18.082-.066-27.124-.093-5.36-.015-7.826-2.477-7.84-7.816q-.037-14.5,0-29c.017-5.012,2.472-7.513,7.437-7.543C1865.858,1820.456,1873.543,1820.49,1881.611,1820.49Z" transform="translate(-1839.613 -1750.389)" fill="#23394c"/>
        <path id="Trazado_189695" data-name="Trazado 189695" d="M1840.3,1824.417c-9.918-20.265-9.809-40.531.176-60.8l.949.019c-.251,3.712.182,7.633-.875,11.1a64.441,64.441,0,0,0,.085,39.141c1.019,3.244.578,6.945.807,10.436Z" transform="translate(-1832.922 -1729.003)" fill="#23394c"/>
      </g>
    </g>
  </g>
</svg>
