<svg xmlns="http://www.w3.org/2000/svg" width="209.151" height="199.78" viewBox="0 0 209.151 199.78">
  <g id="Grupo_151156" data-name="Grupo 151156" transform="translate(-2871 11538)">
    <path id="Trazado_192783" data-name="Trazado 192783" d="M91.15,156.47c0,55.168,46.819,99.89,104.575,99.89S300.3,211.638,300.3,156.47,253.48,56.58,195.725,56.58,91.15,101.3,91.15,156.47" transform="translate(2779.85 -11594.58)" fill="#fff"/>
    <g id="Grupo_151153" data-name="Grupo 151153" transform="translate(1756.131 -13508.363)">
      <rect id="Rectángulo_9017" data-name="Rectángulo 9017" width="4.07" height="7.777" transform="translate(1173.187 2024.861)" fill="#23394c"/>
      <rect id="Rectángulo_9018" data-name="Rectángulo 9018" width="4.07" height="7.777" transform="translate(1173.187 2040.415)" fill="#23394c"/>
      <rect id="Rectángulo_9019" data-name="Rectángulo 9019" width="8.142" height="3.888" transform="translate(1163.01 2034.582)" fill="#23394c"/>
      <rect id="Rectángulo_9020" data-name="Rectángulo 9020" width="8.142" height="3.888" transform="translate(1179.293 2034.582)" fill="#23394c"/>
      <rect id="Rectángulo_9021" data-name="Rectángulo 9021" width="4.07" height="3.888" transform="translate(1268.849 2050.136)" fill="#23394c"/>
      <rect id="Rectángulo_9022" data-name="Rectángulo 9022" width="4.07" height="3.888" transform="translate(1268.849 2042.359)" fill="#23394c"/>
      <rect id="Rectángulo_9023" data-name="Rectángulo 9023" width="4.07" height="3.888" transform="translate(1264.777 2046.248)" fill="#23394c"/>
      <rect id="Rectángulo_9024" data-name="Rectángulo 9024" width="4.07" height="3.888" transform="translate(1272.919 2046.248)" fill="#23394c"/>
      <path id="Trazado_139155" data-name="Trazado 139155" d="M0,0,4.51.082l.073,3.925L.073,3.925Z" transform="translate(1263.866 2065.895) rotate(-26.565)" fill="#23394c"/>
      <path id="Trazado_139156" data-name="Trazado 139156" d="M0,0,3.924.073l.082,4.51L.082,4.51Z" transform="matrix(0.447, -0.894, 0.894, 0.447, 1168.206, 2069.372)" fill="#23394c"/>
      <path id="Trazado_139151" data-name="Trazado 139151" d="M212.9,159.79l-2.88-2.753a2.523,2.523,0,0,0,0-3.694,2.885,2.885,0,0,0-3.867,0l-2.882-2.751a7.21,7.21,0,0,1,9.625,0,6.3,6.3,0,0,1,0,9.194Z" transform="translate(1029.533 1913.107)" fill="#23394c"/>
      <path id="Trazado_139152" data-name="Trazado 139152" d="M252.984,102.032h-6.107v3.889h6.107a1.991,1.991,0,0,1,2.035,1.944v56.381H233.277a13.217,13.217,0,0,0-5.292-17.342,15,15,0,0,0-2.7-13.361,16.537,16.537,0,0,0-12.674-6.217,20.728,20.728,0,0,0-37.3,0,16.538,16.538,0,0,0-12.675,6.216,15,15,0,0,0-2.7,13.362,13.217,13.217,0,0,0-5.292,17.342H132.9V107.865a1.991,1.991,0,0,1,2.035-1.944h6.107v-3.889h-6.107a5.974,5.974,0,0,0-6.106,5.833v77.767a5.974,5.974,0,0,0,6.106,5.833h42.743v9.72a5.974,5.974,0,0,1-6.106,5.833H161.393v11.665h65.131V207.018H216.348a5.975,5.975,0,0,1-6.107-5.833v-9.72h42.743a5.974,5.974,0,0,0,6.105-5.833V107.865a5.974,5.974,0,0,0-6.105-5.833M167.5,148.693V144.8a14.729,14.729,0,0,0-3.8.508,11.3,11.3,0,0,1,1.969-9.135,12.354,12.354,0,0,1,8.33-4.863,18.553,18.553,0,0,0-.391,3.769h4.07c0-8.59,7.29-15.553,16.283-15.553s16.282,6.963,16.282,15.553h4.07a18.589,18.589,0,0,0-.391-3.773,12.365,12.365,0,0,1,8.329,4.864,11.3,11.3,0,0,1,1.97,9.133,14.773,14.773,0,0,0-3.8-.5v3.889a9.968,9.968,0,0,1,10.177,9.72,9.311,9.311,0,0,1-2.107,5.833H159.429a9.311,9.311,0,0,1-2.107-5.833,9.968,9.968,0,0,1,10.177-9.72m54.955,66.1h-56.99v-3.888h56.99Zm-28.495-11.584a5.973,5.973,0,0,0,6.106-5.832v-5.914h6.107v9.72a9.349,9.349,0,0,0,2.088,5.833h-28.6a9.356,9.356,0,0,0,2.089-5.833v-9.72h6.105v5.914a5.974,5.974,0,0,0,6.107,5.832m-2.036-5.832v-5.914h4.071v5.914a2.038,2.038,0,0,1-4.071,0m63.1-11.747a1.991,1.991,0,0,1-2.035,1.944H134.933a1.991,1.991,0,0,1-2.035-1.944v-17.5H255.019Z" transform="translate(1026.042 1913.107)" fill="#23394c"/>
      <path id="Trazado_139153" data-name="Trazado 139153" d="M197.42,172.023H185.208v11.665H197.42Zm-4.071,7.777h-4.07v-3.888h4.07Z" transform="translate(1028.686 1913.107)" fill="#23394c"/>
      <path id="Trazado_139154" data-name="Trazado 139154" d="M177.166,157.039a4.738,4.738,0,0,1,0-6.916,5.293,5.293,0,0,1,7.24,0l2.878-2.749a9.152,9.152,0,0,0-3.328-2.006,8.092,8.092,0,0,1,8.722-6.279,7.932,7.932,0,0,1,7.415,7.66h4.07A11.9,11.9,0,0,0,192.929,135.2a12.116,12.116,0,0,0-13.019,9.684,9.3,9.3,0,0,0-5.622,2.486,8.515,8.515,0,0,0,0,12.414Z" transform="translate(1028.048 1913.107)" fill="#23394c"/>
      <rect id="Rectángulo_9027" data-name="Rectángulo 9027" width="4.07" height="7.777" transform="translate(1254.601 2009.309)" fill="#23394c"/>
      <rect id="Rectángulo_9028" data-name="Rectángulo 9028" width="4.07" height="7.777" transform="translate(1254.601 2024.861)" fill="#23394c"/>
      <rect id="Rectángulo_9029" data-name="Rectángulo 9029" width="8.142" height="3.888" transform="translate(1244.424 2019.029)" fill="#23394c"/>
      <rect id="Rectángulo_9030" data-name="Rectángulo 9030" width="8.142" height="3.888" transform="translate(1260.707 2019.029)" fill="#23394c"/>
      <rect id="Rectángulo_9031" data-name="Rectángulo 9031" width="4.07" height="3.888" transform="translate(1179.293 2015.141)" fill="#23394c"/>
      <rect id="Rectángulo_9032" data-name="Rectángulo 9032" width="4.07" height="3.888" transform="translate(1179.293 2007.363)" fill="#23394c"/>
      <rect id="Rectángulo_9033" data-name="Rectángulo 9033" width="4.07" height="3.888" transform="translate(1175.222 2011.252)" fill="#23394c"/>
      <rect id="Rectángulo_9034" data-name="Rectángulo 9034" width="4.07" height="3.888" transform="translate(1183.363 2011.252)" fill="#23394c"/>
      <path id="Trazado_139157" data-name="Trazado 139157" d="M0,0,11.257.258l.091,3.979L.091,3.979Z" transform="translate(1240.95 2035.15) rotate(-45)" fill="#23394c"/>
      <rect id="Rectángulo_9036" data-name="Rectángulo 9036" width="4.07" height="9.721" transform="translate(1215.93 2015.141)" fill="#23394c"/>
      <rect id="Rectángulo_9037" data-name="Rectángulo 9037" width="4.07" height="3.888" transform="translate(1215.93 2007.363)" fill="#23394c"/>
      <path id="Trazado_139158" data-name="Trazado 139158" d="M0,0,5.627.129l.091,3.98L.091,3.98Z" transform="translate(1259.269 2056.538) rotate(-45.007)" fill="#23394c"/>
      <path id="Trazado_139159" data-name="Trazado 139159" d="M0,0,3.979.091l.451,19.7L.451,19.7Z" transform="translate(1185.994 2020.404) rotate(-45.01)" fill="#23394c"/>
      <path id="Trazado_139160" data-name="Trazado 139160" d="M0,0,3.953.088,4.172,10.1.219,10.013Z" transform="translate(1167.895 2055.578) rotate(-53.124)" fill="#23394c"/>
      <path id="Trazado_139161" data-name="Trazado 139161" d="M0,0,6.176.086l.055,4.052L.055,4.052Z" transform="translate(1228.245 2024.246) rotate(-71.565)" fill="#23394c"/>
    </g>
  </g>
</svg>
