<svg id="Grupo_147496" data-name="Grupo 147496" xmlns="http://www.w3.org/2000/svg" xmlns:xlink="http://www.w3.org/1999/xlink" width="122.455" height="122.455" viewBox="0 0 122.455 122.455">
  <defs>
    <radialGradient id="radial-gradient" cx="0.076" cy="0.019" r="1.465" gradientTransform="translate(0.001)" gradientUnits="objectBoundingBox">
      <stop offset="0" stop-color="#f6f6f7"/>
      <stop offset="0.477" stop-color="#f9f9fa"/>
      <stop offset="0.715" stop-color="#fff"/>
    </radialGradient>
  </defs>
  <g id="Grupo_42274" data-name="Grupo 42274">
    <g id="Grupo_18423" data-name="Grupo 18423" transform="translate(0 0)">
      <g id="Grupo_18421" data-name="Grupo 18421">
        <g id="Grupo_18420" data-name="Grupo 18420">
          <g id="Grupo_18419" data-name="Grupo 18419">
            <path id="Trazado_40936" data-name="Trazado 40936" d="M317.078,2206.947a61.228,61.228,0,1,1-61.227-61.226A61.227,61.227,0,0,1,317.078,2206.947Z" transform="translate(-194.623 -2145.721)" fill="#fff"/>
          </g>
        </g>
      </g>
      <path id="Trazado_40937" data-name="Trazado 40937" d="M316.368,2206.173a61.226,61.226,0,1,0-61.227,61.229A60.985,60.985,0,0,0,316.368,2206.173Z" transform="translate(-193.913 -2144.947)" fill="url(#radial-gradient)"/>
      <path id="Trazado_40938" data-name="Trazado 40938" d="M295.565,2199.888a46.735,46.735,0,1,0-46.735,46.735A46.561,46.561,0,0,0,295.565,2199.888Z" transform="translate(-187.417 -2138.458)" fill="none" stroke="#6bbcb1" stroke-miterlimit="10" stroke-width="4"/>
      <g id="Grupo_18422" data-name="Grupo 18422" transform="translate(10.847 34.375)">
        <path id="Trazado_40939" data-name="Trazado 40939" d="M305.962,2164.488a61.235,61.235,0,0,1-105.417,60.974,61.04,61.04,0,0,0,105.417-60.974Z" transform="translate(-200.545 -2164.488)" fill="#eceef0"/>
      </g>
    </g>
  </g>
  <g id="vIIiWm.tif" transform="translate(-229.642 7402.496)">
    <g id="Grupo_147508" data-name="Grupo 147508" transform="translate(262.978 -7372.528)">
      <path id="Trazado_191282" data-name="Trazado 191282" d="M518.215-7352.4a1.249,1.249,0,0,1-1.328.722c-.949-.033-1.9.006-2.85-.017-.33-.008-.513.094-.577.413a.421.421,0,0,1-.053.166c-.776,1.04-.361,1.786.545,2.48a12.271,12.271,0,0,1,1.326,1.3.992.992,0,0,1,.027,1.58q-2.022,2.051-4.078,4.068a.989.989,0,0,1-1.579-.041c-.813-.8-1.611-1.621-2.4-2.422-.586.239-1.133.436-1.652.689a.626.626,0,0,0-.277.466c-.025,1.008-.008,2.017-.014,3.025-.005.844-.354,1.189-1.211,1.191q-2.764.007-5.527,0c-.851,0-1.186-.345-1.191-1.206-.006-.97-.013-1.939,0-2.909.006-.329-.058-.537-.414-.642-.529-.155-1.086-.588-1.547-.494-.445.091-.785.7-1.17,1.083-.413.411-.816.831-1.237,1.231a1.01,1.01,0,0,1-1.624-.021q-2.006-1.984-3.993-3.988a1.011,1.011,0,0,1,.013-1.623c.8-.814,1.613-1.618,2.417-2.423-.23-.563-.427-1.109-.681-1.628a.633.633,0,0,0-.469-.28c-.988-.025-1.978-.01-2.967-.013-.907,0-1.242-.328-1.245-1.211q-.007-2.763,0-5.527c0-.85.349-1.187,1.208-1.192.97,0,1.94-.012,2.909,0,.326.006.534-.048.638-.41.152-.53.589-1.086.494-1.547-.091-.445-.7-.784-1.085-1.168-.411-.412-.828-.817-1.233-1.235a1,1,0,0,1-.031-1.58q2.024-2.05,4.076-4.07a.989.989,0,0,1,1.578.032c.721.705,1.435,1.417,2.134,2.145.219.227.408.331.693.135a.929.929,0,0,1,.368-.167c1.079-.164,1.29-.842,1.175-1.811-.078-.65.012-1.318-.023-1.976a1.205,1.205,0,0,1,.721-1.267H504.6a1.3,1.3,0,0,1,.712,1.336c-.035,1.083-.01,2.167-.01,3.238.537.226,1.047.411,1.527.654a.5.5,0,0,0,.694-.146c.685-.712,1.388-1.409,2.092-2.1a1.033,1.033,0,0,1,1.706.008q1.938,1.926,3.862,3.868c.677.682.666,1.136-.027,1.831s-1.381,1.361-2.048,2.062a.628.628,0,0,0-.142.522c.188.545.435,1.07.677,1.643,1.07,0,2.155.025,3.237-.01a1.3,1.3,0,0,1,1.336.712Zm-14.9,11.613c0-1.064,0-2.087,0-3.112,0-.737.21-.988.9-1.235a22.069,22.069,0,0,0,2.154-.855c1.163-.563,1.243-.577,2.159.343.636.639,1.265,1.285,1.819,1.85l2.827-2.831c-.672-.668-1.389-1.376-2.1-2.09-.56-.563-.574-.875-.232-1.607.359-.77.685-1.557.973-2.355.282-.781.515-.988,1.349-.991,1,0,2.006,0,3.031,0v-3.966c-1.059,0-2.084,0-3.108,0a1.091,1.091,0,0,1-1.239-.895c-.278-.763-.554-1.53-.905-2.259-.484-1-.486-1.169.318-1.972.666-.665,1.333-1.328,1.912-1.9l-2.827-2.825c-.684.69-1.424,1.429-2.154,2.178a1.124,1.124,0,0,1-1.424.215c-.843-.385-1.7-.737-2.567-1.067-.647-.246-.875-.507-.881-1.191-.006-.64,0-1.28,0-1.92v-1.239h-3.966c0,.978,0,1.923,0,2.869,0,1.047-.146,1.208-1.115,1.545a19.969,19.969,0,0,0-2.139.894c-.854.414-1.121.4-1.793-.276-.694-.694-1.389-1.387-2.02-2.017l-2.8,2.821c.692.689,1.428,1.431,2.175,2.163a1.079,1.079,0,0,1,.272,1.316q-.607,1.411-1.175,2.837a1.025,1.025,0,0,1-1.009.726c-.31,0-.621,0-.931,0h-2.346v3.966c1.014,0,2,0,2.983,0,.9,0,1.115.2,1.415,1.059a19.618,19.618,0,0,0,.88,2.144c.455.936.449,1.145-.291,1.885-.68.68-1.362,1.358-1.966,1.96l2.8,2.807c-.04.017-.018.014-.005,0,.717-.709,1.43-1.422,2.149-2.128a1.091,1.091,0,0,1,1.511-.226c.79.361,1.593.7,2.409,1s.995.518,1,1.4c0,.984,0,1.967,0,2.979Z" transform="translate(-458.63 7372.528)" fill="#12263f"/>
      <path id="Trazado_191283" data-name="Trazado 191283" d="M311.641-7232.137v-24.78h1.975v.593q0,12.394,0,24.788c0,1.088-.293,1.381-1.374,1.381q-21.995,0-43.989,0a4.978,4.978,0,0,1-5.275-5.293q0-19.026,0-38.054a4.97,4.97,0,0,1,5.313-5.307c.5,0,1.009-.007,1.513,0a.98.98,0,0,1,1.105,1.114c.009,2.075,0,4.15,0,6.226v.581h15.873v1.974H270.913v.8q0,14.256,0,28.511c0,1.246-.259,1.507-1.49,1.508-.524,0-1.048-.01-1.571.007a2.958,2.958,0,0,0-2.888,2.913,3,3,0,0,0,2.79,3.023c.174.012.349.009.523.009h43.365Zm-42.756-7.925v-36.722c-2.644-.377-3.965,1.371-3.953,3.514.062,11.132.029,22.264.029,33.4v.781A5.632,5.632,0,0,1,268.886-7240.062Z" transform="translate(-262.978 7289.739)" fill="#12263f"/>
      <path id="Trazado_191284" data-name="Trazado 191284" d="M361.964-7053.731c0,.909,0,1.779,0,2.648-.006.914-.359,1.277-1.267,1.278q-5.7.006-11.4,0c-.877,0-1.247-.365-1.25-1.235q-.011-3.752,0-7.5c0-.837.372-1.2,1.22-1.2q5.73-.011,11.459,0c.877,0,1.231.369,1.238,1.246s0,1.777,0,2.7H369.9v-1.82c0-2.106.023-2.128,2.157-2.128h3.784v-5.921h1.978v5.887c.28.014.485.032.691.033,1.338,0,2.676,0,4.013,0,.93,0,1.282.341,1.285,1.253q.012,3.723,0,7.445c0,.885-.362,1.244-1.236,1.245q-5.73.007-11.459,0c-.845,0-1.2-.371-1.21-1.211-.007-.89,0-1.778,0-2.714Zm-11.9,1.9h9.874v-5.891h-9.874Zm21.846,0h9.866v-5.9h-9.866Z" transform="translate(-338.121 7101.454)" fill="#12263f"/>
      <path id="Trazado_191285" data-name="Trazado 191285" d="M361.973-7164.092H365.9v1.969h-3.931c0,.865,0,1.688,0,2.513,0,1.195-.275,1.468-1.472,1.468H349.39c-1.009,0-1.335-.317-1.336-1.312q-.006-3.665,0-7.33c0-.937.335-1.271,1.257-1.271q5.7-.005,11.4,0c.92,0,1.255.34,1.26,1.268C361.977-7165.917,361.973-7165.046,361.973-7164.092Zm-11.9,3.932h9.877v-5.879H350.07Z" transform="translate(-338.13 7191.901)" fill="#12263f"/>
      <path id="Trazado_191286" data-name="Trazado 191286" d="M561.464-7286.581a8.97,8.97,0,0,1-8.96-8.9,8.97,8.97,0,0,1,8.923-8.993,8.986,8.986,0,0,1,8.965,8.958A8.973,8.973,0,0,1,561.464-7286.581Zm-6.976-8.967a7,7,0,0,0,6.934,6.983,7.009,7.009,0,0,0,6.983-6.939,7,7,0,0,0-6.937-6.98A7,7,0,0,0,554.489-7295.548Z" transform="translate(-518.744 7312.407)" fill="#12263f"/>
      <path id="Trazado_191287" data-name="Trazado 191287" d="M599.2-7253.836a3.939,3.939,0,0,1-3.97-3.937,3.95,3.95,0,0,1,3.979-3.99,3.96,3.96,0,0,1,3.947,3.971A3.95,3.95,0,0,1,599.2-7253.836Zm-.037-1.983a1.977,1.977,0,0,0,2.011-1.965,1.99,1.99,0,0,0-1.986-2,1.977,1.977,0,0,0-1.975,1.941A1.963,1.963,0,0,0,599.167-7255.819Z" transform="translate(-556.491 7274.678)" fill="#12263f"/>
    </g>
  </g>
</svg>
