<svg xmlns="http://www.w3.org/2000/svg" width="112" height="112" viewBox="0 0 112 112">
  <g id="Grupo_151145" data-name="Grupo 151145" transform="translate(7131 6623)">
    <circle id="Elipse_5655" data-name="Elipse 5655" cx="56" cy="56" r="56" transform="translate(-7131 -6623)" fill="#d44f4a"/>
    <g id="xICAH4" transform="translate(-7100.983 -6593.853)">
      <g id="Grupo_146006" data-name="Grupo 146006">
        <path id="Trazado_189652" data-name="Trazado 189652" d="M-871.8,27.8c0-1.138,0-2.221,0-3.3q0-10.065.01-20.13a3.628,3.628,0,0,1,.026-.74,1.254,1.254,0,0,1,1.278-.954q4.422,0,8.844,0c7.181,0,14.362.009,21.544-.011a2.242,2.242,0,0,1,1.747.716c2.574,2.613,5.175,5.2,7.773,7.786a1.49,1.49,0,0,1,.481,1.126q-.012,7.518,0,15.035c0,.141,0,.281,0,.479h.385q1.875,0,3.75,0a.872.872,0,0,1,.987,1c0,2.688.014,5.377.014,8.065q0,5.022-.014,10.045c0,1.368,0,2.736,0,4.1,0,.721-.308,1.024-1.037,1.024q-1.8,0-3.608-.006h-.481c0,1.055,0,2.056,0,3.057,0,1.321,0,2.642,0,3.962a1.221,1.221,0,0,1-1.3,1.307q-7.164,0-14.327,0h-21.614c-1.038,0-2.075,0-3.113,0a1.233,1.233,0,0,1-1.341-1.338q0-3.272,0-6.545v-.422c-.146-.008-.271-.02-.395-.02-1.25,0-2.5,0-3.75,0a.873.873,0,0,1-.981-.978q0-8.4,0-16.8c0-1.827-.009-3.654-.015-5.481a.894.894,0,0,1,.99-.981q1.857,0,3.714,0Zm39.132-14.725c-.9,0-1.783.016-2.663,0a4.976,4.976,0,0,1-4.71-2.968,5.951,5.951,0,0,1-.441-2.762c.012-.692,0-1.385,0-2.091h-28.733V27.777h36.544ZM-869.219,52.06v5.725h36.547V52.06Zm37.584-14.546a3.649,3.649,0,0,0-1.855-2.567,5.8,5.8,0,0,0-3.3-.554,4.687,4.687,0,0,0-4.283,3.062,6.515,6.515,0,0,0-.022,4.826,4.591,4.591,0,0,0,3.217,2.962,6.33,6.33,0,0,0,2.693.179,7.308,7.308,0,0,0,3.462-1.395.605.605,0,0,0,.259-.538c-.013-1.226-.006-2.452-.009-3.678a2.294,2.294,0,0,0-.026-.246h-4.619v1.767h2.434c.156,1.367-.029,1.664-1.272,2.09-.067.023-.133.046-.2.066a2.954,2.954,0,0,1-4.012-2.394,8.567,8.567,0,0,1-.06-2.243,2.8,2.8,0,0,1,2.46-2.612,2.573,2.573,0,0,1,3.039,1.672Zm-19.528-2.961V45.261h8.143V43.507h-5.975V40.542h5.345v-1.79h-5.336V36.336h5.744V34.554Zm-7.894,6.693c.448,0,.848.01,1.246,0,.647-.02,1.3-.01,1.94-.092a3.079,3.079,0,0,0,2.889-3.276,3.035,3.035,0,0,0-3.141-3.284c-1.555,0-3.11-.037-4.665-.056-.126,0-.252,0-.394,0V45.268h2.125Zm-9.373.519c-.581.065-1.155.121-1.725.2-.091.013-.238.139-.237.212a3.121,3.121,0,0,0,1.3,2.786,4.234,4.234,0,0,0,4.11-.018,3.073,3.073,0,0,0,1.393-2.672c.039-2.168.032-4.337.044-6.506,0-.4,0-.794,0-1.214h-2.139c-.007.105-.018.2-.018.287,0,1.285.008,2.57,0,3.855s-.017,2.591-.08,3.885a1.025,1.025,0,0,1-1.058,1.059,1.211,1.211,0,0,1-1.394-.874C-868.328,42.454-868.364,42.125-868.43,41.766Z" transform="translate(876.934 -2.66)" fill="#12263f"/>
        <path id="Trazado_189656" data-name="Trazado 189656" d="M-624,481.5V478.36c.929.047,1.847.036,2.748.158a1.339,1.339,0,0,1,1.069,1.525,1.344,1.344,0,0,1-1.156,1.32C-622.212,481.455-623.094,481.457-624,481.5Z" transform="translate(641.895 -444.703)" fill="#12263f"/>
        <rect id="Rectángulo_42838" data-name="Rectángulo 42838" width="45" height="21" transform="translate(1.984 25.853)" fill="#12263f"/>
        <text id="BMP" transform="translate(10.984 41.853)" fill="#fff" font-size="16" font-family="MyriadPro-Bold, Myriad Pro" font-weight="700"><tspan x="0" y="0">BMP</tspan></text>
      </g>
    </g>
  </g>
</svg>
