<svg id="Grupo_146064" data-name="Grupo 146064" xmlns="http://www.w3.org/2000/svg" width="66.465" height="77.744" viewBox="0 0 66.465 77.744">
  <g id="Grupo_1192" data-name="Grupo 1192">
    <path id="Trazado_722" data-name="Trazado 722" d="M1508.768,662.327H1476a6.411,6.411,0,0,0-6.363,6.442v64.859a6.411,6.411,0,0,0,6.363,6.443h45.758a6.411,6.411,0,0,0,6.363-6.443v-51.71Zm15.776,71.3a2.809,2.809,0,0,1-2.788,2.823H1476a2.809,2.809,0,0,1-2.788-2.823V668.769a2.809,2.809,0,0,1,2.788-2.823h31.29l.017.018v17.442h17.228l.011.011Z" transform="translate(-1461.654 -662.327)" fill="#fff"/>
    <path id="Trazado_723" data-name="Trazado 723" d="M1476.923,958.856a2.481,2.481,0,0,1-2.391,2.548h-52.607a2.481,2.481,0,0,1-2.391-2.548V933.375a2.481,2.481,0,0,1,2.391-2.548h52.607a2.481,2.481,0,0,1,2.391,2.548Z" transform="translate(-1419.534 -895.052)" fill="#fff"/>
    <text id="PDF" transform="translate(24.337 56.051)" fill="#c7443f" font-size="18" font-family="Montserrat-ExtraBold, Montserrat" font-weight="800" letter-spacing="0.04em" style="isolation: isolate"><tspan x="-20.475" y="0">PDF</tspan></text>
  </g>
</svg>
