<svg xmlns="http://www.w3.org/2000/svg" width="201.432" height="224.296" viewBox="0 0 201.432 224.296">
  <g id="nEVHpm" transform="translate(-553.122 -194.021)">
    <g id="Grupo_146056" data-name="Grupo 146056" transform="translate(553.122 194.02)">
      <path id="Trazado_189674" data-name="Trazado 189674" d="M650.5,335.024c-15.368-.513-34.109-.961-52.828-1.853a134.378,134.378,0,0,1-22.305-2.728c-9.31-2.042-15.545-8.289-17.831-17.537a139.545,139.545,0,0,1-3.158-20.665,318.908,318.908,0,0,1,0-56.513,159.727,159.727,0,0,1,2.322-16.936c2.457-12.588,10.266-19.878,22.917-21.741a301.866,301.866,0,0,1,39.169-2.694q30.294-.491,60.6-.252a422.592,422.592,0,0,1,46.358,2.578c5.854.7,11.436,2.114,16.143,5.952,5.524,4.5,8.328,10.455,9.5,17.35,2.759,16.193,3.311,32.527,3.14,48.9a251.758,251.758,0,0,1-2.833,37.924c-.712,4.373-1.677,8.689-4.092,12.524-4.681,7.431-11.553,11.384-20.144,12.191-10.425.979-20.868,1.914-31.325,2.364C682.06,334.494,667.967,334.616,650.5,335.024ZM633.822,234.052v60.406l52.311-30.2Z" transform="translate(-553.122 -194.02)" fill="#12263f"/>
      <path id="Trazado_189675" data-name="Trazado 189675" d="M959.936,729.23c-.571,1.285-.78,2.827-1.632,3.38s-2.364.151-3.585.16c-.917.006-1.835,0-2.843,0v-54.56h8.231v20.056c1.84-2.56,3.753-4.213,6.509-4.688,3.592-.62,6.569.864,7.8,4.3a18.68,18.68,0,0,1,1.271,5.93c.078,6.736-.046,13.477-.246,20.212a13.334,13.334,0,0,1-1.132,4.363,7.834,7.834,0,0,1-13.159,2.307C960.763,730.269,960.415,729.809,959.936,729.23Zm.171-15.193c0,3.311.062,6.624-.026,9.933a2.794,2.794,0,0,0,2.2,2.928c2.322.8,4.192-.3,4.433-3.186.421-5.02.48-10.076.53-15.118a27.748,27.748,0,0,0-.648-6.383,3.558,3.558,0,0,0-2.066-2.394,4.186,4.186,0,0,0-3.152,1.2,4.96,4.96,0,0,0-1.223,3.093C960.009,707.411,960.1,710.726,960.107,714.037Z" transform="translate(-812.553 -509.037)" fill="#12263f"/>
      <path id="Trazado_189676" data-name="Trazado 189676" d="M758.633,762.77l-.873-4.839c-.515.765-.793,1.216-1.108,1.638a8.4,8.4,0,0,1-6.236,3.7c-4.883.394-7.613-1.743-8.291-6.6a29.632,29.632,0,0,1-.275-4q-.036-13.27-.01-26.54c0-.568.052-1.136.085-1.8h8.53v2q0,12.746.008,25.492a22.972,22.972,0,0,0,.187,2.953c.191,1.452.777,2.588,2.518,2.525a3.909,3.909,0,0,0,3.531-2.868,11.178,11.178,0,0,0,.019-1.4q0-13.357,0-26.714v-2h8.526c.035.595.091,1.105.091,1.617,0,11.64-.026,23.281.037,34.92.008,1.544-.405,2.075-1.955,1.944S760.293,762.77,758.633,762.77Z" transform="translate(-675.898 -539.035)" fill="#12263f"/>
      <path id="Trazado_189677" data-name="Trazado 189677" d="M869.517,724.222h8.356c.04.509.119,1.059.12,1.608q.02,13.355.025,26.711c0,.465.019.931.059,1.394.208,2.385.93,3.31,2.528,3.307,1.573,0,3.736-1.706,3.652-3.687-.2-4.764-.065-9.541-.065-14.313V724.281H892.7v38.4c-1.923,0-3.884.057-5.834-.053-.345-.02-.819-.7-.94-1.147-.277-1.032-.372-2.114-.6-3.52-.494.647-.778.979-1.018,1.339-2.28,3.416-5.564,4.433-9.43,3.786a5.252,5.252,0,0,1-4.374-3.583,17.46,17.46,0,0,1-1.03-5.083c-.106-9.775-.067-19.552-.073-29.329A8.123,8.123,0,0,1,869.517,724.222Z" transform="translate(-758.897 -538.972)" fill="#12263f"/>
      <path id="Trazado_189678" data-name="Trazado 189678" d="M684.141,741.516c-.37,3.8-.479,7.654-1.175,11.4-1,5.408-4.183,7.944-9.7,8.253a20.914,20.914,0,0,1-4.522-.169c-4.694-.77-7.333-3.388-8.153-8.915a63.833,63.833,0,0,1,.18-21.879c1.587-7.985,11.159-11.672,18.01-7.141A9.708,9.708,0,0,1,683,730.019C683.567,733.8,683.774,737.634,684.141,741.516Zm-9.08-.059h.132c0-2.093.065-4.189-.02-6.279a40.853,40.853,0,0,0-.513-5.191c-.25-1.47-1.052-2.667-2.739-2.67s-2.37,1.236-2.768,2.671a2.63,2.63,0,0,0-.122.685q-.018,10.7-.016,21.406a3.362,3.362,0,0,0,.152.857c.383,1.408,1.15,2.463,2.737,2.473a2.7,2.7,0,0,0,2.675-2.32,11.373,11.373,0,0,0,.46-2.738C675.1,747.386,675.061,744.421,675.061,741.456Z" transform="translate(-622.484 -536.942)" fill="#12263f"/>
      <path id="Trazado_189679" data-name="Trazado 189679" d="M603.746,736.13H595.3c0-2.1-.12-4.126.021-6.13a57.838,57.838,0,0,0-2.866-21.43c-2.377-7.653-4.356-15.43-6.5-23.154-.154-.554-.264-1.12-.446-1.9,2.658,0,5.2-.044,7.727.052.347.013.875.677.968,1.115,1.676,7.843,3.3,15.7,4.933,23.549.087.416.221.821.4,1.485l5.608-26.091H613.7c-.953,3.456-1.876,6.85-2.827,10.237-2.261,8.054-4.546,16.1-6.788,24.16a9.926,9.926,0,0,0-.329,2.573C603.731,725.707,603.746,730.822,603.746,736.13Z" transform="translate(-574.189 -512.482)" fill="#12263f"/>
      <path id="Trazado_189680" data-name="Trazado 189680" d="M1054.913,744.224h-15.018c.268,3.181.429,6.216.819,9.222.169,1.3,1.313,1.866,2.6,1.883a2.609,2.609,0,0,0,2.842-1.847c.406-1.436.6-2.932.936-4.646l6.939.414c1.338,4.646-1.288,9.912-5.946,11.12a22.262,22.262,0,0,1-8.08.465c-4.267-.514-6.613-3.54-7.391-7.555a59.822,59.822,0,0,1-.036-23.563c1.587-7.7,10.924-11.105,17.595-6.762a7.894,7.894,0,0,1,3.593,5.934C1054.3,733.9,1054.536,738.934,1054.913,744.224Zm-8.26-5.189c-.2-3.219-.292-6.233-.6-9.226a2.632,2.632,0,0,0-2.719-2.635,2.407,2.407,0,0,0-2.737,2.15c-.352,3.2-.453,6.421-.661,9.712Z" transform="translate(-864.308 -536.905)" fill="#12263f"/>
      <path id="Trazado_189681" data-name="Trazado 189681" d="M820.411,736.342h-8.453v-45.7H803.5v-6.809h25.395v6.773h-8.482Z" transform="translate(-716.018 -512.695)" fill="#12263f"/>
    </g>
  </g>
</svg>
