<svg xmlns="http://www.w3.org/2000/svg" width="169.672" height="169.703" viewBox="0 0 169.672 169.703">
  <g id="XzaV3u.tif" transform="translate(-1259.703 -144.56)">
    <g id="Grupo_146057" data-name="Grupo 146057" transform="translate(1259.703 144.56)">
      <path id="Trazado_189682" data-name="Trazado 189682" d="M1386.629,314.263h-84.167c-1.678-.3-3.364-.553-5.032-.9a46.8,46.8,0,0,1-37.7-46.061q-.071-37.86.027-75.72a47.894,47.894,0,0,1,.869-9.206,46.71,46.71,0,0,1,46.117-37.794q37.77-.059,75.539.03a42.543,42.543,0,0,1,9.363.9c18.942,4.361,31.084,15.98,36.338,34.711.649,2.313.935,4.729,1.389,7.1v84.183c-.295,1.67-.509,3.359-.9,5.008-4.447,18.924-16.005,31.089-34.73,36.352C1391.429,313.521,1389.005,313.807,1386.629,314.263Zm-42.087-154.49V159.7q-18.473,0-36.946,0a34.743,34.743,0,0,0-11.075,1.606,32.091,32.091,0,0,0-21.729,31c.165,24.745.048,49.492.041,74.238a34.344,34.344,0,0,0,1.6,10.911,32.1,32.1,0,0,0,31,21.735c24.74-.165,49.482-.048,74.223-.041a34.181,34.181,0,0,0,10.909-1.605,32.021,32.021,0,0,0,21.723-30.838c-.134-24.856-.051-49.713-.025-74.569a31.011,31.011,0,0,0-3.489-15.148c-5.741-10.545-14.57-16.742-26.642-17.117C1370.949,159.456,1357.741,159.773,1344.543,159.773Z" transform="translate(-1259.703 -144.56)" fill="#12263f"/>
      <path id="Trazado_189683" data-name="Trazado 189683" d="M1471,312.105a43.727,43.727,0,1,1-43.739-43.681A43.835,43.835,0,0,1,1471,312.105Zm-43.673,28.637a28.584,28.584,0,1,0-28.632-28.571A28.517,28.517,0,0,0,1427.329,340.743Z" transform="translate(-1342.433 -227.302)" fill="#12263f"/>
      <path id="Trazado_189684" data-name="Trazado 189684" d="M1630.282,252.013a11.069,11.069,0,0,1-11.134-10.983,11.067,11.067,0,1,1,11.134,10.983Z" transform="translate(-1499.814 -201.593)" fill="#12263f"/>
    </g>
  </g>
</svg>
